<svg width="262" height="220" viewBox="0 0 262 220" fill="none" xmlns="http://www.w3.org/2000/svg">
<path d="M137.061 219.521H125.291V129.105H134.863C135.327 129.105 135.772 129.288 136.1 129.615C136.429 129.941 136.615 130.384 136.617 130.847L137.061 219.521Z" fill="#3E515A"/>
<path d="M126.391 220H0V155.608H126.391V220Z" fill="#455A64"/>
<path d="M135.144 131.673C135.081 131.793 135.031 131.92 134.997 132.051L130.639 148.82L125.911 157.756H0.479736V155.53L7.62096 148.82L15.9516 132.914C16.3193 132.212 16.8023 131.577 17.3804 131.034C18.6994 129.795 20.4423 129.105 22.2535 129.105H133.593C133.896 129.105 134.193 129.183 134.456 129.331C134.719 129.48 134.939 129.694 135.095 129.952C135.251 130.21 135.338 130.505 135.346 130.806C135.355 131.108 135.285 131.406 135.144 131.673Z" fill="#607279"/>
<path d="M132.967 140.251L130.639 148.82H7.62109L11.5961 141.688L132.967 140.251Z" fill="#818F92"/>
<path d="M12.4654 176.953C16.4679 176.953 19.7126 173.715 19.7126 169.72C19.7126 165.725 16.4679 162.486 12.4654 162.486C8.46293 162.486 5.21826 165.725 5.21826 169.72C5.21826 173.715 8.46293 176.953 12.4654 176.953Z" fill="#818F92"/>
<path d="M91.8957 143.96H85.7407V96.6768H90.7464C90.9888 96.6768 91.2214 96.7726 91.3933 96.9433C91.5651 97.114 91.6623 97.3456 91.6635 97.5876L91.8957 143.96Z" fill="#377C42"/>
<path d="M86.3161 144.211H20.2192V110.537H86.3161V144.211Z" fill="#588F61"/>
<path d="M90.8934 98.0198C90.8602 98.0826 90.8344 98.1489 90.8166 98.2176L88.5374 106.987L86.0652 111.66H20.4702V110.496L24.2048 106.987L28.5613 98.6689C28.7536 98.3017 29.0061 97.9693 29.3085 97.6853C29.9983 97.0375 30.9097 96.6768 31.8569 96.6768H90.0825C90.2405 96.6768 90.3959 96.7175 90.5335 96.7951C90.6712 96.8727 90.7864 96.9845 90.868 97.1197C90.9496 97.2548 90.9948 97.4087 90.9992 97.5664C91.0037 97.7241 90.9672 97.8803 90.8934 98.0198Z" fill="#699871"/>
<path d="M89.7548 102.506L88.5373 106.986H24.2048L26.2835 103.257L89.7548 102.506Z" fill="#87A98D"/>
<path d="M26.7382 121.699C28.8313 121.699 30.5281 120.005 30.5281 117.916C30.5281 115.827 28.8313 114.133 26.7382 114.133C24.6451 114.133 22.9482 115.827 22.9482 117.916C22.9482 120.005 24.6451 121.699 26.7382 121.699Z" fill="#91AF96"/>
<path d="M223.144 74.088L214.407 72.8389C211.452 77.7709 210.402 90.8983 210.402 90.8983L201.851 111.184C201.285 111.568 200.83 112.094 200.532 112.709C200.234 113.324 200.104 114.007 200.154 114.689C200.205 115.37 200.434 116.026 200.819 116.591C201.205 117.156 201.732 117.609 202.349 117.906C202.966 118.202 203.65 118.332 204.332 118.28C205.015 118.229 205.672 117.999 206.237 117.614C206.803 117.229 207.257 116.702 207.553 116.086C207.849 115.47 207.978 114.787 207.926 114.105L221.965 90.4936L223.144 74.088Z" fill="#FDCBC0"/>
<path d="M221.753 49.8766C223.106 50.0857 224.395 50.5896 225.53 51.3527C226.665 52.1157 227.618 53.1191 228.32 54.2914C229.023 55.4637 229.458 56.7761 229.594 58.1352C229.731 59.4943 229.565 60.8668 229.11 62.1549L227.256 67.4005C227.256 67.4005 226.247 83.1949 222.397 87.6533L210.586 86.5861C210.586 86.5861 212.746 78.6176 211.088 74.7621C210.073 72.401 210.129 64.2458 211.129 57.6118C211.317 56.407 211.741 55.251 212.376 54.21C213.012 53.1689 213.847 52.2632 214.834 51.5447C215.821 50.8262 216.94 50.309 218.127 50.0228C219.314 49.7366 220.547 49.6869 221.753 49.8766Z" fill="#3B6042"/>
<path d="M250.628 213.763L245.365 213.762L242.861 193.499L250.629 193.5L250.628 213.763Z" fill="#FDCBC0"/>
<path d="M250.813 219.243L234.629 219.242V219.038C234.629 217.371 235.293 215.771 236.474 214.592C237.655 213.413 239.257 212.75 240.928 212.75L243.885 210.512L249.401 212.751L250.813 212.751L250.813 219.243Z" fill="#455A64"/>
<path d="M227.747 188.65L222.885 190.662L212.795 172.902L219.971 169.932L227.747 188.65Z" fill="#FDCBC0"/>
<path d="M230.021 193.641L215.071 199.829L214.993 199.64C214.353 198.1 214.352 196.369 214.991 194.828C215.629 193.287 216.855 192.062 218.398 191.424L220.27 188.225L226.225 188.184L227.53 187.644L230.021 193.641Z" fill="#455A64"/>
<path d="M256.646 98.4949L219.295 102.39L214.299 119.187L196.996 146.941L216.1 181.977L222.828 175.949L216.37 147.658L235.646 126.886L239.301 125.372L242.203 202.45L252.934 202.626L257.63 117.575C259.887 110.062 259.208 103.858 256.646 98.4949Z" fill="#37474F"/>
<path d="M242.952 45.321L236.821 38.4307L227.134 39.505L220.932 48.1686C217.631 48.9262 214.746 50.9178 212.871 53.7338C210.996 56.5497 210.273 59.9759 210.852 63.3073C213.259 77.1403 221.438 90.5567 218.737 97.382C214.638 107.743 214.388 111.968 224.201 110.516C234.015 109.063 266.892 105.714 260.518 99.3521C254.143 92.9897 252.743 82.358 252.743 82.358L252.488 58.0345C252.759 56.5675 252.723 55.0603 252.382 53.6079C252.041 52.1555 251.402 50.7892 250.507 49.5951C249.611 48.4009 248.477 47.4047 247.177 46.6691C245.877 45.9336 244.438 45.4746 242.952 45.321Z" fill="#3B6042"/>
<path d="M230.971 36.6675C236.91 36.6675 241.725 31.862 241.725 25.9341C241.725 20.0062 236.91 15.2007 230.971 15.2007C225.032 15.2007 220.218 20.0062 220.218 25.9341C220.218 31.862 225.032 36.6675 230.971 36.6675Z" fill="#FDCBC0"/>
<path d="M244.221 25.2967C243.741 27.4714 242.875 29.5428 241.663 31.413C241.342 32.0507 240.861 32.5951 240.268 32.994C239.968 33.1863 239.61 33.2675 239.256 33.2233C238.902 33.1791 238.574 33.0124 238.331 32.7522L238.069 32.5395C238.582 32.224 239.04 31.8271 239.426 31.3646C239.616 31.1325 239.749 30.8583 239.812 30.5648C239.875 30.2713 239.867 29.967 239.789 29.6772C239.696 29.3914 239.496 29.1526 239.23 29.0111C238.965 28.8695 238.654 28.8362 238.365 28.9181C237.735 29.1647 237.352 30.0737 236.694 29.9335C236.161 29.8174 236.049 29.1164 236.049 28.5652C236.069 25.6835 234.674 21.5883 233.593 21.714C232.502 21.7736 231.409 21.6276 230.372 21.2837C229.334 20.9392 228.238 20.7996 227.146 20.8727C227.069 20.8824 226.991 20.8969 226.909 20.9114C226.734 20.3639 226.493 19.8395 226.192 19.3497C226.226 19.941 226.197 20.5342 226.105 21.1193C225.236 21.4767 224.338 21.7598 223.421 21.9654C222.423 22.1056 220.229 25.084 220.127 24.7794C219.952 24.2319 219.711 23.7075 219.41 23.2177C219.444 23.8089 219.415 24.4022 219.323 24.9873C219.318 25.0114 219.318 25.0308 219.313 25.055C218.829 24.4119 218.534 23.6286 218.698 24.2282C217.076 20.5633 217.705 17.9379 220.258 14.8483C220.756 14.184 221.414 13.6566 222.171 13.3156C222.551 13.1493 222.967 13.0833 223.379 13.1239C223.791 13.1646 224.186 13.3105 224.526 13.5477C225.567 12.5949 226.844 11.9373 228.226 11.6432C229.607 11.3491 231.042 11.429 232.382 11.8748C235.042 12.7983 237.091 13.3398 237.498 16.1248C239.697 15.7718 241.959 17.0192 243.17 18.8807C244.376 20.747 244.623 23.1161 244.221 25.2967Z" fill="#263238"/>
<path d="M235.501 114.448H231.932V87.0295H234.834C234.975 87.0295 235.11 87.0851 235.21 87.1841C235.309 87.283 235.366 87.4174 235.366 87.5577L235.501 114.448Z" fill="#22672E"/>
<path d="M232.265 114.593H193.938V95.0664H232.265V114.593Z" fill="#377C42"/>
<path d="M234.92 87.8083C234.9 87.8447 234.885 87.8832 234.875 87.923L233.553 93.0078L232.12 95.7177H194.084V95.0428L196.249 93.0078L198.775 88.1847C198.887 87.9718 199.033 87.779 199.209 87.6144C199.609 87.2387 200.137 87.0295 200.686 87.0295H234.449C234.541 87.0295 234.631 87.0532 234.711 87.0982C234.791 87.1432 234.858 87.208 234.905 87.2864C234.952 87.3647 234.978 87.454 234.981 87.5454C234.984 87.6369 234.962 87.7274 234.92 87.8083Z" fill="#478552"/>
<path d="M234.259 90.4094L233.554 93.0081H196.25L197.455 90.8452L234.259 90.4094Z" fill="#6F9C77"/>
<path d="M197.718 101.539C198.932 101.539 199.916 100.557 199.916 99.3457C199.916 98.1342 198.932 97.1521 197.718 97.1521C196.505 97.1521 195.521 98.1342 195.521 99.3457C195.521 100.557 196.505 101.539 197.718 101.539Z" fill="#6F9C77"/>
<path d="M250.411 71.5814L241.674 70.3323C238.719 75.2643 237.669 88.3917 237.669 88.3917L229.118 108.678C228.552 109.061 228.097 109.587 227.799 110.203C227.501 110.818 227.371 111.501 227.422 112.182C227.472 112.863 227.702 113.52 228.087 114.084C228.472 114.649 229 115.103 229.617 115.399C230.233 115.696 230.917 115.825 231.6 115.774C232.283 115.722 232.94 115.493 233.505 115.107C234.07 114.722 234.524 114.195 234.821 113.579C235.117 112.963 235.246 112.28 235.193 111.599L249.233 87.987L250.411 71.5814Z" fill="#FDCBC0"/>
<path d="M245.676 47.3698C247.028 47.5788 248.318 48.0828 249.453 48.8458C250.588 49.6089 251.541 50.6122 252.243 51.7845C252.945 52.9568 253.38 54.2692 253.517 55.6283C253.653 56.9874 253.488 58.3599 253.033 59.648L251.179 64.8936C251.179 64.8936 253.514 80.6881 249.665 85.1465L237.854 84.0793C237.854 84.0793 240.013 76.1107 238.355 72.2553C237.34 69.8941 237.397 61.739 238.397 55.1049C239.161 50.0393 240.604 46.5858 245.676 47.3698Z" fill="#3B6042"/>
<path d="M78.802 39.4636C77.56 39.5447 76.3989 40.1063 75.5655 41.0289C74.7321 41.9516 74.2923 43.1624 74.3396 44.4038C74.3532 44.6559 74.3877 44.9066 74.4427 45.1531L60.3398 54.0214L68.1367 57.4633L80.3337 48.5141C81.34 48.2072 82.2163 47.5764 82.8257 46.7202C83.4351 45.8639 83.7434 44.8304 83.7024 43.7809C83.6734 43.1839 83.5268 42.5985 83.2711 42.0581C83.0154 41.5176 82.6556 41.0328 82.2121 40.6311C81.7687 40.2295 81.2503 39.919 80.6866 39.7173C80.123 39.5157 79.525 39.4268 78.927 39.4558C78.8853 39.4578 78.8436 39.4604 78.802 39.4636Z" fill="#FDCBC0"/>
<path d="M65.2024 49.9905L68.6977 57.1888L54.8778 66.0655C53.8945 66.7025 52.7643 67.078 51.5946 67.1562C50.425 67.2344 49.2547 67.0128 48.195 66.5123C46.9067 65.8968 45.8537 64.88 45.1948 63.6151C44.5358 62.3502 44.3067 60.9058 44.5418 59.4996L49.026 33.9463C49.3271 32.1581 50.3032 30.553 51.7536 29.4612C53.204 28.3694 55.0184 27.8738 56.8236 28.0764C57.7029 28.1724 58.5547 28.4403 59.3303 28.8648C60.1058 29.2893 60.79 29.8622 61.3438 30.5507C61.8976 31.2391 62.3101 32.0297 62.5577 32.8773C62.8054 33.7249 62.8834 34.6129 62.7872 35.4906C62.7796 35.5599 62.771 35.6291 62.7612 35.6982C62.7273 35.9437 62.6802 36.1873 62.62 36.4277L57.7246 54.6008L65.2024 49.9905Z" fill="#17441F"/>
<path d="M66.1846 61.1497H46.4207V80.877H66.1846V61.1497Z" fill="#FDCBC0"/>
<path d="M113.055 119.248L120.603 116.713L124.806 137.221L119.691 138.938L113.055 119.248Z" fill="#FDCBC0"/>
<path d="M100.262 117.672L107.749 114.963L112.429 135.367L107.356 137.203L100.262 117.672Z" fill="#FDCBC0"/>
<path d="M47.1296 86.0308C43.1683 112.391 95.92 96.8062 95.92 96.8062L112.46 119.581L122.143 117.823C122.143 117.823 117.786 104.151 110.005 85.8229C106.549 77.6835 67.3107 79.6723 67.3107 79.6723L66.4959 73.2902L44.0486 72.8508L47.1296 86.0308Z" fill="#263238"/>
<path d="M85.2346 98.5733L97.4328 90.9902C106.363 108.789 108.995 116.497 108.995 116.497L100.553 118.867L85.2346 98.5733Z" fill="#263238"/>
<path d="M58.4201 29.0925L54.442 23.9885L48.7674 23.7429L48.201 28.5433L45.3892 29.8375C42.5817 40.4839 42.1481 51.6155 44.119 62.4474C44.4958 62.8016 44.7712 63.2497 44.9166 63.7455C45.0621 64.2413 45.0724 64.7668 44.9465 65.2679L44.7642 65.9933L44.781 66.0199C45.3793 66.9622 45.5823 68.1016 45.3462 69.192L44.0034 71.5736C43.5216 72.4301 43.2324 73.381 43.156 74.3603C43.0796 75.3396 43.2178 76.3238 43.5611 77.2444C43.9043 78.165 44.4443 78.9999 45.1436 79.6911C45.8428 80.3823 46.6845 80.9131 47.6101 81.2467C55.8641 84.233 63.6015 85.3453 69.3256 76.9655L71.1255 47.763L58.4201 29.0925Z" fill="#17441F"/>
<path d="M54.2528 25.344C60.0474 25.344 64.7449 20.6552 64.7449 14.8713C64.7449 9.08744 60.0474 4.39868 54.2528 4.39868C48.4582 4.39868 43.7607 9.08744 43.7607 14.8713C43.7607 20.6552 48.4582 25.344 54.2528 25.344Z" fill="#FDCBC0"/>
<path d="M48.9858 2.24679C44.5434 2.33198 41.0199 6.44508 41.1159 11.4337C37.8284 14.8577 37.032 31.6989 39.7789 36.1792C44.8039 36.7614 47.8604 24.3524 52.2672 26.1463L52.8478 23.4382L54.1637 26.9648C55.2836 27.4801 56.3951 28.0458 57.4981 28.6618C58.2907 25.0327 58.0942 21.5051 55.9637 18.4326C54.071 15.7029 58.677 12.4623 61.9711 12.9203L61.9228 10.4132L62.7502 12.9053C64.0342 13.8471 65.4546 13.5062 66.9111 12.8255C69.273 0.5729 50.9867 -2.77781 48.9858 2.24679Z" fill="#2F2E41"/>
<path d="M117.367 142.407L120.729 141.969L120.915 138.721L122.867 141.69L131.786 140.527C132.214 140.471 132.612 140.281 132.924 139.983C133.235 139.685 133.443 139.296 133.517 138.872C133.59 138.448 133.527 138.011 133.334 137.626C133.142 137.241 132.832 136.927 132.448 136.73L124.683 132.749L124.264 129.545L116.83 130.968L117.367 142.407Z" fill="#1D2B33"/>
<path d="M108.484 142.436L111.535 140.958L110.681 137.819L113.474 140.018L121.566 136.096C121.954 135.908 122.271 135.601 122.472 135.22C122.673 134.84 122.747 134.405 122.682 133.979C122.618 133.554 122.419 133.16 122.114 132.855C121.81 132.55 121.416 132.351 120.989 132.286L112.361 130.963L110.947 128.056L104.347 131.755L108.484 142.436Z" fill="#1D2B33"/>
<path d="M62.4292 72.5999H66.1702V43.8611H63.1277C62.9804 43.8611 62.839 43.9193 62.7345 44.0231C62.6301 44.1268 62.571 44.2676 62.5703 44.4147L62.4292 72.5999Z" fill="#53666E"/>
<path d="M65.8208 52.2852H105.994V72.7521H65.8208V52.2852Z" fill="white"/>
<path d="M63.0387 44.6774C63.0588 44.7155 63.0745 44.7559 63.0854 44.7976L64.4707 50.1273L65.9732 52.9678H105.842V52.2604L103.572 50.1274L100.924 45.0719C100.807 44.8487 100.654 44.6467 100.47 44.4741C100.051 44.0803 99.4966 43.8611 98.9209 43.8611H63.5315C63.4355 43.8611 63.341 43.8859 63.2574 43.933C63.1737 43.9802 63.1037 44.0482 63.0541 44.1303C63.0045 44.2124 62.9771 44.306 62.9743 44.4018C62.9716 44.4977 62.9938 44.5926 63.0387 44.6774Z" fill="#7B8A8E"/>
<path d="M65.8208 52.6453H105.994V73.1122H65.8208V52.6453ZM105.689 72.8078H66.1258V52.9497H105.689L105.689 72.8078Z" fill="#6E7E83"/>
<path d="M63.7305 47.4038L64.4707 50.1274H103.572L102.308 47.8606L63.7305 47.4038Z" fill="#949FA1"/>
<path d="M102.032 59.0697C103.304 59.0697 104.336 58.0403 104.336 56.7704C104.336 55.5006 103.304 54.4712 102.032 54.4712C100.76 54.4712 99.7285 55.5006 99.7285 56.7704C99.7285 58.0403 100.76 59.0697 102.032 59.0697Z" fill="#949FA1"/>
<path d="M77.5167 49.6729C76.2755 49.5812 75.0475 49.9765 74.0939 50.7747C73.1402 51.5729 72.5363 52.7111 72.4105 53.947C72.3889 54.1986 72.3882 54.4516 72.4084 54.7033L57.2087 61.5317L64.4514 66.0206L77.7749 58.8481C78.8142 58.6836 79.7697 58.1804 80.4923 57.4169C81.2149 56.6533 81.6639 55.6725 81.7693 54.6275C81.8789 53.4254 81.5056 52.2291 80.7315 51.3017C79.9574 50.3744 78.8459 49.7919 77.6416 49.6826C77.6 49.6788 77.5584 49.6756 77.5167 49.6729Z" fill="#FDCBC0"/>
<path d="M62.5849 58.2134L65.0452 65.8263L50.1247 72.7022C49.0623 73.1968 47.8908 73.412 46.7216 73.3274C45.5523 73.2428 44.4242 72.8611 43.4444 72.2187C42.2541 71.4307 41.3528 70.2778 40.8761 68.9338C40.3995 67.5899 40.3734 66.1277 40.8018 64.7677L48.7965 40.0831C49.3433 38.3539 50.5332 36.8997 52.1214 36.0194C53.7096 35.1391 55.5753 34.8997 57.3349 35.3505C58.1924 35.5674 58.9986 35.9507 59.7076 36.4786C60.4167 37.0065 61.0146 37.6686 61.4672 38.4271C61.9199 39.1857 62.2184 40.0258 62.3458 40.8995C62.4732 41.7732 62.427 42.6633 62.2097 43.5192C62.1925 43.5868 62.1743 43.6542 62.155 43.7212C62.0873 43.9597 62.0067 44.1943 61.9137 44.4241L54.5383 61.7429L62.5849 58.2134Z" fill="#17441F"/>
</svg>
