<svg width="173" height="220" viewBox="0 0 173 220" fill="none" xmlns="http://www.w3.org/2000/svg">
<path d="M172.672 169.613H3.28369V0H172.672V169.613Z" fill="#3E515A"/>
<circle cx="32.2629" cy="33.6912" r="14.2759" fill="#607279"/>
<path d="M155.322 26.5532H69.3804V28.8374H155.322V26.5532Z" fill="#607279"/>
<path d="M155.322 32.5491H69.3804V34.8332H155.322V32.5491Z" fill="#607279"/>
<path d="M155.322 38.5449H69.3804V40.8291H155.322V38.5449Z" fill="#607279"/>
<path d="M155.322 77.6611H69.3804V79.9453H155.322V77.6611Z" fill="#607279"/>
<path d="M155.322 83.657H69.3804V85.9411H155.322V83.657Z" fill="#607279"/>
<path d="M155.322 89.6528H69.3804V91.937H155.322V89.6528Z" fill="#607279"/>
<path d="M155.322 128.769H69.3804V131.053H155.322V128.769Z" fill="#607279"/>
<path d="M155.322 134.765H69.3804V137.049H155.322V134.765Z" fill="#607279"/>
<path d="M155.322 140.475H69.3804V142.759H155.322V140.475Z" fill="#607279"/>
<path d="M39.9475 44.7654C38.6944 44.1042 37.3864 43.553 36.0382 43.1181L35.8663 41.2138L28.8943 40.4617L28.0082 42.8956L25.5061 43.8358C25.4165 43.8698 25.3313 43.9142 25.2522 43.9682H25.2494C25.1098 44.0627 24.9909 44.1847 24.8999 44.3268C24.809 44.4689 24.7479 44.628 24.7205 44.7945C24.6937 44.9601 24.7001 45.1293 24.7391 45.2924L24.8713 45.8354C25.0617 45.9492 25.2574 46.0578 25.4531 46.1611L25.5775 46.2247C25.8632 46.373 26.1541 46.5134 26.453 46.6431C26.5138 46.6696 26.5799 46.6961 26.6408 46.7226C26.646 46.7252 26.6486 46.7252 26.6539 46.7279C26.7942 46.7862 26.9343 46.8418 27.0771 46.8947C27.5463 47.0742 28.0249 47.228 28.5107 47.3556C29.7506 47.6865 31.0283 47.8539 32.3115 47.8535C32.7797 47.8535 33.2425 47.8323 33.7001 47.7873C34.7456 47.6906 35.7778 47.482 36.7789 47.1649C36.7814 47.1649 36.7842 47.1622 36.7867 47.1622C37.4191 46.9605 38.0369 46.7154 38.6356 46.4286C38.6382 46.426 38.6435 46.426 38.6462 46.4233C38.781 46.3598 38.9107 46.2909 39.0429 46.2247L39.1064 46.1929C39.2121 46.1373 39.318 46.0817 39.4238 46.0234C39.6883 45.8777 39.9475 45.7241 40.204 45.5599C40.2754 45.5175 40.3442 45.4725 40.4157 45.4249C40.5161 45.3586 40.6166 45.2898 40.7145 45.2183C40.4685 45.0594 40.212 44.9084 39.9475 44.7654Z" fill="#3F3D56"/>
<path d="M26.8629 45.9387L26.4265 43.9656H25.2865C25.275 43.9657 25.2636 43.9666 25.2522 43.9682H25.2495C24.8398 44.0029 24.4453 44.1395 24.1016 44.3655C23.8685 44.5145 23.6613 44.7005 23.488 44.9164C23.8265 45.1733 24.1783 45.4116 24.5407 45.6394L24.5566 45.6473C24.6597 45.7109 24.7656 45.7745 24.8713 45.8354C25.0617 45.9492 25.2575 46.0578 25.4532 46.1611L25.5775 46.2247C25.8632 46.373 26.1542 46.5134 26.453 46.6431C26.5138 46.6696 26.58 46.6961 26.6408 46.7226C26.6461 46.7253 26.6487 46.7253 26.654 46.7279C26.7942 46.7862 26.9344 46.8418 27.0772 46.8948L26.8629 45.9387Z" fill="#3F3D56"/>
<path d="M32.1067 39.2579C34.8799 39.2579 37.128 37.0068 37.128 34.2299C37.128 31.453 34.8799 29.2019 32.1067 29.2019C29.3335 29.2019 27.0853 31.453 27.0853 34.2299C27.0853 37.0068 29.3335 39.2579 32.1067 39.2579Z" fill="#FDCBC0"/>
<path d="M28.7353 31.7807C29.2551 32.3967 30.1348 32.5705 30.9463 32.6417C32.8434 32.7467 34.7461 32.5911 36.6011 32.1794C36.7161 33.2949 36.4027 34.4978 37.0589 35.4154C37.3665 34.3045 37.5453 33.1617 37.5919 32.0098C37.6409 31.5156 37.5765 31.0166 37.4035 30.5512C37.311 30.3179 37.1551 30.1152 36.9533 29.9663C36.7516 29.8174 36.5121 29.7281 36.2622 29.7086C36.6363 29.4244 37.0745 29.2369 37.5381 29.1624L35.9438 28.3601L36.3532 27.9392L33.4667 27.7623L34.3027 27.2305C33.0444 27.0574 31.7714 27.0171 30.5047 27.1105C29.9127 27.1107 29.332 27.2724 28.8249 27.578C28.3483 27.9193 28.0729 28.5975 28.3687 29.0986C27.9983 29.1595 27.6496 29.3141 27.3555 29.5477C27.0614 29.7814 26.8318 30.0863 26.6884 30.4336C26.507 30.9858 26.4632 31.5739 26.5608 32.1469C26.6696 33.0661 26.8829 33.9699 27.1967 34.8406L28.7353 31.7807Z" fill="#2F2E41"/>
<path d="M46.2267 28.7794C45.5221 26.7528 44.3846 24.9044 42.8934 23.3632C41.4022 21.822 39.5931 20.6251 37.5925 19.8559C35.5918 19.0867 33.4477 18.7638 31.3096 18.9096C29.1714 19.0554 27.0908 19.6665 25.2128 20.7002C23.3348 21.734 21.7045 23.1654 20.4358 24.8949C19.167 26.6243 18.2903 28.61 17.8667 30.7136C17.4431 32.8172 17.4829 34.988 17.9833 37.0746C18.4836 39.1612 19.4325 41.1134 20.7638 42.795C20.896 42.9619 21.0335 43.1287 21.1738 43.2903C21.1844 43.3009 21.1923 43.3115 21.2029 43.3221C21.5476 43.7198 21.914 44.0983 22.3005 44.4556C22.4011 44.5483 22.5069 44.6436 22.6126 44.7337C22.8136 44.9138 23.02 45.0859 23.2342 45.2501C23.3188 45.3163 23.4008 45.3826 23.4881 45.4461C23.8266 45.703 24.1784 45.9414 24.5408 46.1692L24.5567 46.1771C24.6597 46.2407 24.7656 46.3042 24.8714 46.3651C25.0618 46.479 25.2576 46.5876 25.4532 46.6909L25.5776 46.7545C25.8633 46.9028 26.1543 47.0431 26.4531 47.1729C26.5139 47.1994 26.5801 47.2259 26.6409 47.2524C26.6462 47.255 26.6488 47.255 26.6541 47.2577C26.7943 47.3159 26.9344 47.3716 27.0773 47.4245C27.5465 47.604 28.025 47.7578 28.5108 47.8854C29.7507 48.2163 31.0284 48.3836 32.3116 48.3833C32.7798 48.3833 33.2427 48.3621 33.7002 48.3171C34.7458 48.2204 35.7779 48.0118 36.779 47.6947C36.7816 47.6947 36.7843 47.692 36.7869 47.692C37.4193 47.4903 38.037 47.2452 38.6357 46.9584C38.6383 46.9557 38.6436 46.9557 38.6463 46.9531C38.7812 46.8895 38.9108 46.8207 39.0431 46.7545L39.1065 46.7227C39.2123 46.6671 39.3182 46.6114 39.4239 46.5532C39.6884 46.4075 39.9476 46.2539 40.2041 46.0897C40.2755 46.0473 40.3444 46.0023 40.4158 45.9546C40.5163 45.8884 40.6167 45.8196 40.7146 45.748C40.8442 45.658 40.9738 45.5653 41.1008 45.47C41.1404 45.4408 41.1828 45.4117 41.2224 45.3799C43.7004 43.4966 45.5192 40.876 46.4182 37.8938C47.3172 34.9117 47.2501 31.7211 46.2267 28.7794ZM40.7358 44.7363C40.6485 44.8052 40.5586 44.8714 40.4686 44.9323C40.3813 44.9985 40.2941 45.0621 40.2041 45.1204C40.1274 45.176 40.0507 45.229 39.9714 45.2793L39.9476 45.2952C39.8894 45.3349 39.8313 45.3719 39.773 45.409C39.5535 45.5467 39.3313 45.6792 39.1065 45.8063L39.0351 45.846C38.9346 45.9017 38.8341 45.9546 38.7336 46.0076C38.7203 46.0156 38.7044 46.0208 38.6913 46.0288L38.6754 46.0367C38.5485 46.103 38.4188 46.1665 38.2893 46.2274C37.7891 46.4686 37.2741 46.6774 36.7472 46.8525C36.6784 46.8763 36.6097 46.9001 36.541 46.9213C35.5934 47.2231 34.6162 47.422 33.6262 47.5146C33.1924 47.5543 32.7533 47.5755 32.3116 47.5755C31.098 47.578 29.8893 47.4195 28.7172 47.1041C28.1157 46.9468 27.5261 46.7468 26.953 46.5055C26.9239 46.4923 26.8921 46.4817 26.863 46.4684C26.8314 46.4552 26.8022 46.4446 26.7731 46.4314C26.7414 46.4181 26.7123 46.4049 26.6805 46.389C26.4319 46.2804 26.1859 46.1612 25.9453 46.0367L25.8289 45.9758C25.5352 45.8222 25.247 45.658 24.9666 45.4832C24.8846 45.4329 24.8 45.3799 24.7206 45.3243C24.6995 45.3111 24.6809 45.2978 24.6598 45.2846C24.472 45.1601 24.2842 45.0303 24.1017 44.8952C23.9775 44.8025 23.8531 44.7099 23.7314 44.6145C23.5278 44.4609 23.332 44.2967 23.1416 44.1272C23.0411 44.0424 22.9432 43.9497 22.8481 43.8623C22.473 43.5156 22.118 43.1478 21.7848 42.7606C21.6737 42.6335 21.5652 42.5063 21.4621 42.3739C21.4386 42.3477 21.4165 42.3203 21.3959 42.2918C19.6774 40.1204 18.6438 37.4857 18.4268 34.7236C18.2098 31.9615 18.8193 29.1974 20.1775 26.7836C21.5358 24.3698 23.5813 22.4158 26.0531 21.1708C28.5249 19.9257 31.3111 19.4462 34.0562 19.7931C36.8014 20.1401 39.3811 21.2979 41.4664 23.119C43.5517 24.94 45.0481 27.3417 45.7647 30.0177C46.4813 32.6938 46.3857 35.5229 45.4901 38.1443C44.5944 40.7658 42.9393 43.0606 40.7358 44.7363Z" fill="#607279"/>
<path d="M46.2268 79.8602C45.5222 77.8336 44.3847 75.9852 42.8935 74.444C41.4023 72.9028 39.5932 71.7059 37.5926 70.9367C35.5919 70.1675 33.4478 69.8446 31.3097 69.9904C29.1716 70.1362 27.0909 70.7473 25.2129 71.781C23.3349 72.8148 21.7047 74.2462 20.4359 75.9757C19.1672 77.7051 18.2904 79.6908 17.8669 81.7944C17.4433 83.898 17.483 86.0687 17.9834 88.1553C18.4837 90.2419 19.4326 92.1941 20.7639 93.8758C20.8961 94.0427 21.0336 94.2095 21.1738 94.3711C21.1844 94.3817 21.1922 94.3923 21.2028 94.4028C21.5477 94.8006 21.9142 95.179 22.3006 95.5364C22.4011 95.6291 22.5068 95.7244 22.6126 95.8145C22.8137 95.9946 23.0199 96.1667 23.2342 96.3309C23.6525 96.6611 24.0887 96.9679 24.5408 97.2499L24.5567 97.2579C24.8502 97.4406 25.1491 97.6101 25.4533 97.7717L25.5776 97.8353C25.8633 97.9836 26.1542 98.1239 26.4531 98.2537C26.5139 98.2802 26.58 98.3067 26.6409 98.3332C26.6462 98.3358 26.6489 98.3358 26.6542 98.3384C27.258 98.5899 27.8784 98.7996 28.5109 98.9661C29.7508 99.297 31.0285 99.4644 32.3116 99.464C32.7798 99.464 33.2426 99.4429 33.7002 99.3978C34.7457 99.3012 35.7779 99.0926 36.779 98.7755C36.7817 98.7755 36.7843 98.7728 36.7868 98.7728C37.4192 98.5711 38.037 98.326 38.6357 98.0392C38.6383 98.0365 38.6437 98.0365 38.6463 98.0339C38.7811 97.9703 38.9108 97.9015 39.0431 97.8352L39.1066 97.8035C39.2124 97.7478 39.3181 97.6922 39.4239 97.6339C39.6884 97.4883 39.9476 97.3347 40.2042 97.1705C40.2756 97.1281 40.3443 97.0831 40.4158 97.0354C40.6485 96.8818 40.8786 96.7176 41.1008 96.5507C41.1405 96.5216 41.1828 96.4925 41.2225 96.4607C43.7004 94.5773 45.5192 91.9567 46.4182 88.9746C47.3171 85.9924 47.2501 82.8019 46.2268 79.8602Z" fill="#607279"/>
<path d="M37.174 90.7913C38.3936 90.7913 39.3822 89.8013 39.3822 88.5801C39.3822 87.3589 38.3936 86.3689 37.174 86.3689C35.9544 86.3689 34.9657 87.3589 34.9657 88.5801C34.9657 89.8013 35.9544 90.7913 37.174 90.7913Z" fill="#263238"/>
<path d="M37.7893 86.4299C38.1715 86.4299 38.5472 86.5293 38.8795 86.7182C39.2119 86.9071 39.4896 87.1792 39.6856 87.5078C39.8815 87.8364 39.9889 88.2103 39.9972 88.5929C40.0056 88.9756 39.9147 89.3538 39.7333 89.6907C39.9247 89.4508 40.0641 89.1737 40.1426 88.8769C40.2212 88.5801 40.2371 88.2702 40.1894 87.9669C40.1417 87.6637 40.0315 87.3736 39.8657 87.1154C39.6999 86.8571 39.4822 86.6363 39.2264 86.4669C38.9707 86.2975 38.6825 86.1834 38.3803 86.1317C38.078 86.08 37.7684 86.0919 37.471 86.1666C37.1736 86.2414 36.895 86.3774 36.653 86.5659C36.411 86.7544 36.2108 86.9913 36.0653 87.2615C36.2717 87.002 36.534 86.7924 36.8325 86.6484C37.1311 86.5045 37.4579 86.4298 37.7893 86.4299Z" fill="#263238"/>
<path d="M33.0473 88.5754C36.63 88.5754 39.5343 85.6672 39.5343 82.0798C39.5343 78.4924 36.63 75.5842 33.0473 75.5842C29.4646 75.5842 26.5603 78.4924 26.5603 82.0798C26.5603 85.6672 29.4646 88.5754 33.0473 88.5754Z" fill="#263238"/>
<path d="M27.9561 78.0497C29.0738 76.7909 30.6363 76.0163 32.3136 75.8892C33.991 75.7621 35.652 76.2925 36.9462 77.3685C36.8933 77.3179 36.8404 77.267 36.7857 77.218C35.5043 76.0685 33.8193 75.4758 32.1014 75.5703C30.3835 75.6648 28.7735 76.4388 27.6255 77.7219C26.4775 79.0051 25.8856 80.6923 25.98 82.4125C26.0744 84.1326 26.8473 85.7448 28.1287 86.8943C28.1411 86.9053 28.1534 86.9163 28.1658 86.9272C28.2208 86.9762 28.2774 87.0226 28.3338 87.0695C27.115 85.9085 26.3944 84.3189 26.324 82.636C26.2536 80.9531 26.8386 79.3086 27.9561 78.0497Z" fill="#263238"/>
<path d="M32.9923 88.5203C35.2997 88.5203 37.1702 86.6473 37.1702 84.3368C37.1702 82.0263 35.2997 80.1533 32.9923 80.1533C30.6849 80.1533 28.8143 82.0263 28.8143 84.3368C28.8143 86.6473 30.6849 88.5203 32.9923 88.5203Z" fill="#975E4C"/>
<path d="M40.4685 95.237V96.6407C40.2119 96.8049 39.9527 96.9585 39.6882 97.1041C39.5825 97.1624 39.4767 97.218 39.3709 97.2736L39.3074 97.3054C39.1751 97.3716 39.0455 97.4405 38.9106 97.5041C38.9081 97.5067 38.9026 97.5067 38.9001 97.5093C38.3013 97.7961 37.6836 98.0413 37.0512 98.243C37.0486 98.243 37.046 98.2456 37.0433 98.2456C36.0422 98.5627 35.0101 98.7714 33.9645 98.868C33.507 98.913 33.0441 98.9342 32.5759 98.9342C31.2928 98.9346 30.0151 98.7672 28.7753 98.4363C28.1427 98.2698 27.5224 98.0601 26.9185 97.8086C26.9132 97.806 26.9105 97.806 26.9052 97.8033C26.8444 97.7768 26.7782 97.7504 26.7174 97.7239C26.4186 97.5941 26.1276 97.4537 25.8419 97.3054L25.7177 97.2419C25.4134 97.0803 25.1146 96.9108 24.821 96.7281L24.8051 96.7201C24.3531 96.4381 23.9169 96.1313 23.4985 95.8011C23.2843 95.6369 23.078 95.4647 22.8769 95.2847C22.7712 95.1946 22.6654 95.0993 22.5649 95.0066C22.1785 94.6492 21.812 94.2708 21.4672 93.873C21.5129 93.5972 21.5801 93.3253 21.6683 93.0599L21.6708 93.0573C21.6867 93.0121 21.7052 92.9679 21.7264 92.9249C21.741 92.8869 21.7577 92.8497 21.7766 92.8136C22.2501 91.9264 23.1071 91.7066 24.1704 91.6589C24.7708 91.6324 25.4346 91.6616 26.1356 91.6536C26.5059 91.651 26.8893 91.6377 27.2729 91.6033C29.693 91.3835 29.254 89.9533 29.3624 89.1826C29.4709 88.4358 30.1427 89.082 30.1876 89.1243L30.1902 89.127C31.5597 89.7688 33.075 90.0348 34.5809 89.8977C34.8401 89.8659 35.0992 89.8474 35.3584 89.8394C36.0409 89.8315 35.8927 90.0275 35.6574 90.189C35.5432 90.2643 35.4239 90.3316 35.3003 90.3903C35.3003 90.3903 35.1919 91.0524 35.0808 92.0429C34.975 92.9911 36.7894 93.436 36.9401 93.4705C36.9432 93.4725 36.947 93.4735 36.9507 93.4731C37.6133 93.301 38.3109 93.3194 38.9636 93.5261H38.9662C39.3391 93.6634 39.6719 93.8918 39.9342 94.1906C40.1966 94.4894 40.3803 94.8491 40.4685 95.237Z" fill="#17441F"/>
<path d="M26.9449 96.9399C26.9449 97.1359 26.9397 97.324 26.9317 97.5014C26.9291 97.6074 26.9239 97.7106 26.9186 97.8086C26.9133 97.806 26.9106 97.806 26.9053 97.8033C26.8444 97.7768 26.7783 97.7504 26.7175 97.7239C26.4186 97.5941 26.1277 97.4537 25.842 97.3054L25.7177 97.2419C25.4135 97.0803 25.1146 96.9108 24.8211 96.7281C24.8289 96.6354 24.8423 96.5427 24.8554 96.45C24.8845 96.246 24.9084 96.0395 24.9242 95.8355C25.0282 94.4028 24.7689 92.9671 24.1704 91.6616V91.6589C24.1175 91.553 24.0858 91.4947 24.0858 91.4947C24.0858 91.4947 24.8554 90.8326 25.953 91.4947C26.0232 91.536 26.0851 91.5898 26.1356 91.6536C26.7969 92.4349 26.9767 95.0622 26.9449 96.9399Z" fill="#2F2E41"/>
<path d="M38.9557 96.5798C38.9451 96.8765 38.9292 97.1863 38.9107 97.5015V97.5041C38.9081 97.5068 38.9027 97.5068 38.9001 97.5094C38.3014 97.7962 37.6837 98.0413 37.0513 98.243C37.0487 98.243 37.0461 98.2457 37.0434 98.2457L37.0143 97.5015L37.0116 97.4035L36.8715 93.7804C36.8677 93.6984 36.8806 93.6165 36.9094 93.5396C36.9381 93.4627 36.9821 93.3924 37.0387 93.333C37.0953 93.2736 37.1634 93.2263 37.2387 93.194C37.3141 93.1616 37.3952 93.1449 37.4772 93.1448H38.8181C38.8843 93.1448 38.9319 93.2798 38.9637 93.5235V93.5261C39.0287 94.5431 39.026 95.5632 38.9557 96.5798Z" fill="#2F2E41"/>
<path d="M29.4191 79.1074V83.292H30.3866L31.6178 81.9709L31.453 83.292H35.7299L35.4654 81.9709L35.9944 83.292H36.6763V79.1074H29.4191Z" fill="#263238"/>
<path d="M28.7593 84.0617C28.9414 84.0617 29.0891 83.7906 29.0891 83.4563C29.0891 83.1219 28.9414 82.8508 28.7593 82.8508C28.5771 82.8508 28.4294 83.1219 28.4294 83.4563C28.4294 83.7906 28.5771 84.0617 28.7593 84.0617Z" fill="#975E4C"/>
<circle cx="32.2629" cy="135.907" r="14.2759" fill="#607279"/>
<path d="M37.2256 84.0617C37.4077 84.0617 37.5554 83.7906 37.5554 83.4563C37.5554 83.1219 37.4077 82.8508 37.2256 82.8508C37.0434 82.8508 36.8958 83.1219 36.8958 83.4563C36.8958 83.7906 37.0434 84.0617 37.2256 84.0617Z" fill="#975E4C"/>
<path d="M46.2268 79.8602C45.5222 77.8336 44.3847 75.9852 42.8935 74.444C41.4023 72.9028 39.5932 71.7059 37.5926 70.9367C35.5919 70.1675 33.4478 69.8446 31.3097 69.9904C29.1716 70.1362 27.0909 70.7473 25.2129 71.781C23.3349 72.8148 21.7047 74.2462 20.4359 75.9757C19.1672 77.7051 18.2904 79.6908 17.8669 81.7944C17.4433 83.898 17.483 86.0687 17.9834 88.1553C18.4837 90.2419 19.4326 92.1941 20.7639 93.8758C20.8961 94.0427 21.0336 94.2095 21.1738 94.3711C21.1844 94.3817 21.1922 94.3923 21.2028 94.4028C21.5477 94.8006 21.9142 95.179 22.3006 95.5364C22.4011 95.6291 22.5068 95.7244 22.6126 95.8145C22.8137 95.9946 23.0199 96.1667 23.2342 96.3309C23.6525 96.6611 24.0887 96.9679 24.5408 97.2499L24.5567 97.2579C24.8502 97.4406 25.1491 97.6101 25.4533 97.7717L25.5776 97.8353C25.8633 97.9836 26.1542 98.1239 26.4531 98.2537C26.5139 98.2802 26.58 98.3067 26.6409 98.3332C26.6462 98.3358 26.6489 98.3358 26.6542 98.3384C27.258 98.5899 27.8784 98.7996 28.5109 98.9661C29.7508 99.297 31.0285 99.4644 32.3116 99.464C32.7798 99.464 33.2426 99.4429 33.7002 99.3978C34.7457 99.3012 35.7779 99.0926 36.779 98.7755C36.7817 98.7755 36.7843 98.7728 36.7868 98.7728C37.4192 98.5711 38.037 98.326 38.6357 98.0392C38.6383 98.0365 38.6437 98.0365 38.6463 98.0339C38.7811 97.9703 38.9108 97.9015 39.0431 97.8352L39.1066 97.8035C39.2124 97.7478 39.3181 97.6922 39.4239 97.6339C39.6884 97.4883 39.9476 97.3347 40.2042 97.1705C40.2756 97.1281 40.3443 97.0831 40.4158 97.0354C40.6485 96.8818 40.8786 96.7176 41.1008 96.5507C41.1405 96.5216 41.1828 96.4925 41.2225 96.4607C43.7004 94.5773 45.5192 91.9567 46.4182 88.9746C47.3171 85.9924 47.2501 82.8019 46.2268 79.8602ZM40.7358 95.8171C40.6485 95.886 40.5586 95.9522 40.4687 96.0131C40.3814 96.0793 40.2941 96.1429 40.2042 96.2011C40.1275 96.2568 40.0508 96.3097 39.9714 96.36C39.9053 96.4051 39.8391 96.4475 39.773 96.4898C39.5536 96.6275 39.3314 96.76 39.1066 96.8871L39.035 96.9268C38.9346 96.9824 38.8341 97.0354 38.7336 97.0884C38.7203 97.0963 38.7044 97.1016 38.6913 97.1096L38.6754 97.1175C38.5484 97.1837 38.4189 97.2473 38.2892 97.3082C37.7891 97.5494 37.274 97.7582 36.7472 97.9332C36.6785 97.9571 36.6097 97.9809 36.541 98.0021C35.5934 98.3038 34.6162 98.5027 33.6262 98.5953C33.1924 98.6351 32.7533 98.6562 32.3116 98.6562C31.0979 98.6587 29.8893 98.5002 28.7172 98.1848C28.1156 98.0276 27.5261 97.8276 26.953 97.5863C26.8922 97.5624 26.8314 97.536 26.7731 97.5121C26.7415 97.4989 26.7123 97.4856 26.6805 97.4697C26.4319 97.3612 26.186 97.242 25.9453 97.1175L25.8289 97.0566C25.5354 96.903 25.247 96.7388 24.9666 96.564C24.8635 96.5004 24.7603 96.4342 24.6599 96.3653C24.3424 96.1561 24.033 95.931 23.7314 95.6953C23.5278 95.5417 23.3321 95.3774 23.1416 95.208C23.0411 95.1232 22.9432 95.0305 22.8481 94.9431C22.473 94.5964 22.1181 94.2285 21.7848 93.8414C21.6737 93.7143 21.5652 93.5871 21.462 93.4547C21.4386 93.4285 21.4165 93.4011 21.3959 93.3726C19.6774 91.2012 18.6437 88.5664 18.4268 85.8044C18.2098 83.0423 18.8193 80.2781 20.1775 77.8643C21.5358 75.4506 23.5813 73.4966 26.0531 72.2515C28.5249 71.0065 31.3111 70.5269 34.0562 70.8739C36.8013 71.2209 39.3811 72.3787 41.4664 74.1998C43.5517 76.0208 45.0481 78.4225 45.7647 81.0985C46.4813 83.7746 46.3857 86.6037 45.49 89.2251C44.5944 91.8465 42.9393 94.1414 40.7358 95.8171Z" fill="#607279"/>
<path d="M32.3947 142.422C35.583 142.422 38.1677 139.834 38.1677 136.641C38.1677 133.449 35.583 130.861 32.3947 130.861C29.2064 130.861 26.6217 133.449 26.6217 136.641C26.6217 139.834 29.2064 142.422 32.3947 142.422Z" fill="#2F2E41"/>
<path d="M27.8887 133.524C28.8215 132.59 29.0106 131.265 28.3109 130.564C27.6113 129.864 26.2878 130.053 25.3549 130.987C24.422 131.921 24.233 133.247 24.9326 133.947C25.6323 134.648 26.9558 134.459 27.8887 133.524Z" fill="#2F2E41"/>
<path d="M38.4117 131.689C38.8004 130.778 38.132 129.618 36.9187 129.099C35.7055 128.58 34.4068 128.898 34.0181 129.809C33.6294 130.721 34.2979 131.88 35.5111 132.399C36.7244 132.918 38.023 132.6 38.4117 131.689Z" fill="#2F2E41"/>
<path d="M39.3001 147.854L38.6199 146.782C38.3313 146.137 37.7989 145.632 37.1394 145.379C36.4799 145.125 35.747 145.144 35.1012 145.431C34.4554 145.717 33.9494 146.249 33.694 146.908C33.4386 147.568 33.4547 148.302 33.7386 148.949L33.932 149.644L34.1521 150.432C35.0432 150.319 35.9225 150.127 36.7794 149.857C36.7819 149.857 36.7843 149.856 36.7861 149.854C37.4195 149.653 38.0379 149.408 38.6367 149.119C38.6399 149.116 38.6432 149.116 38.6466 149.113C38.7799 149.049 38.91 148.983 39.0433 148.916C39.0651 148.906 39.0863 148.895 39.1067 148.882C39.2133 148.829 39.3201 148.772 39.4235 148.716C39.5301 148.659 39.6334 148.599 39.7334 148.535L39.3001 147.854Z" fill="#CACACA"/>
<path d="M32.5778 142.927C35.2837 142.927 37.4773 140.731 37.4773 138.021C37.4773 135.312 35.2837 133.115 32.5778 133.115C29.8719 133.115 27.6783 135.312 27.6783 138.021C27.6783 140.731 29.8719 142.927 32.5778 142.927Z" fill="#FDCBC0"/>
<path d="M39.6535 147.644C39.113 146.744 38.4422 145.929 37.6629 145.227C37.1291 144.749 36.4383 144.485 35.7225 144.486H28.8206C28.4229 144.485 28.0294 144.567 27.6644 144.725C27.2994 144.883 26.9707 145.115 26.6985 145.405C26.4264 145.695 26.2165 146.039 26.082 146.413C25.9475 146.788 25.8912 147.186 25.9165 147.584C25.9316 147.808 25.9719 148.03 26.0367 148.245C26.0859 148.401 26.1472 148.553 26.22 148.699L26.5601 149.38C26.5868 149.39 26.6135 149.403 26.64 149.413C26.6467 149.417 26.6501 149.417 26.6534 149.42C26.7934 149.477 26.9335 149.534 27.0768 149.587C27.546 149.767 28.0246 149.92 28.5106 150.048C29.2929 150.258 30.0914 150.402 30.8978 150.478C31.3679 150.522 31.8381 150.545 32.3115 150.545C32.7817 150.545 33.2418 150.522 33.7019 150.478C33.852 150.465 34.0019 150.448 34.152 150.432C35.0431 150.319 35.9224 150.127 36.7793 149.857C36.7819 149.857 36.7842 149.856 36.786 149.854C37.4194 149.653 38.0378 149.408 38.6366 149.12C38.6398 149.116 38.6431 149.116 38.6465 149.113C38.7798 149.049 38.9099 148.983 39.0433 148.916C39.065 148.906 39.0862 148.895 39.1066 148.883C39.2132 148.829 39.32 148.772 39.4234 148.716C39.53 148.659 39.6333 148.599 39.7334 148.535C39.8402 148.479 39.9401 148.415 40.0435 148.352C39.9169 148.101 39.7868 147.868 39.6535 147.644Z" fill="#CACACA"/>
<path d="M30.071 145.38C29.4323 145.081 28.7013 145.047 28.0378 145.286C27.3743 145.525 26.8323 146.018 26.5302 146.656L25.9166 147.584L25.6232 148.028L25.1765 148.702C25.2698 148.752 25.3598 148.802 25.4533 148.852L25.5765 148.916C25.8634 149.063 26.1533 149.203 26.4535 149.333C26.4867 149.35 26.5235 149.363 26.5602 149.38C26.5869 149.39 26.6136 149.403 26.6401 149.413C26.6468 149.417 26.6502 149.417 26.6534 149.42C26.7935 149.477 26.9336 149.534 27.0769 149.587C27.5461 149.767 28.0247 149.92 28.5107 150.048C29.2929 150.258 30.0915 150.402 30.8978 150.478L31.1313 149.687L31.3581 148.933C31.657 148.29 31.6893 147.556 31.448 146.89C31.2068 146.224 30.7115 145.681 30.071 145.38Z" fill="#CACACA"/>
<path d="M27.4296 134.935C28.5492 135.708 29.8781 136.119 31.2378 136.114C30.7528 136.45 30.2006 136.678 29.6193 136.78C31.4272 137.169 33.2957 137.179 35.1078 136.811C35.5106 136.747 35.8993 136.613 36.2568 136.416C36.4349 136.317 36.5901 136.181 36.7123 136.017C36.8345 135.853 36.9209 135.666 36.966 135.466C37.0864 134.778 36.5504 134.152 35.9933 133.73C35.1404 133.094 34.157 132.656 33.1143 132.447C32.0715 132.239 30.9955 132.265 29.9641 132.524C29.2768 132.662 28.6514 133.016 28.1784 133.534C27.9495 133.798 27.8114 134.128 27.7843 134.476C27.7573 134.825 27.8427 135.172 28.0282 135.468L27.4296 134.935Z" fill="#2F2E41"/>
<path d="M46.2284 130.941C45.524 128.914 44.3866 127.065 42.8953 125.524C41.4041 123.982 39.5951 122.785 37.5943 122.016C35.5935 121.247 33.4492 120.923 31.311 121.069C29.1727 121.215 27.0919 121.826 25.2138 122.86C23.3356 123.894 21.7053 125.325 20.4364 127.055C19.1676 128.784 18.2909 130.77 17.8674 132.874C17.4438 134.978 17.4837 137.149 17.9842 139.235C18.4847 141.322 19.4338 143.274 20.7653 144.956C20.8952 145.123 21.0354 145.29 21.1754 145.45C21.1834 145.462 21.1924 145.473 21.2021 145.484C21.5474 145.881 21.9147 146.259 22.3023 146.615C22.4023 146.709 22.5057 146.806 22.6125 146.896C22.8124 147.076 23.0192 147.246 23.2358 147.41C23.3192 147.477 23.4026 147.544 23.4893 147.607C23.826 147.864 24.1795 148.101 24.5396 148.331C24.5457 148.332 24.5516 148.334 24.5562 148.338C24.6596 148.402 24.7664 148.465 24.873 148.525C24.9729 148.585 25.0763 148.645 25.1765 148.702C25.2697 148.752 25.3598 148.802 25.4532 148.852L25.5765 148.916C25.8633 149.063 26.1533 149.203 26.4535 149.333C26.4867 149.35 26.5235 149.363 26.5601 149.38C26.5868 149.39 26.6135 149.403 26.64 149.413C26.6467 149.416 26.6501 149.416 26.6534 149.42C26.7934 149.477 26.9336 149.533 27.0768 149.587C27.546 149.766 28.0247 149.92 28.5106 150.047C29.2929 150.258 30.0914 150.402 30.8978 150.478C31.368 150.522 31.8381 150.545 32.3116 150.545C32.7817 150.545 33.2418 150.522 33.7019 150.478C33.852 150.465 34.0019 150.448 34.152 150.431C35.0431 150.319 35.9224 150.127 36.7793 149.857C36.7819 149.857 36.7842 149.856 36.786 149.854C37.4194 149.653 38.0378 149.408 38.6366 149.119C38.6398 149.116 38.6431 149.116 38.6465 149.113C38.7798 149.049 38.9099 148.982 39.0433 148.916C39.065 148.906 39.0862 148.895 39.1066 148.882C39.2132 148.829 39.32 148.772 39.4234 148.715C39.53 148.659 39.6334 148.598 39.7334 148.535C39.8402 148.478 39.9401 148.415 40.0435 148.351C40.0969 148.318 40.1503 148.285 40.2036 148.251C40.277 148.208 40.3436 148.164 40.417 148.114C40.5169 148.051 40.6171 147.981 40.7136 147.911C40.8437 147.821 40.9738 147.727 41.1004 147.63C41.1431 147.602 41.1843 147.572 41.2238 147.54C43.6999 145.655 45.5173 143.035 46.4162 140.054C47.315 137.072 47.2493 133.882 46.2284 130.941ZM40.7371 146.896C40.6503 146.966 40.5603 147.033 40.4704 147.093C40.3802 147.16 40.2936 147.223 40.2036 147.283C40.1269 147.337 40.0502 147.39 39.9703 147.44C39.963 147.446 39.9552 147.452 39.9468 147.457C39.8902 147.497 39.8301 147.533 39.7734 147.57C39.7334 147.594 39.6935 147.62 39.6535 147.644C39.5367 147.717 39.42 147.787 39.3 147.854C39.2367 147.894 39.1699 147.931 39.1066 147.968C39.0833 147.981 39.0599 147.994 39.0366 148.008C38.9332 148.064 38.8332 148.114 38.7331 148.168C38.7199 148.178 38.7032 148.181 38.6932 148.191C38.687 148.191 38.6811 148.194 38.6765 148.198C38.5498 148.265 38.4197 148.328 38.2898 148.388C37.7892 148.629 37.2735 148.838 36.746 149.012C36.6794 149.036 36.6094 149.063 36.5426 149.083C35.6923 149.353 34.8181 149.541 33.9319 149.643C33.832 149.657 33.7286 149.667 33.6252 149.677C33.1918 149.717 32.755 149.737 32.3116 149.737C31.9181 149.737 31.5213 149.72 31.1313 149.687C30.3157 149.619 29.5079 149.478 28.7174 149.266C28.1156 149.109 27.5261 148.908 26.9536 148.665C26.9235 148.652 26.8935 148.642 26.8636 148.629C26.8302 148.615 26.8035 148.605 26.7736 148.592C26.7402 148.578 26.7135 148.565 26.6801 148.548C26.4634 148.455 26.2467 148.351 26.0367 148.245C26.0066 148.228 25.9766 148.215 25.9467 148.198L25.83 148.138C25.76 148.101 25.69 148.064 25.6232 148.028C25.3998 147.907 25.1797 147.777 24.9665 147.644C24.8864 147.594 24.7998 147.54 24.7197 147.487L24.6596 147.447C24.4729 147.32 24.2863 147.193 24.1028 147.056C23.9794 146.963 23.8527 146.872 23.7328 146.776C23.5294 146.622 23.3326 146.458 23.1426 146.288C23.0425 146.205 22.9425 146.111 22.8492 146.024C22.4738 145.678 22.1186 145.31 21.7856 144.923C21.6756 144.796 21.5655 144.669 21.4622 144.535C21.4389 144.509 21.4189 144.482 21.3954 144.452C19.6765 142.28 18.6425 139.645 18.4253 136.883C18.2081 134.121 18.8175 131.356 20.1758 128.942C21.5341 126.528 23.5797 124.573 26.0518 123.328C28.5239 122.083 31.3104 121.603 34.0559 121.95C36.8015 122.297 39.3816 123.454 41.4672 125.276C43.5529 127.097 45.0496 129.499 45.7664 132.175C46.4832 134.852 46.3876 137.681 45.4919 140.303C44.5962 142.925 42.9408 145.22 40.7371 146.896Z" fill="#607279"/>
<path d="M56.9625 58.8561C51.8319 54.5211 45.5536 51.7727 38.8915 50.9455C32.2294 50.1182 25.4708 51.2478 19.4381 54.1966C13.4054 57.1455 8.35881 61.7865 4.91229 67.555C1.46577 73.3235 -0.23203 79.9707 0.0254977 86.6878C0.283025 93.4048 2.48477 99.9022 6.36281 105.389C10.2409 110.876 15.628 115.116 21.8687 117.593C28.1094 120.07 34.9346 120.677 41.5137 119.341C48.0928 118.005 54.1423 114.783 58.9259 110.067L101.404 145.956C102.05 146.501 102.886 146.766 103.728 146.694C104.569 146.622 105.348 146.219 105.894 145.573C106.439 144.927 106.706 144.091 106.637 143.248C106.568 142.405 106.168 141.624 105.524 141.076L105.519 141.072L63.0417 105.182C67.9763 98.0907 70.0883 89.4096 68.9637 80.8401C67.8392 72.2706 63.5592 64.4304 56.9625 58.8561ZM54.2241 101.726C50.9149 105.653 46.5171 108.51 41.5868 109.934C36.6564 111.358 31.415 111.286 26.5254 109.728C21.6357 108.169 17.3175 105.194 14.1166 101.178C10.9157 97.1618 8.97608 92.2855 8.54291 87.1657C8.10973 82.0458 9.20249 76.9123 11.683 72.4143C14.1635 67.9163 17.9203 64.2558 22.4784 61.8958C27.0366 59.5358 32.1912 58.5822 37.2906 59.1556C42.3899 59.729 47.2049 61.8037 51.1267 65.1173C56.3857 69.5607 59.6665 75.9139 60.2474 82.7795C60.8283 89.645 58.6616 96.4604 54.2241 101.726Z" fill="#377C42"/>
<path d="M142.597 147.298C142.929 146.892 143.168 146.419 143.297 145.911C143.427 145.403 143.443 144.872 143.346 144.357C143.248 143.842 143.039 143.355 142.733 142.929C142.427 142.504 142.031 142.151 141.574 141.895L133.832 110.162L128.183 111.967L136.544 143.484C136.166 144.281 136.093 145.19 136.339 146.037C136.585 146.885 137.133 147.613 137.879 148.083C138.625 148.553 139.517 148.733 140.387 148.588C141.257 148.444 142.043 147.985 142.597 147.298Z" fill="#FDCBC0"/>
<path d="M138.596 127L134.468 130.566L128.693 135.551L126.142 122.483L125.876 121.125L125.666 120.046L131.517 109.84L136.395 110.12L136.728 110.14L136.735 110.214L136.812 110.898L137.812 119.906L137.835 120.123L138.596 127Z" fill="#3B6042"/>
<path d="M111.616 215.699L107.528 215.698L105.583 199.911L111.617 199.911L111.616 215.699Z" fill="#FDCBC0"/>
<path d="M112.658 219.666L99.4778 219.666V219.499C99.4779 218.136 100.018 216.83 100.98 215.866C101.943 214.903 103.247 214.362 104.608 214.362H104.608L112.658 214.362L112.658 219.666Z" fill="#1D2B33"/>
<path d="M154.293 216.033L150.206 216.032L148.261 200.245L154.294 200.245L154.293 216.033Z" fill="#FDCBC0"/>
<path d="M155.336 220L142.156 220V219.833C142.156 218.47 142.696 217.164 143.658 216.2C144.62 215.237 145.925 214.696 147.286 214.696H147.286L155.336 214.696L155.336 220Z" fill="#1D2B33"/>
<path d="M157.56 209.748L146.558 211.417L130.55 157.171L113.549 211.751L101.213 210.082L117.217 146.648V141.64L119.384 134.128L119.157 132.095L117.58 117.876L116.897 111.71L116.852 111.311C116.815 110.977 116.904 110.641 117.1 110.368C117.297 110.096 117.588 109.906 117.917 109.837L123.052 108.755H131.444L136.395 110.12L136.735 110.214L136.888 110.257L136.812 110.898L135.651 120.64L135.588 121.174L134.468 130.566L134.221 132.626C143.89 139.637 144.224 146.648 144.224 146.648L157.56 209.748Z" fill="#263238"/>
<path d="M126.233 104.531C130.756 104.531 134.422 100.86 134.422 96.3311C134.422 91.8024 130.756 88.1311 126.233 88.1311C121.711 88.1311 118.044 91.8024 118.044 96.3311C118.044 100.86 121.711 104.531 126.233 104.531Z" fill="#FDCBC0"/>
<path d="M119.632 112.494H136.905L134.764 132.623L119.632 133.052V112.494Z" fill="#3B6042"/>
<path d="M134.835 130.742L118.635 132.863L118.938 135.18L135.137 133.059L134.835 130.742Z" fill="#3B6042"/>
<path d="M96.9055 133.562C97.0604 133.662 97.2072 133.774 97.3445 133.898L113.367 129.808L114.46 125.937L120.51 126.826L119.24 133.866C119.137 134.435 118.853 134.955 118.43 135.348C118.007 135.742 117.468 135.987 116.894 136.047L98.1856 138.02C97.8807 138.663 97.3875 139.198 96.7717 139.553C96.1559 139.908 95.4467 140.068 94.7383 140.01C94.03 139.951 93.3561 139.679 92.8062 139.228C92.2564 138.777 91.8568 138.169 91.6604 137.485C91.464 136.801 91.4803 136.073 91.707 135.399C91.9337 134.724 92.3601 134.135 92.9295 133.709C93.4989 133.283 94.1843 133.041 94.8946 133.015C95.6048 132.988 96.3062 133.179 96.9055 133.562Z" fill="#FDCBC0"/>
<path d="M121.551 111.927L118.717 109.756C117.951 109.465 116.901 110.292 116.717 111.092L112.716 127.451L121.051 133.461L122.218 131.624L121.551 111.927Z" fill="#3B6042"/>
<path d="M119.958 89.5425C118.427 89.3545 116.746 89.4874 115.553 90.4664C114.359 91.4454 113.974 93.4804 115.104 94.5322C116.104 95.4634 117.669 95.2444 119.009 95.5092C120.164 95.7683 121.198 96.4078 121.946 97.3252C122.695 98.2426 123.115 99.3849 123.138 100.569C123.118 103.966 119.862 106.538 119.278 109.884C118.879 112.168 119.84 114.571 121.503 116.184C123.166 117.797 125.452 118.669 127.755 118.905C130.058 119.141 132.387 118.781 134.625 118.188C136.873 117.593 139.086 116.749 140.972 115.388C142.858 114.026 144.404 112.107 145.009 109.86C145.615 107.612 145.18 105.035 143.62 103.309C141.833 101.333 138.86 100.654 137.315 98.4833C135.582 96.0502 136.223 92.5852 134.821 89.9473C133.885 88.1862 132.112 86.9849 130.223 86.3521C128.333 85.7193 126.315 85.5944 124.324 85.5331C123.277 85.5009 122.198 85.4902 121.223 85.8723C120.248 86.2545 119.39 87.1254 119.34 88.1728C119.289 89.2203 119.958 89.5425 119.958 89.5425Z" fill="#263238"/>
</svg>
