<svg xmlns="http://www.w3.org/2000/svg" width="176" height="44" fill="none"><path fill="#7D807D" d="M23.552 20.72H13.206v10.435c0 3.566 1.886 4.862 4.274 4.862 1.828 0 3.803-.913 5.364-1.857l2.83 6.014c-2.505 1.71-5.395 3.005-9.462 3.005-7.073 0-10.7-4.007-10.7-11.405V20.72H0v-6.837h5.512V5.394h7.692v8.49H23.55v6.836h.002ZM50.014 13.734l-1.149 7.634c-1.266-.56-3.094-.913-4.657-.913-3.566 0-6.013 2.182-6.013 6.425v15.562h-7.692V13.883h7.456v3.124c1.799-2.683 4.54-3.89 8.046-3.89 1.65 0 2.948.236 4.008.62l.001-.003ZM81.872 30.27c0 9.018-6.368 12.91-13.499 12.91-7.13 0-13.527-3.89-13.527-12.91V13.88h7.692v15.71c0 4.568 2.505 6.424 5.835 6.424s5.836-1.856 5.836-6.425V13.881h7.663V30.27ZM113.346 18.51l-5.542 4.628c-1.738-1.857-3.595-2.859-6.102-2.859-3.978 0-7.162 3.124-7.162 7.87s3.153 7.87 7.133 7.87c2.476 0 4.598-1.12 6.219-2.888l5.481 4.687c-2.683 3.448-6.69 5.365-11.466 5.365-9.107 0-15.207-6.367-15.207-15.032s6.1-15.032 15.207-15.032c4.776 0 8.812 1.946 11.437 5.394l.002-.004ZM125.898 24.05h2.712l8.046-10.167h9.431l-11.259 13.44 11.348 15.12h-9.46l-8.224-11.555h-2.594v11.554h-7.692V0h7.692v24.05ZM175.675 19.511l-14.088 16.063H176v6.868h-24.993v-5.54L165.42 20.72h-13.912v-6.837h24.169v5.63l-.002-.002Z"/></svg>
