<svg width="176" height="44" viewBox="0 0 176 44" fill="none" xmlns="http://www.w3.org/2000/svg">
<path d="M23.5516 20.7202H13.206V31.1547C13.206 34.7212 15.0918 36.0171 17.4804 36.0171C19.3081 36.0171 21.2828 35.1042 22.8438 34.1603L25.6734 40.1735C23.1686 41.8832 20.2791 43.1791 16.2117 43.1791C9.13859 43.1791 5.51219 39.1716 5.51219 31.7736V20.7202H0V13.883H5.51219V5.3942H13.2042V13.883H23.5498V20.7202H23.5516Z" fill="white"/>
<path d="M50.0144 13.7342L48.8655 21.3681C47.5987 20.8073 45.7709 20.4552 44.2082 20.4552C40.6417 20.4552 38.1951 22.6368 38.1951 26.8803V42.4422H30.5031V13.883H37.9591V17.0066C39.7578 14.324 42.4985 13.1171 46.0051 13.1171C47.6549 13.1171 48.9527 13.353 50.0126 13.736L50.0144 13.7342Z" fill="white"/>
<path d="M81.8716 30.269C81.8716 39.2878 75.5045 43.1792 68.3734 43.1792C61.2422 43.1792 54.8461 39.2897 54.8461 30.269V13.8813H62.5381V29.5902C62.5381 34.1586 65.0428 36.0154 68.3734 36.0154C71.7039 36.0154 74.2086 34.1586 74.2086 29.5902V13.8813H81.8716V30.269Z" fill="white"/>
<path d="M113.346 18.5096L107.804 23.1378C106.066 21.2811 104.209 20.2792 101.702 20.2792C97.7238 20.2792 94.5403 23.4028 94.5403 28.1491C94.5403 32.8953 97.693 36.019 101.673 36.019C104.149 36.019 106.271 34.8991 107.892 33.1313L113.373 37.8177C110.69 41.2662 106.683 43.1828 101.907 43.1828C92.7997 43.1828 86.6995 36.8158 86.6995 28.1509C86.6995 19.486 92.7997 13.119 101.907 13.119C106.683 13.119 110.719 15.0647 113.344 18.5132L113.346 18.5096Z" fill="white"/>
<path d="M125.898 24.0507H128.61L136.656 13.883H146.087L134.828 27.3232L146.176 42.4423H136.716L128.492 30.8879H125.898V42.4423H118.206V0H125.898V24.0507Z" fill="white"/>
<path d="M175.675 19.5114L161.587 35.5742H176V42.4423H151.007V36.901L165.42 20.7202H151.508V13.883H175.677V19.5132L175.675 19.5114Z" fill="#267233"/>
</svg>
