<svg width="166" height="184" viewBox="0 0 166 184" fill="none" xmlns="http://www.w3.org/2000/svg">
<path d="M7.44678 152.766V161.677C7.44678 162.506 8.0701 163.2 8.8891 163.284L99.5119 171.929L111.71 180.055L128.553 157.499L7.44678 152.766V152.766Z" fill="#263238"/>
<path d="M76.9092 165.013V172.988C76.9092 173.656 77.3915 174.226 78.0471 174.332L99.8032 177.851L99.1707 164.994L78.3482 163.654C77.5687 163.604 76.9092 164.227 76.9092 165.013Z" fill="#37474F"/>
<path d="M16.6272 156.877C16.5534 156.877 16.4802 156.883 16.4077 156.891L15.2573 156.877L15.2639 157.387C14.149 158.264 13.3755 160.182 13.3755 162.41C13.3755 164.637 14.2116 166.707 15.397 167.532L15.4023 167.943H16.6265C18.422 167.943 19.8775 165.466 19.8775 162.41C19.8775 159.354 18.422 156.877 16.6265 156.877H16.6272Z" fill="black"/>
<path d="M15.2581 167.943C17.0536 167.943 18.5091 165.466 18.5091 162.41C18.5091 159.354 17.0536 156.877 15.2581 156.877C13.4626 156.877 12.0071 159.354 12.0071 162.41C12.0071 165.466 13.4626 167.943 15.2581 167.943Z" fill="#1E1F1E"/>
<path d="M14.8008 165.518C15.8096 165.518 16.6273 164.127 16.6273 162.41C16.6273 160.693 15.8096 159.302 14.8008 159.302C13.7921 159.302 12.9744 160.693 12.9744 162.41C12.9744 164.127 13.7921 165.518 14.8008 165.518Z" fill="#858B85"/>
<path d="M15.0775 165.295C15.9337 165.295 16.6279 164.003 16.6279 162.41C16.6279 160.816 15.9337 159.524 15.0775 159.524C14.2212 159.524 13.5271 160.816 13.5271 162.41C13.5271 164.003 14.2212 165.295 15.0775 165.295Z" fill="#CDD1CD"/>
<path d="M24.3105 157.499C24.2295 157.499 24.1498 157.505 24.0707 157.514L22.8102 157.499L22.8175 158.058C21.5965 159.019 20.7485 161.121 20.7485 163.561C20.7485 166.002 21.6644 168.269 22.9637 169.173L22.9697 169.623H24.3105C26.278 169.623 27.8725 166.909 27.8725 163.561C27.8725 160.212 26.2773 157.499 24.3105 157.499V157.499Z" fill="black"/>
<path d="M22.8098 169.623C24.777 169.623 26.3718 166.909 26.3718 163.561C26.3718 160.213 24.777 157.499 22.8098 157.499C20.8426 157.499 19.2478 160.213 19.2478 163.561C19.2478 166.909 20.8426 169.623 22.8098 169.623Z" fill="#1E1F1E"/>
<path d="M22.3089 166.967C23.4141 166.967 24.31 165.442 24.31 163.561C24.31 161.68 23.4141 160.156 22.3089 160.156C21.2038 160.156 20.3079 161.68 20.3079 163.561C20.3079 165.442 21.2038 166.967 22.3089 166.967Z" fill="#858B85"/>
<path d="M24.3106 163.561C24.3106 165.307 23.5502 166.723 22.612 166.723C21.6737 166.723 20.9133 165.308 20.9133 163.561C20.9133 161.815 21.6737 160.399 22.612 160.399C23.5502 160.399 24.3106 161.815 24.3106 163.561Z" fill="#CDD1CD"/>
<path d="M32.512 157.499C32.4237 157.499 32.3368 157.506 32.2498 157.516L30.8734 157.499L30.8813 158.109C29.5476 159.158 28.6226 161.453 28.6226 164.118C28.6226 166.782 29.6228 169.258 31.0414 170.246L31.048 170.737H32.512C34.66 170.737 36.4015 167.773 36.4015 164.118C36.4015 160.462 34.66 157.499 32.512 157.499Z" fill="black"/>
<path d="M30.8734 170.737C33.0215 170.737 34.7628 167.774 34.7628 164.119C34.7628 160.463 33.0215 157.5 30.8734 157.5C28.7253 157.5 26.9839 160.463 26.9839 164.119C26.9839 167.774 28.7253 170.737 30.8734 170.737Z" fill="#1E1F1E"/>
<path d="M30.3263 167.837C31.5329 167.837 32.5112 166.172 32.5112 164.119C32.5112 162.065 31.5329 160.4 30.3263 160.4C29.1196 160.4 28.1414 162.065 28.1414 164.119C28.1414 166.172 29.1196 167.837 30.3263 167.837Z" fill="#858B85"/>
<path d="M30.6574 167.57C31.6814 167.57 32.5115 166.025 32.5115 164.119C32.5115 162.212 31.6814 160.667 30.6574 160.667C29.6333 160.667 28.8032 162.212 28.8032 164.119C28.8032 166.025 29.6333 167.57 30.6574 167.57Z" fill="#CDD1CD"/>
<path d="M70.3253 160.952C70.2126 160.952 70.1013 160.96 69.9906 160.973L68.2333 160.952L68.2439 161.731C66.5413 163.07 65.3599 166 65.3599 169.402C65.3599 172.803 66.6361 175.964 68.4475 177.224L68.4554 177.851H70.3247C73.067 177.851 75.2901 174.068 75.2901 169.402C75.2901 164.735 73.067 160.952 70.3247 160.952L70.3253 160.952Z" fill="black"/>
<path d="M68.234 177.851C70.9763 177.851 73.1995 174.068 73.1995 169.401C73.1995 164.735 70.9763 160.952 68.234 160.952C65.4917 160.952 63.2686 164.735 63.2686 169.401C63.2686 174.068 65.4917 177.851 68.234 177.851Z" fill="#1E1F1E"/>
<path d="M67.5361 174.148C69.0769 174.148 70.3259 172.023 70.3259 169.401C70.3259 166.78 69.0769 164.655 67.5361 164.655C65.9954 164.655 64.7463 166.78 64.7463 169.401C64.7463 172.023 65.9954 174.148 67.5361 174.148Z" fill="#858B85"/>
<path d="M67.958 173.808C69.2655 173.808 70.3254 171.835 70.3254 169.401C70.3254 166.967 69.2655 164.994 67.958 164.994C66.6505 164.994 65.5906 166.967 65.5906 169.401C65.5906 171.835 66.6505 173.808 67.958 173.808Z" fill="#CDD1CD"/>
<path d="M103.367 162.288C103.223 162.288 103.081 162.299 102.94 162.315L100.695 162.288L100.708 163.282C98.5328 164.994 97.0239 168.737 97.0239 173.082C97.0239 177.428 98.6547 181.465 100.969 183.076L100.979 183.877H103.367C106.87 183.877 109.71 179.044 109.71 173.083C109.71 167.121 106.87 162.288 103.367 162.288Z" fill="black"/>
<path d="M100.695 183.877C104.198 183.877 107.038 179.044 107.038 173.082C107.038 167.12 104.198 162.287 100.695 162.287C97.1913 162.287 94.3513 167.12 94.3513 173.082C94.3513 179.044 97.1913 183.877 100.695 183.877Z" fill="#1E1F1E"/>
<path d="M99.803 179.147C101.771 179.147 103.367 176.432 103.367 173.082C103.367 169.733 101.771 167.017 99.803 167.017C97.8347 167.017 96.239 169.733 96.239 173.082C96.239 176.432 97.8347 179.147 99.803 179.147Z" fill="#858B85"/>
<path d="M100.343 178.712C102.013 178.712 103.367 176.192 103.367 173.082C103.367 169.973 102.013 167.452 100.343 167.452C98.6724 167.452 97.3184 169.973 97.3184 173.082C97.3184 176.192 98.6724 178.712 100.343 178.712Z" fill="#CDD1CD"/>
<path d="M2.05642 105.336C0.869744 105.535 0 106.567 0 107.779V152.946C0 154.26 1.01931 155.345 2.32327 155.419L86.6542 160.156V91.1757L2.05708 105.336H2.05642Z" fill="#478552"/>
<path d="M134.209 92.7862L86.6536 91.1757V160.156H136.767V95.4488C136.767 94.0127 135.635 92.8346 134.209 92.7862Z" fill="#22672E"/>
<path d="M162.101 138.332L158.587 129.433L158.483 122.076L162.033 121.361C162.378 121.292 162.595 120.949 162.51 120.606C161.973 118.436 160.009 111.27 156.951 108.903C154.797 107.235 113.937 106.735 113.937 106.735L94.2718 108.022C92.7273 108.123 91.5261 109.414 91.5261 110.972V154.842C91.5261 155.993 92.4005 156.953 93.5397 157.052L107.039 158.231L109.711 160.951C109.711 160.951 147.973 164.036 163.241 161.232C164.032 161.087 164.608 160.399 164.608 159.589V140.293C164.608 137.49 162.102 138.331 162.102 138.331L162.101 138.332Z" fill="#455A64"/>
<g style="mix-blend-mode:multiply" opacity="0.8">
<path d="M120.619 140.995C120.619 140.995 120.201 121.936 120.619 114.088C120.821 110.281 118.928 108.061 116.923 106.78C115.055 106.749 113.936 106.736 113.936 106.736L94.271 108.023C92.7266 108.124 91.5254 109.414 91.5254 110.973V154.843C91.5254 155.994 92.3998 156.954 93.539 157.053L107.038 158.232L109.71 160.952C109.71 160.952 116.01 161.46 124.516 161.876V145.619L120.619 140.995Z" fill="#455A64"/>
</g>
<path d="M164.172 164.652L162.659 164.119V161.031C162.659 160.198 161.989 159.524 161.162 159.524H113.78C112.637 159.524 111.71 160.456 111.71 161.607V180.055C111.71 181.07 112.548 181.882 113.555 181.843L164.29 179.878C165.244 179.841 165.999 179.052 165.999 178.091V167.245C165.999 166.077 165.266 165.037 164.171 164.651L164.172 164.652Z" fill="#455A64"/>
<path d="M158.398 148.8H130.304C129.357 148.8 128.61 149.608 128.676 150.558L130.224 172.763C130.302 173.879 131.243 174.732 132.353 174.694L156.49 173.871C157.544 173.835 158.402 173.004 158.478 171.945L160.026 150.562C160.094 149.61 159.347 148.8 158.398 148.8V148.8Z" fill="#263238"/>
<g style="mix-blend-mode:multiply" opacity="0.3">
<path d="M164.172 164.652L162.659 164.118V161.031C162.659 160.373 162.24 159.815 161.656 159.61L158.773 173.258C158.429 174.884 157.034 176.067 155.384 176.132L133.241 176.998C131.654 177.061 130.213 176.07 129.693 174.559L124.518 159.524H113.781C112.638 159.524 111.711 160.457 111.711 161.608V180.056C111.711 181.071 112.55 181.883 113.556 181.844L164.291 179.879C165.246 179.842 166 179.053 166 178.091V167.245C166 166.078 165.267 165.038 164.172 164.652H164.172Z" fill="black"/>
</g>
<path d="M126.883 175.749L121.615 176.014C118.344 176.178 115.533 173.701 115.263 170.415L115.052 167.836H125.599C126.309 167.836 126.884 168.416 126.884 169.13V175.749H126.883Z" fill="#CDD1CD"/>
<path d="M160.871 168.928L160.03 174.696C160.03 174.696 165.584 174.5 165.445 167.452L161.999 167.833C161.419 167.897 160.956 168.347 160.871 168.928L160.871 168.928Z" fill="#CDD1CD"/>
<path d="M121.825 141.087C121.003 141.087 120.189 140.82 119.526 140.331L117.358 138.733C116.561 138.145 116.085 137.201 116.085 136.207V123.502C116.085 122.93 116.334 122.39 116.769 122.021C117.204 121.653 117.774 121.497 118.335 121.594L120.46 121.963L158.574 121.961L158.595 122.051L162.219 138.331L161.813 140.373L161.721 140.375L121.893 141.088C121.87 141.088 121.848 141.088 121.826 141.088L121.825 141.087ZM118.007 121.795C117.611 121.795 117.225 121.935 116.917 122.197C116.534 122.522 116.314 122.997 116.314 123.501V136.206C116.314 137.127 116.755 138.002 117.493 138.547L119.661 140.145C120.303 140.618 121.093 140.87 121.889 140.856L161.625 140.145L161.985 138.333L158.391 122.191H120.441L118.296 121.82C118.2 121.804 118.103 121.795 118.007 121.795Z" fill="#808080"/>
<path d="M158.482 122.076H120.44L118.315 121.707C117.209 121.515 116.198 122.372 116.198 123.501V136.206C116.198 137.168 116.654 138.072 117.425 138.64L119.592 140.238C120.258 140.729 121.064 140.986 121.889 140.971L161.718 140.258L162.101 138.331L158.481 122.075L158.482 122.076Z" fill="#76878F"/>
<path d="M134.835 117.661H131.599C131.109 117.661 130.711 118.061 130.711 118.555V119.921C130.711 120.414 131.109 120.814 131.599 120.814H134.835C135.326 120.814 135.723 120.414 135.723 119.921V118.555C135.723 118.061 135.326 117.661 134.835 117.661Z" fill="#97A6B7"/>
<path d="M153.837 117.661H150.6C150.11 117.661 149.713 118.061 149.713 118.555V119.921C149.713 120.414 150.11 120.814 150.6 120.814H153.837C154.327 120.814 154.724 120.414 154.724 119.921V118.555C154.724 118.061 154.327 117.661 153.837 117.661Z" fill="#97A6B7"/>
<path d="M36.4021 85.6985C36.0871 85.6985 35.7761 85.5539 35.5745 85.2793C35.2358 84.8196 35.332 84.1709 35.7887 83.83C35.7906 83.8286 36.1847 83.5341 36.8791 83.0068C37.3331 82.6618 37.9782 82.7527 38.3208 83.2098C38.6634 83.6668 38.5725 84.3162 38.1192 84.6611C37.4142 85.1964 37.0149 85.4949 37.0149 85.4949C36.8304 85.6322 36.6156 85.6985 36.4028 85.6985H36.4021Z" fill="#13391A"/>
<path d="M132.367 90.0977C132.185 90.0977 131.991 90.0897 131.792 90.0751C131.226 90.0326 130.8 89.5358 130.843 88.9647C130.885 88.3936 131.377 87.9644 131.946 88.0082C132.369 88.04 132.729 88.0268 132.996 87.9677C133.408 87.8769 133.818 87.7641 134.214 87.6314C134.753 87.4517 135.336 87.7455 135.515 88.2888C135.694 88.832 135.401 89.4184 134.862 89.5982C134.398 89.7527 133.918 89.8854 133.436 89.9915C133.119 90.0618 132.758 90.097 132.366 90.097L132.367 90.0977ZM129.194 89.5623C129.104 89.5623 129.013 89.5504 128.922 89.5252C128.118 89.3037 127.218 89.0131 126.247 88.6609C125.712 88.4672 125.434 87.8735 125.627 87.3356C125.819 86.797 126.409 86.5177 126.943 86.7114C127.865 87.045 128.713 87.319 129.465 87.5266C130.013 87.6779 130.336 88.2476 130.186 88.7995C130.061 89.2599 129.646 89.5623 129.194 89.5623H129.194ZM137.016 88.5236C136.662 88.5236 136.318 88.3399 136.126 88.0095C135.839 87.5153 136.005 86.8805 136.496 86.592C137.207 86.1748 137.894 85.6733 138.54 85.1028C138.967 84.7254 139.618 84.7679 139.992 85.1977C140.368 85.6275 140.325 86.2822 139.898 86.6603C139.154 87.3183 138.358 87.8981 137.534 88.3823C137.371 88.4785 137.192 88.5236 137.016 88.5236ZM124.048 87.7309C123.917 87.7309 123.785 87.7057 123.657 87.6533C122.858 87.323 122.005 86.9542 121.12 86.5575C120.6 86.3247 120.367 85.7118 120.598 85.1891C120.83 84.6664 121.439 84.4316 121.958 84.6644C122.824 85.0531 123.659 85.4139 124.439 85.7363C124.964 85.9539 125.215 86.5588 125 87.0882C124.837 87.4888 124.452 87.7309 124.047 87.7309H124.048ZM119.058 85.4995C118.911 85.4995 118.761 85.4677 118.619 85.4C117.824 85.0219 116.992 84.6173 116.146 84.1974C115.636 83.9447 115.426 83.3231 115.677 82.8097C115.928 82.2963 116.546 82.0854 117.056 82.3381C117.892 82.7527 118.713 83.152 119.499 83.5255C120.013 83.7696 120.233 84.3871 119.99 84.9052C119.814 85.2793 119.444 85.4988 119.058 85.4988V85.4995ZM141.103 84.9403C140.875 84.9403 140.645 84.864 140.454 84.7075C140.014 84.346 139.947 83.6933 140.306 83.2495C140.835 82.5968 141.331 81.8811 141.783 81.1236C142.075 80.6327 142.707 80.4742 143.195 80.768C143.682 81.0625 143.84 81.6987 143.548 82.1895C143.046 83.0313 142.492 83.8279 141.903 84.5576C141.699 84.809 141.402 84.9397 141.104 84.9397L141.103 84.9403ZM39.6674 83.2097C39.3584 83.2097 39.0527 83.0704 38.8504 82.8044C38.5045 82.3507 38.5895 81.7 39.0401 81.3518C39.6865 80.8523 40.41 80.2898 41.1921 79.6762C41.6402 79.3246 42.2872 79.4049 42.6371 79.8566C42.9863 80.3083 42.9066 80.9591 42.4578 81.3113C41.6711 81.9288 40.9437 82.4947 40.2934 82.9968C40.1062 83.1414 39.8862 83.211 39.6674 83.211V83.2097ZM114.159 83.0724C114.002 83.0724 113.842 83.0359 113.692 82.959C112.9 82.5524 112.081 82.1258 111.257 81.6907C110.754 81.4247 110.56 80.7985 110.824 80.2918C111.088 79.785 111.709 79.5893 112.213 79.8553C113.03 80.2865 113.843 80.7097 114.628 81.113C115.134 81.373 115.335 81.9972 115.077 82.5066C114.895 82.8654 114.534 83.0724 114.159 83.0724ZM109.323 80.5213C109.159 80.5213 108.993 80.4815 108.837 80.3979C108.033 79.9628 107.229 79.5236 106.43 79.0825C105.931 78.8072 105.748 78.1778 106.022 77.6756C106.295 77.1735 106.92 76.9904 107.419 77.265C108.214 77.7035 109.012 78.1399 109.811 78.5718C110.312 78.8424 110.5 79.4706 110.231 79.9747C110.045 80.3229 109.69 80.5206 109.323 80.5206L109.323 80.5213ZM43.9707 79.8327C43.6669 79.8327 43.3658 79.6981 43.1629 79.4394C42.8104 78.9903 42.8855 78.3389 43.3309 77.9841C44.0155 77.4388 44.7271 76.8677 45.4565 76.2767C45.8993 75.9178 46.547 75.9888 46.9034 76.4345C47.2599 76.8803 47.1894 77.533 46.7466 77.8912C46.0126 78.4855 45.297 79.06 44.6085 79.6085C44.4194 79.7591 44.194 79.8321 43.97 79.8321L43.9707 79.8327ZM104.535 77.8793C104.365 77.8793 104.193 77.8368 104.034 77.7479C103.23 77.2955 102.433 76.8445 101.649 76.3954C101.154 76.1128 100.981 75.48 101.262 74.9825C101.542 74.485 102.17 74.3106 102.665 74.5932C103.445 75.0396 104.237 75.4886 105.037 75.9384C105.533 76.2176 105.711 76.8485 105.435 77.3479C105.246 77.6876 104.896 77.8793 104.535 77.8793H104.535ZM48.2199 76.3894C47.9221 76.3894 47.6269 76.2601 47.4233 76.01C47.0629 75.5669 47.1274 74.9142 47.5669 74.552C48.2581 73.9816 48.9579 73.3992 49.6589 72.8095C50.0951 72.442 50.7441 72.5004 51.1085 72.9395C51.4735 73.3786 51.4156 74.032 50.9794 74.3988C50.273 74.9938 49.568 75.5802 48.8716 76.1553C48.6798 76.3132 48.4492 76.3901 48.2199 76.3901V76.3894ZM99.7865 75.1649C99.6119 75.1649 99.4353 75.1205 99.2733 75.0263C98.4654 74.5573 97.6748 74.0943 96.9065 73.6413C96.4163 73.3521 96.2515 72.7173 96.5388 72.2238C96.8268 71.7296 97.4573 71.5644 97.9469 71.8536C98.7112 72.3047 99.4973 72.765 100.301 73.2314C100.794 73.5173 100.963 74.1507 100.679 74.6469C100.488 74.9792 100.142 75.1656 99.7859 75.1656L99.7865 75.1649ZM52.4019 72.8659C52.112 72.8659 51.8234 72.7432 51.6198 72.5037C51.2502 72.0692 51.3003 71.4152 51.7318 71.0424C52.4362 70.4348 53.1254 69.8325 53.7797 69.2514C54.206 68.8727 54.8563 68.9138 55.2326 69.3436C55.6088 69.7728 55.5679 70.4275 55.141 70.8062C54.4794 71.3933 53.783 72.0022 53.0714 72.6165C52.877 72.7836 52.6391 72.8659 52.4019 72.8659ZM95.0741 72.3863C94.8949 72.3863 94.7137 72.3392 94.549 72.2404C93.7293 71.7495 92.9439 71.2752 92.2006 70.8222C91.7144 70.5263 91.5582 69.8889 91.8521 69.3993C92.1466 68.9092 92.7798 68.7526 93.2654 69.0491C94.0047 69.4995 94.7862 69.9711 95.6012 70.4593C96.0895 70.7519 96.2502 71.388 95.9597 71.8795C95.7673 72.2052 95.4253 72.3863 95.0741 72.3863ZM90.3999 69.54C90.2154 69.54 90.0289 69.4902 89.8609 69.3861C89.0162 68.8621 88.2328 68.3699 87.5324 67.9235C87.052 67.617 86.9097 66.9769 87.2135 66.4933C87.5179 66.0098 88.1537 65.8658 88.634 66.1723C89.3272 66.6147 90.1034 67.1023 90.9408 67.6216C91.4251 67.9221 91.5754 68.5602 91.2775 69.0471C91.0832 69.3649 90.7458 69.54 90.4005 69.54H90.3999ZM56.4897 69.2315C56.211 69.2315 55.933 69.1181 55.73 68.8946C55.3465 68.472 55.3755 67.8167 55.7946 67.4306C56.4917 66.7892 57.1559 66.1637 57.768 65.572C58.1778 65.1753 58.8295 65.1892 59.2235 65.6018C59.6169 66.0144 59.6037 66.6704 59.1938 67.0671C58.5699 67.6701 57.8932 68.3069 57.1842 68.9602C56.9865 69.142 56.7381 69.2315 56.4897 69.2315ZM85.7929 66.5829C85.5952 66.5829 85.3956 66.5258 85.219 66.4064C84.651 66.021 84.0679 65.6184 83.4729 65.2078L82.9603 64.8543C82.4911 64.5306 82.3719 63.8858 82.6928 63.4135C83.0143 62.9412 83.6548 62.8212 84.1239 63.1442L84.6372 63.4984C85.2269 63.9057 85.8047 64.305 86.3681 64.6871C86.8399 65.0068 86.9644 65.6509 86.6468 66.1252C86.4478 66.4224 86.123 66.5829 85.7922 66.5829H85.7929ZM60.4181 65.4234C60.1591 65.4234 59.9002 65.3259 59.7005 65.1295C59.2933 64.7302 59.2841 64.0742 59.6808 63.6643C60.3575 62.9645 60.9676 62.3005 61.4947 61.6909C61.8676 61.2591 62.518 61.214 62.9469 61.5901C63.3759 61.9655 63.4207 62.6202 63.0471 63.052C62.4949 63.6901 61.8591 64.3826 61.156 65.1096C60.9544 65.3186 60.6862 65.4234 60.4181 65.4234ZM81.2814 63.4998C81.087 63.4998 80.8907 63.4447 80.7161 63.3286C79.8845 62.7767 79.1426 62.3051 78.4481 61.8859C77.9606 61.5914 77.8024 60.9553 78.0943 60.4644C78.3869 59.9735 79.0181 59.8137 79.5063 60.1082C80.2258 60.5427 80.9921 61.0295 81.8487 61.598C82.3231 61.9131 82.4549 62.5552 82.1419 63.0334C81.9442 63.3359 81.6161 63.4998 81.2814 63.4998ZM64.0288 61.3115C63.7719 61.3115 63.5149 61.2153 63.3152 61.0216C62.9054 60.6249 62.8936 59.9689 63.2876 59.5563C64.0275 58.7829 64.8373 58.1567 65.6939 57.6957C66.1953 57.4264 66.8186 57.6168 67.0868 58.1215C67.3543 58.6263 67.1652 59.2538 66.6638 59.5238C65.997 59.882 65.3598 60.3768 64.7701 60.9937C64.5678 61.2047 64.2983 61.3115 64.0288 61.3115ZM76.594 60.7025C76.4378 60.7025 76.2797 60.6667 76.1315 60.5911C75.296 60.1666 74.4934 59.8123 73.7476 59.5384C73.2132 59.3421 72.9384 58.7471 73.1335 58.2098C73.3285 57.6725 73.9189 57.3952 74.4532 57.5915C75.2749 57.8934 76.1512 58.2801 77.0585 58.7411C77.5659 58.9991 77.7701 59.622 77.5138 60.1327C77.3326 60.4942 76.9702 60.7025 76.594 60.7025ZM71.4744 58.8883C71.419 58.8883 71.3637 58.8837 71.3077 58.8744C70.4511 58.7338 69.6407 58.7119 68.8922 58.8094C68.3281 58.8837 67.8122 58.4824 67.7397 57.9146C67.6666 57.3468 68.0646 56.8274 68.6286 56.7544C69.5754 56.6311 70.5862 56.6563 71.6398 56.8294C72.2005 56.9216 72.5813 57.4542 72.4897 58.0187C72.4074 58.5268 71.9705 58.8883 71.475 58.8883H71.4744Z" fill="#37474F"/>
<path d="M143.856 80.3681C143.719 80.3681 143.579 80.3402 143.445 80.2812C142.924 80.0523 142.686 79.4421 142.913 78.9174C143.223 78.2017 143.366 77.7413 143.368 77.7367C143.537 77.1908 144.113 76.885 144.655 77.0548C145.197 77.2239 145.501 77.803 145.334 78.3489C145.327 78.3715 145.16 78.9134 144.799 79.7452C144.631 80.1352 144.253 80.3674 143.855 80.3674L143.856 80.3681Z" fill="#13391A"/>
<path d="M64.2056 27.9915C64.2056 39.9526 47.5605 61.7792 40.0273 71.0445C38.1528 73.3502 34.6488 73.3502 32.7742 71.0445C25.241 61.7792 8.59595 39.9526 8.59595 27.9915C8.59595 12.5321 21.0445 0 36.4008 0C51.757 0 64.2056 12.5321 64.2056 27.9915Z" fill="#267233"/>
<path d="M47.3668 39.0298C53.4227 32.9332 53.4227 23.0487 47.3668 16.9521C41.3109 10.8555 31.4923 10.8555 25.4364 16.9521C19.3805 23.0487 19.3805 32.9332 25.4364 39.0298C31.4923 45.1264 41.3109 45.1264 47.3668 39.0298Z" fill="#9ABDA0"/>
<path d="M36.4015 90.3837C39.5401 90.3837 42.0845 87.8222 42.0845 84.6625C42.0845 81.5028 39.5401 78.9413 36.4015 78.9413C33.2629 78.9413 30.7185 81.5028 30.7185 84.6625C30.7185 87.8222 33.2629 90.3837 36.4015 90.3837Z" fill="#267233"/>
<path d="M158.934 47.4414C158.934 53.7151 150.204 65.1628 146.253 70.0223C145.27 71.2315 143.432 71.2315 142.448 70.0223C138.498 65.1628 129.767 53.7151 129.767 47.4414C129.767 39.3337 136.296 32.7601 144.351 32.7601C152.405 32.7601 158.934 39.333 158.934 47.4414Z" fill="#3E515A"/>
<path d="M152.303 49.1389C153.236 44.7152 150.43 40.3682 146.035 39.4296C141.641 38.4909 137.323 41.316 136.391 45.7397C135.458 50.1633 138.265 54.5103 142.659 55.449C147.053 56.3876 151.371 53.5625 152.303 49.1389Z" fill="#818F92"/>
<path d="M146.186 79.5365C147.483 78.5166 147.714 76.6308 146.701 75.3244C145.688 74.0181 143.815 73.7859 142.517 74.8058C141.219 75.8257 140.989 77.7115 142.002 79.0178C143.015 80.3242 144.888 80.5564 146.186 79.5365Z" fill="#3E515A"/>
</svg>
