<svg width="36" height="36" viewBox="0 0 36 36" fill="none" xmlns="http://www.w3.org/2000/svg">
<path d="M26.3666 6.64728L23.3666 5.07295C20.7332 3.69099 19.4165 3 18 3C16.5836 3 15.2669 3.69099 12.6335 5.07295L12.1509 5.3262L25.5354 12.9745L31.5605 9.96198C30.5912 8.86423 29.0273 8.04351 26.3666 6.64728Z" fill="#56B855"/>
<path d="M32.6226 11.9465L26.625 14.9453V19.5C26.625 20.1213 26.1213 20.625 25.5 20.625C24.8787 20.625 24.375 20.1213 24.375 19.5V16.0703L19.125 18.6953V32.856C20.2018 32.5878 21.4272 31.9448 23.3665 30.927L26.3665 29.3528C29.5941 27.659 31.2078 26.8122 32.1039 25.2905C33 23.7687 33 21.875 33 18.0878V17.9123C33 15.0734 33 13.2984 32.6226 11.9465Z" fill="#56B855"/>
<path d="M16.875 32.856V18.6953L3.37746 11.9465C3 13.2984 3 15.0734 3 17.9123V18.0878C3 21.875 3 23.7687 3.8961 25.2905C4.79218 26.8122 6.40593 27.659 9.63342 29.3528L12.6334 30.927C14.5729 31.9448 15.7981 32.5878 16.875 32.856Z" fill="#56B855"/>
<path d="M4.43945 9.96198L17.9999 16.7422L23.1167 14.1838L9.78676 6.56677L9.63335 6.64728C6.97274 8.04351 5.40877 8.86423 4.43945 9.96198Z" fill="#56B855"/>
</svg>
