<svg width="166" height="177" viewBox="0 0 166 177" fill="none" xmlns="http://www.w3.org/2000/svg">
<path d="M94.4756 85.1774L68.1685 70.0698C67.8337 69.8766 67.4536 69.7749 67.0665 69.7749C66.6795 69.7749 66.2993 69.8766 65.9645 70.0698L39.8381 85.1694C39.6713 85.265 39.5328 85.4026 39.4365 85.5684C39.3402 85.7341 39.2896 85.9222 39.2896 86.1136C39.2896 86.3051 39.3402 86.4931 39.4365 86.6589C39.5328 86.8246 39.6713 86.9622 39.8381 87.0579L66.1452 102.165C66.48 102.359 66.8601 102.46 67.2472 102.46C67.6342 102.46 68.0144 102.359 68.3491 102.165L94.4756 87.0658C94.6424 86.9702 94.7809 86.8326 94.8771 86.6668C94.9734 86.5011 95.0241 86.313 95.0241 86.1216C95.0241 85.9302 94.9734 85.7421 94.8771 85.5764C94.7809 85.4106 94.6424 85.273 94.4756 85.1774Z" fill="#313331"/>
<path d="M55.1855 107.336L28.8744 92.2281C28.5396 92.035 28.1595 91.9332 27.7724 91.9332C27.3854 91.9332 27.0052 92.035 26.6704 92.2281L0.547971 107.312C0.381301 107.408 0.242956 107.546 0.146788 107.712C0.0506192 107.878 0 108.066 0 108.258C0 108.45 0.0506192 108.638 0.146788 108.804C0.242956 108.97 0.381301 109.108 0.547971 109.204L26.8551 124.308C27.1901 124.5 27.5702 124.601 27.9571 124.601C28.344 124.601 28.724 124.5 29.0591 124.308L55.1815 109.208C55.3438 109.111 55.4781 108.974 55.5715 108.81C55.6649 108.646 55.7142 108.461 55.7146 108.273C55.715 108.085 55.6665 107.9 55.5738 107.735C55.4811 107.571 55.3474 107.433 55.1855 107.336Z" fill="#313331"/>
<path d="M63.9573 146.997L37.6501 131.889C37.3154 131.696 36.9352 131.595 36.5482 131.595C36.1611 131.595 35.781 131.696 35.4462 131.889L9.3197 146.989C9.15303 147.085 9.01468 147.223 8.91851 147.389C8.82235 147.555 8.77173 147.744 8.77173 147.935C8.77173 148.127 8.82235 148.315 8.91851 148.481C9.01468 148.647 9.15303 148.785 9.3197 148.882L35.6308 163.989C35.9656 164.182 36.3458 164.284 36.7328 164.284C37.1199 164.284 37.5 164.182 37.8348 163.989L63.9573 148.89C64.125 148.794 64.2643 148.656 64.3613 148.49C64.4582 148.324 64.5093 148.135 64.5093 147.943C64.5093 147.751 64.4582 147.562 64.3613 147.396C64.2643 147.23 64.125 147.092 63.9573 146.997Z" fill="#313331"/>
<path d="M104.536 159.37L78.2249 144.262C77.8906 144.07 77.5111 143.969 77.1249 143.969C76.7386 143.969 76.3592 144.07 76.0249 144.262L49.8984 159.362C49.7318 159.458 49.5934 159.596 49.4973 159.762C49.4011 159.928 49.3505 160.116 49.3505 160.308C49.3505 160.5 49.4011 160.688 49.4973 160.854C49.5934 161.02 49.7318 161.158 49.8984 161.254L76.2056 176.358C76.5403 176.551 76.9205 176.653 77.3075 176.653C77.6946 176.653 78.0748 176.551 78.4095 176.358L104.536 161.258C104.702 161.162 104.839 161.024 104.935 160.858C105.03 160.693 105.081 160.505 105.081 160.314C105.081 160.123 105.03 159.935 104.935 159.77C104.839 159.604 104.702 159.466 104.536 159.37Z" fill="#313331"/>
<path d="M93.2471 62.6477L79.9109 54.9382L77.438 53.5129L67.209 47.6L41.0062 62.6477L41.0745 86.2993L67.1086 101.343L93.3154 86.2993L93.2471 62.6477Z" fill="#37474F"/>
<path d="M41.0062 62.6477L67.209 47.6L93.2471 62.6477L67.0404 77.6954L41.0062 62.6477Z" fill="#455A64"/>
<path d="M67.0404 77.6954L67.1086 101.343L41.0745 86.2992L41.0062 62.6477L67.0404 77.6954Z" fill="#455A64"/>
<path d="M93.2471 62.6477L93.3153 86.2992L67.1085 101.343L67.0403 77.6954L93.2471 62.6477Z" fill="#455A64"/>
<path opacity="0.2" d="M41.0062 62.6477L67.209 47.6L93.2471 62.6477L67.0404 77.6954L41.0062 62.6477Z" fill="#CDD1CD"/>
<path opacity="0.1" d="M93.2471 62.6477L93.3153 86.2992L67.1085 101.343L67.0403 77.6954L93.2471 62.6477Z" fill="black"/>
<path opacity="0.3" d="M77.438 53.5129L82.5083 56.4434L56.3056 71.4911L51.2352 68.5606L77.438 53.5129Z" fill="#CDD1CD"/>
<path opacity="0.3" d="M51.2352 77.6954L56.3056 80.6259V71.491L51.2352 68.5605V77.6954Z" fill="#CDD1CD"/>
<path opacity="0.3" d="M51.2352 92.1522L56.3056 95.0827V89.0501L51.2352 86.1196V92.1522Z" fill="#CDD1CD"/>
<path opacity="0.4" d="M72.6165 72.6529L67.1407 69.5108L61.7051 72.6529L67.1769 75.799L72.6165 72.6529Z" fill="#CDD1CD"/>
<path d="M27.8145 69.7424L17.5856 75.6513L16.4735 76.2941L1.78041 84.7861L1.71216 108.438L27.9189 123.485L53.9531 108.438L54.0213 84.7861L27.8145 69.7424Z" fill="#37474F"/>
<path d="M54.0214 84.7861L27.8147 69.7424L1.78052 84.7861L27.9873 99.8338L54.0214 84.7861Z" fill="#455A64"/>
<path d="M27.9872 99.8338L27.9189 123.485L53.9531 108.438L54.0213 84.7861L27.9872 99.8338Z" fill="#455A64"/>
<path d="M1.78041 84.7861L1.71216 108.438L27.9189 123.485L27.9872 99.8338L1.78041 84.7861Z" fill="#455A64"/>
<path opacity="0.4" d="M54.0214 84.7861L27.8147 69.7424L1.78052 84.7861L27.9873 99.8338L54.0214 84.7861Z" fill="#CDD1CD"/>
<path opacity="0.3" d="M1.78041 84.7861L1.71216 108.438L27.9189 123.485L27.9872 99.8338L1.78041 84.7861Z" fill="#CDD1CD"/>
<path opacity="0.3" d="M17.5856 75.6512L12.5153 78.5817L38.722 93.6294L43.7924 90.6989L17.5856 75.6512Z" fill="#CDD1CD"/>
<path opacity="0.3" d="M43.7924 99.8338L38.722 102.764V93.6295L43.7924 90.699V99.8338Z" fill="#CDD1CD"/>
<path opacity="0.3" d="M43.7924 114.291L38.722 117.221V111.188L43.7924 108.258V114.291Z" fill="#CDD1CD"/>
<path d="M38.0515 69.5946L30.1791 65.0432L27.7623 63.6458L21.1022 59.7971L4.04456 69.5946L4.08872 84.9857L21.038 94.7833L38.0957 84.9897L38.0515 69.5946Z" fill="#267233"/>
<path d="M4.04456 69.5946L21.1022 59.7971L38.0515 69.5946L20.9938 79.3882L4.04456 69.5946Z" fill="#267233"/>
<path d="M20.9938 79.3882L21.038 94.7833L4.08872 84.9857L4.04456 69.5947L20.9938 79.3882Z" fill="#267233"/>
<path d="M38.0516 69.5947L38.0957 84.9897L21.0381 94.7833L20.9939 79.3882L38.0516 69.5947Z" fill="#267233"/>
<path opacity="0.4" d="M4.04456 69.5946L21.1022 59.7971L38.0515 69.5946L20.9938 79.3882L4.04456 69.5946Z" fill="#CDD1CD"/>
<path opacity="0.1" d="M20.9938 79.3882L21.038 94.7833L4.08872 84.9857L4.04456 69.5947L20.9938 79.3882Z" fill="#CDD1CD"/>
<path opacity="0.3" d="M38.0516 69.5947L38.0957 84.9897L21.0381 94.7833L20.9939 79.3882L38.0516 69.5947Z" fill="#CDD1CD"/>
<path opacity="0.3" d="M27.7624 63.6459L31.0623 65.5543L14.0046 75.3479L10.7047 73.4395L27.7624 63.6459Z" fill="#CDD1CD"/>
<path opacity="0.3" d="M10.7047 79.3882L14.0046 81.2966V75.3478L10.7047 73.4394V79.3882Z" fill="#CDD1CD"/>
<path opacity="0.3" d="M10.7047 88.7986L14.0046 90.707V86.7784L10.7047 84.874V88.7986Z" fill="#CDD1CD"/>
<path opacity="0.4" d="M35.4902 69.4788L31.9294 67.4347L28.3885 69.4788L31.9534 71.527L35.4902 69.4788Z" fill="#CDD1CD"/>
<path d="M62.7288 124.467L49.1076 116.594L46.9237 115.333H46.9197L36.6947 109.42L10.4879 124.467L10.5562 148.115L36.5903 163.163L62.7971 148.115L62.7288 124.467Z" fill="#267233"/>
<path d="M10.4879 124.467L36.6947 109.42L62.7288 124.467L36.5221 139.515L10.4879 124.467Z" fill="#267233"/>
<path d="M36.5221 139.515L36.5903 163.163L10.5562 148.115L10.4879 124.467L36.5221 139.515Z" fill="#267233"/>
<path d="M62.7289 124.467L62.7971 148.115L36.5903 163.163L36.5221 139.515L62.7289 124.467Z" fill="#267233"/>
<path opacity="0.2" d="M10.4879 124.467L36.6947 109.42L62.7288 124.467L36.5221 139.515L10.4879 124.467Z" fill="#CDD1CD"/>
<path opacity="0.1" d="M62.7289 124.467L62.7971 148.115L36.5903 163.163L36.5221 139.515L62.7289 124.467Z" fill="black"/>
<path opacity="0.3" d="M46.9237 115.333L51.99 118.263L25.7873 133.311L20.7169 130.38L46.9237 115.333Z" fill="#CDD1CD"/>
<path opacity="0.3" d="M20.7169 139.515L25.7873 142.446V133.311L20.7169 130.38V139.515Z" fill="#CDD1CD"/>
<path opacity="0.3" d="M20.7169 153.972L25.7873 156.902V150.87L20.7169 147.939V153.972Z" fill="#CDD1CD"/>
<path opacity="0.4" d="M25.1087 124.024L19.6369 120.882L14.1973 124.024L19.6731 127.166L25.1087 124.024Z" fill="#CDD1CD"/>
<path d="M77.1691 121.797L66.9402 127.705L64.7522 128.971L51.131 136.84L51.0627 160.492L77.2695 175.539L103.304 160.492L103.372 136.84L77.1691 121.797Z" fill="#267233"/>
<path d="M103.372 136.84L77.169 121.797L51.1309 136.84L77.3376 151.888L103.372 136.84Z" fill="#267233"/>
<path d="M77.3375 151.888L77.2693 175.539L103.303 160.492L103.372 136.84L77.3375 151.888Z" fill="#267233"/>
<path d="M51.131 136.84L51.0627 160.492L77.2695 175.539L77.3378 151.888L51.131 136.84Z" fill="#267233"/>
<path opacity="0.2" d="M103.372 136.84L77.169 121.797L51.1309 136.84L77.3376 151.888L103.372 136.84Z" fill="#CDD1CD"/>
<path opacity="0.1" d="M51.131 136.84L51.0627 160.492L77.2695 175.539L77.3378 151.888L51.131 136.84Z" fill="#CDD1CD"/>
<path opacity="0.3" d="M66.9401 127.705L61.8698 130.636L88.0725 145.684L93.1428 142.753L66.9401 127.705Z" fill="#CDD1CD"/>
<path opacity="0.3" d="M93.1427 151.888L88.0724 154.818V145.684L93.1427 142.753V151.888Z" fill="#CDD1CD"/>
<path opacity="0.3" d="M93.1427 166.349L88.0724 169.275V163.242L93.1427 160.312V166.349Z" fill="#CDD1CD"/>
<path d="M77.1771 105.906L69.0637 110.598L66.5868 112.027L56.5184 117.844L56.4662 136.609L77.2614 148.55L97.9161 136.609L97.9723 117.844L77.1771 105.906Z" fill="#37474F"/>
<path d="M97.9723 117.844L77.1771 105.906L56.5184 117.844L77.3136 129.785L97.9723 117.844Z" fill="#455A64"/>
<path d="M77.3135 129.785L77.2614 148.55L97.916 136.609L97.9722 117.844L77.3135 129.785Z" fill="#455A64"/>
<path d="M56.5184 117.844L56.4662 136.609L77.2614 148.55L77.3136 129.785L56.5184 117.844Z" fill="#455A64"/>
<path opacity="0.4" d="M97.9723 117.844L77.1771 105.906L56.5184 117.844L77.3136 129.785L97.9723 117.844Z" fill="#CDD1CD"/>
<path opacity="0.1" d="M77.3135 129.785L77.2614 148.55L97.916 136.609L97.9722 117.844L77.3135 129.785Z" fill="#CDD1CD"/>
<path opacity="0.3" d="M56.5184 117.844L56.4662 136.609L77.2614 148.55L77.3136 129.785L56.5184 117.844Z" fill="#CDD1CD"/>
<path opacity="0.3" d="M69.0638 110.598L65.0372 112.921L85.8324 124.859L89.855 122.535L69.0638 110.598Z" fill="#CDD1CD"/>
<path opacity="0.3" d="M89.8549 129.786L85.8324 132.109V124.859L89.8549 122.535V129.786Z" fill="#CDD1CD"/>
<path opacity="0.3" d="M89.8549 141.256L85.8324 143.579V138.792L89.8549 136.469V141.256Z" fill="#CDD1CD"/>
<path opacity="0.4" d="M81.573 125.853L77.2333 123.358L72.9177 125.853L77.2614 128.344L81.573 125.853Z" fill="#CDD1CD"/>
<path d="M114.893 134.486C115.395 135.022 115.992 135.437 116.644 135.705C117.297 135.973 117.993 136.087 118.687 136.041C120.079 135.941 121.442 135.558 122.711 134.911C123.994 134.325 125.603 132.675 126.989 132.708C128.35 132.697 129.708 132.594 131.058 132.399C131.106 130.336 130.911 128.275 130.477 126.269L124.001 126.079C122.252 128.748 118.853 130.971 116.279 131.805C115.884 131.93 115.526 132.174 115.244 132.509C114.963 132.844 114.769 133.258 114.682 133.707C114.684 133.722 114.684 133.737 114.682 133.752C114.724 134.006 114.795 134.252 114.893 134.486Z" fill="#455A64"/>
<path d="M127.007 132.779C125.624 132.748 124.019 134.292 122.739 134.84C121.477 135.443 120.12 135.802 118.736 135.897C118.043 135.94 117.35 135.833 116.699 135.582C116.047 135.332 115.452 134.944 114.951 134.442C114.848 134.224 114.773 133.993 114.726 133.755C114.728 133.741 114.728 133.727 114.726 133.713C114.667 134.01 114.667 134.316 114.726 134.612C114.773 134.85 114.848 135.081 114.951 135.299C115.452 135.802 116.047 136.19 116.698 136.44C117.349 136.691 118.043 136.798 118.736 136.754C120.124 136.661 121.484 136.304 122.75 135.7C124.03 135.149 125.635 133.609 127.018 133.636C128.35 133.649 129.681 133.569 131.002 133.397C131.035 133.096 131.054 132.791 131.065 132.49C129.719 132.672 128.364 132.768 127.007 132.779Z" fill="#263238"/>
<path d="M162.448 140.844C162.45 141.618 162.382 142.39 162.245 143.149C162.028 144.496 161.363 145.698 160.386 146.505C159.526 147.144 158.463 147.314 157.432 147.395C156.522 147.504 155.602 147.397 154.731 147.08C154.071 146.81 153.513 146.293 153.146 145.616C153.146 145.616 153.146 145.64 153.146 145.656C153.276 146.153 153.509 146.607 153.825 146.981C154.142 147.355 154.533 147.637 154.966 147.803C155.839 148.121 156.76 148.228 157.671 148.119C158.698 148.046 159.762 147.868 160.625 147.229C161.602 146.419 162.267 145.215 162.484 143.865C162.622 143.106 162.689 142.334 162.684 141.56C162.685 141.028 162.783 140.503 162.97 140.016C163.158 139.529 163.432 139.091 163.776 138.729C163.942 138.553 164.1 138.368 164.25 138.175C164.355 138.037 164.434 137.877 164.484 137.704C164.534 137.531 164.553 137.349 164.539 137.168C164.539 137.022 164.518 136.885 164.504 136.763C164.257 137.087 163.676 137.863 163.53 138.021C163.19 138.384 162.919 138.821 162.733 139.306C162.547 139.792 162.45 140.315 162.448 140.844Z" fill="#263238"/>
<path d="M156.906 133.202C157.143 134.742 156.951 136.32 156.353 137.751C155.754 139.173 154.974 140.506 154.034 141.713C153.576 142.285 153.17 142.901 152.822 143.552C152.482 144.2 152.361 144.947 152.477 145.675C152.866 146.335 153.459 146.838 154.159 147.101C155.084 147.41 156.061 147.514 157.027 147.408C158.122 147.341 159.251 147.164 160.164 146.541C161.202 145.754 161.908 144.582 162.138 143.268C162.284 142.53 162.356 141.778 162.354 141.024C162.356 140.506 162.459 139.995 162.658 139.521C162.857 139.047 163.146 138.62 163.509 138.267C163.665 138.113 164.267 137.357 164.544 137.042C164.399 135.918 164.036 134.836 163.475 133.864L156.906 133.202Z" fill="#455A64"/>
<path d="M134.154 67.6694C134.154 67.6694 121.666 92.3087 121.806 98.7805C121.946 105.252 123.299 126.696 123.299 126.696C126.551 128.812 131.253 127.232 131.253 127.232C131.634 106.832 134.208 106.112 133.048 98.6405C136.135 92.6407 142.657 83.077 142.657 83.077C143.849 94.5166 145.529 103.832 146.315 107.96C146.598 109.437 147.033 110.873 147.611 112.24L156.652 133.803C159.833 135.655 163.831 133.803 163.831 133.803C161.319 116.492 161.789 117.06 156.756 107.5C156.67 89.4688 155.916 68.0014 155.916 68.0014L134.154 67.6694Z" fill="#37474F"/>
<path opacity="0.3" d="M137.794 78.3541C138.101 80.9356 140.444 82.8277 140.444 82.8277C137.089 87.2974 135.024 92.4174 134.626 95.4495C137.942 89.8947 142.462 83.4506 142.462 83.4506C142.288 81.0179 142.1 79.9249 142.1 79.9249C140.448 80.1012 138.278 78.8555 137.794 78.3541Z" fill="black"/>
<path d="M134.669 28.2807C131.174 26.7251 129.569 28.4194 126.559 29.8823C123.549 31.3452 117.836 34.2372 117.836 34.2372C117.49 35.8483 117.52 37.5215 117.924 39.1023C118.328 40.683 119.093 42.1206 120.148 43.2823L130.091 39.8621L134.669 28.2807Z" fill="#267233"/>
<path opacity="0.4" d="M134.669 28.2807C131.174 26.7251 129.569 28.4194 126.559 29.8823C123.549 31.3452 117.836 34.2372 117.836 34.2372C117.49 35.8483 117.52 37.5215 117.924 39.1023C118.328 40.683 119.093 42.1206 120.148 43.2823L130.091 39.8621L134.669 28.2807Z" fill="black"/>
<path d="M152.01 72.5057C146.725 72.5475 136.717 71.3476 131.028 62.5308C130.686 61.9994 130.507 61.3613 130.517 60.7066C130.528 60.0519 130.727 59.4137 131.086 58.882C131.751 57.9024 131.835 57.8919 132.348 52.5615C132.85 47.3529 128.714 37.5294 129.32 34.8854C129.926 32.2413 131.697 27.9248 134.669 28.2807C140.162 29.0004 149.368 33.7664 149.368 33.7664L153.67 37.9538C156.638 47.0811 157.295 60.9557 156.39 68.3211C156.245 69.4722 155.72 70.5333 154.913 71.3042C154.107 72.0752 153.074 72.5026 152.01 72.5057Z" fill="#267233"/>
<path opacity="0.3" d="M152.01 72.5057C146.725 72.5475 136.717 71.3476 131.028 62.5308C130.686 61.9994 130.507 61.3613 130.517 60.7066C130.528 60.0519 130.727 59.4137 131.086 58.882C131.751 57.9024 131.835 57.8919 132.348 52.5615C132.85 47.3529 128.714 37.5294 129.32 34.8854C129.926 32.2413 131.697 27.9248 134.669 28.2807C140.162 29.0004 149.368 33.7664 149.368 33.7664L153.67 37.9538C156.638 47.0811 157.295 60.9557 156.39 68.3211C156.245 69.4722 155.72 70.5333 154.913 71.3042C154.107 72.0752 153.074 72.5026 152.01 72.5057Z" fill="black"/>
<path d="M130.761 16.4999C129.957 15.2414 130.525 14.0023 130.719 12.4697C130.913 10.9372 131.935 9.25823 133.026 8.25114C135.238 4.10387 149.378 9.97182 148.439 13.2683C149.19 13.1906 148.543 16.4753 148.342 17.2699C147.567 20.3114 147.211 22.9462 145.438 25.4339C144.519 26.719 143.379 28.0193 141.903 28.2221L130.761 16.4999Z" fill="#263238"/>
<path d="M145.774 29.6669C144.992 28.9609 143.058 28.132 143.058 28.132L143.81 31.6923L145.774 29.6669Z" fill="#267233"/>
<path opacity="0.7" d="M145.774 29.6669C144.992 28.9609 143.058 28.132 143.058 28.132L143.81 31.6923L145.774 29.6669Z" fill="black"/>
<path d="M139.021 28.8166C137.676 28.8935 136.349 29.2228 135.098 29.7899C134.677 30.8101 134.128 31.7637 133.467 32.6234C134.37 32.5599 135.263 32.354 136.117 32.0121C136.397 32.6791 136.842 33.2459 137.403 33.6505C137.803 32.9099 138.162 32.1445 138.479 31.3586C138.79 30.5484 138.974 29.6888 139.021 28.8166Z" fill="#267233"/>
<path opacity="0.4" d="M139.021 28.8166C137.676 28.8935 136.349 29.2228 135.098 29.7899C134.677 30.8101 134.128 31.7637 133.467 32.6234C134.37 32.5599 135.263 32.354 136.117 32.0121C136.397 32.6791 136.842 33.2459 137.403 33.6505C137.803 32.9099 138.162 32.1445 138.479 31.3586C138.79 30.5484 138.974 29.6888 139.021 28.8166Z" fill="black"/>
<path opacity="0.4" d="M134.744 32.444C135.215 32.3473 135.679 32.2094 136.132 32.0315C135.918 31.5477 135.757 31.038 135.65 30.5122C135.461 31.2102 135.154 31.8655 134.744 32.444Z" fill="black"/>
<path d="M135.537 25.2786C135.537 25.2786 137.857 29.9076 137.057 31.177C136.748 31.6663 136.286 32.7498 137.465 33.813C139.031 35.272 142.418 34.378 144.105 33.0816C144.483 32.8748 144.791 32.5406 144.982 32.1298L144.483 22.8122L135.537 25.2786Z" fill="#FDCBC0"/>
<path d="M142.498 26.788C143.142 25.6459 143.544 24.3651 143.674 23.0405L135.533 25.2911C135.533 25.2911 136.861 27.9404 137.161 29.7782C137.836 29.8147 138.515 29.7248 139.166 29.5126C140.531 29.0568 141.711 28.0914 142.498 26.788Z" fill="#D8A093"/>
<path d="M137.68 33.9957C138.509 33.6679 139.765 31.8757 139.765 31.8757C141.878 31.5905 143.923 30.8389 145.774 29.6669L146.203 32.2365C144.936 34.5547 140.338 37.1694 140.338 37.1694L140.141 34.5418C139.719 34.6923 139.27 34.7211 138.838 34.6253C138.407 34.5296 138.008 34.3126 137.68 33.9957Z" fill="#267233"/>
<path opacity="0.4" d="M137.68 33.9957C138.509 33.6679 139.765 31.8757 139.765 31.8757C141.878 31.5905 143.923 30.8389 145.774 29.6669L146.203 32.2365C144.936 34.5547 140.338 37.1694 140.338 37.1694L140.141 34.5418C139.719 34.6923 139.27 34.7211 138.838 34.6253C138.407 34.5296 138.008 34.3126 137.68 33.9957Z" fill="black"/>
<path opacity="0.4" d="M138.36 34.4587C138.634 34.6055 138.934 34.6888 139.241 34.7033C139.548 34.7178 139.855 34.6634 140.144 34.5433L140.017 32.877C139.575 33.5273 139.009 34.0671 138.36 34.4587Z" fill="black"/>
<path d="M121.626 14.3468L108.459 17.2197L106.366 17.6756L88.1115 21.6549L78.9223 49.3733L101.016 77.4401L134.533 70.1279L143.722 42.4094L121.626 14.3468Z" fill="#267233"/>
<path d="M143.722 42.4094L121.626 14.3468L88.1115 21.6549L110.206 49.7217L143.722 42.4094Z" fill="#267233"/>
<path d="M110.206 49.7217L101.017 77.4401L134.533 70.1279L143.722 42.4095L110.206 49.7217Z" fill="#267233"/>
<path d="M88.1116 21.6549L78.9225 49.3733L101.017 77.4401L110.206 49.7217L88.1116 21.6549Z" fill="#267233"/>
<path opacity="0.4" d="M143.722 42.4094L121.626 14.3468L88.1115 21.6549L110.206 49.7217L143.722 42.4094Z" fill="#CDD1CD"/>
<path opacity="0.1" d="M110.206 49.7217L101.017 77.4401L134.533 70.1279L143.722 42.4095L110.206 49.7217Z" fill="#CDD1CD"/>
<path opacity="0.3" d="M88.1116 21.6549L78.9225 49.3733L101.017 77.4401L110.206 49.7217L88.1116 21.6549Z" fill="#CDD1CD"/>
<path opacity="0.3" d="M108.459 17.2197L101.932 18.6399L124.026 46.7067L130.555 45.2823L108.459 17.2197Z" fill="#CDD1CD"/>
<path opacity="0.3" d="M127.033 56.0017L120.505 57.422L124.026 46.7067L130.555 45.2824L127.033 56.0017Z" fill="#CDD1CD"/>
<path opacity="0.3" d="M121.453 72.982L114.924 74.4064L117.256 67.3085L123.785 65.8841L121.453 72.982Z" fill="#CDD1CD"/>
<path opacity="0.4" d="M117.799 46.0386L113.28 40.3005L106.427 41.7946L110.946 47.5327L117.799 46.0386Z" fill="#CDD1CD"/>
<path d="M140.668 51.6245L137.646 60.3442C132.844 63.3339 123.926 69.602 123.926 69.602C122.625 68.005 120.216 68.3896 119.659 67.2422C119.543 67.0846 119.381 66.9746 119.199 66.9294C119.017 66.8843 118.826 66.9066 118.654 66.9929C118.499 67.0805 118.367 67.2125 118.274 67.3747C118.181 67.5368 118.13 67.7229 118.127 67.9125C118.128 68.2954 118.258 68.6622 118.493 68.9423C118.727 69.2197 119.006 69.4482 119.316 69.6167C119.603 69.7634 119.876 69.9386 120.133 70.1402C120.26 70.244 120.365 70.3771 120.44 70.5304C120.515 70.6836 120.558 70.8534 120.567 71.0279C119.745 72.0675 118.809 72.9934 117.781 73.784L115.957 74.1685C116.358 74.8718 116.778 75.6472 117.5 75.9306C117.817 76.047 118.159 76.0634 118.487 75.9778C118.816 75.8923 119.117 75.7082 119.357 75.4466C119.674 76.0303 120.47 76.2947 121.089 76.3489C121.712 76.3751 122.335 76.2465 122.91 75.9727C124.48 75.3 125.845 74.1481 126.839 72.657L140.201 68.894C141.287 68.5948 142.304 68.0421 143.182 67.2745C144.059 66.507 144.776 65.543 145.281 64.4498L148.878 56.5911L140.668 51.6245Z" fill="#FDCBC0"/>
<path d="M149.368 33.7663C144.398 38.3774 141.218 48.0526 139.029 54.0966C141.906 59.9616 148.497 59.5981 148.497 59.5981C156.23 43.0912 158.389 37.7101 149.368 33.7663Z" fill="#267233"/>
<path opacity="0.4" d="M149.368 33.7663C144.398 38.3774 141.218 48.0526 139.029 54.0966C141.906 59.9616 148.497 59.5981 148.497 59.5981C156.23 43.0912 158.389 37.7101 149.368 33.7663Z" fill="black"/>
<path opacity="0.2" d="M140.007 51.3776C139.66 52.3415 139.331 53.2653 139.023 54.1132C141.9 59.9782 148.492 59.6147 148.492 59.6147C148.906 58.7275 149.302 57.8844 149.684 57.0592C148.061 56.8817 142.581 55.9434 140.007 51.3776Z" fill="#CDD1CD"/>
<path d="M132.743 9.21546C130.941 13.0534 129.841 17.226 129.505 21.497C129.402 22.4343 129.42 23.3804 129.558 24.3077C129.702 25.2361 130.129 26.0797 130.769 26.7042C131.574 27.4325 132.671 27.6326 133.714 27.8033C135.621 28.124 137.578 28.4451 139.47 27.9932C141.363 27.5414 143.214 26.134 143.721 24.0998C144.065 24.5651 144.512 24.9269 145.022 25.1521C145.531 25.3772 146.087 25.4584 146.637 25.3883C147.188 25.2833 147.708 25.0313 148.151 24.655C148.594 24.2787 148.946 23.7899 149.175 23.2327C149.608 22.1476 149.429 20.69 148.507 20.0993C148.215 19.9354 147.893 19.8424 147.563 19.8267C147.233 19.811 146.902 19.873 146.593 20.0084C145.977 20.282 145.398 20.6505 144.875 21.1024C144.631 21.3234 144.347 21.4869 144.043 21.5825C143.89 21.6304 143.729 21.6263 143.58 21.5708C143.431 21.5153 143.302 21.411 143.211 21.2721C143.152 21.097 143.13 20.909 143.146 20.7219C143.162 20.5348 143.216 20.3531 143.304 20.1901L144.232 17.7131C144.303 17.5222 144.323 17.314 144.288 17.1135C144.252 16.913 144.165 16.7289 144.035 16.5834C143.648 16.1288 143.427 15.5344 143.413 14.9095C143.409 14.3627 143.48 13.8168 143.623 13.2899C143.655 13.1874 143.663 13.0785 143.647 12.9727C143.631 12.8669 143.591 12.7674 143.531 12.6831C143.472 12.5987 143.393 12.532 143.304 12.4889C143.214 12.4457 143.115 12.4275 143.017 12.4356C139.494 12.6698 135.628 11.297 132.743 9.21546Z" fill="#FDCBC0"/>
<path d="M134.018 6.97481L136.415 3.89203C136.979 3.16164 137.708 2.60391 138.528 2.27575C139.348 1.94759 140.229 1.86073 141.082 2.02406C144.333 2.66985 147.812 4.34029 149.821 6.96948C150.328 7.64749 150.668 8.45667 150.809 9.32237C150.95 10.1881 150.888 11.0824 150.629 11.9229C150.128 13.7199 149.379 15.4279 148.409 16.9879C147.441 15.864 145.415 14.0611 145.415 14.0611L134.018 6.97481Z" fill="#455A64"/>
<path d="M145.418 14.0528C143.185 14.3915 140.827 14.7072 138.711 13.8756C136.379 12.9774 134.581 10.7899 132.175 10.1569C131.592 10.0047 128.345 10.0068 128.581 8.38326C128.663 7.85085 129.735 7.39046 129.948 7.3255C131.254 6.91521 132.677 6.94874 134.024 6.95819C138.379 6.94171 142.265 10.848 145.418 14.0528Z" fill="#267233"/>
<path opacity="0.3" d="M145.418 14.0528C143.185 14.3915 140.827 14.7072 138.711 13.8756C136.379 12.9774 134.581 10.7899 132.175 10.1569C131.592 10.0047 128.345 10.0068 128.581 8.38326C128.663 7.85085 129.735 7.39046 129.948 7.3255C131.254 6.91521 132.677 6.94874 134.024 6.95819C138.379 6.94171 142.265 10.848 145.418 14.0528Z" fill="black"/>
<path opacity="0.2" d="M138.834 12.8935C137.673 12.2181 136.626 11.3344 135.519 10.5583C134.439 9.72774 133.204 9.16075 131.898 8.8952C131.251 8.85823 130.61 8.76203 129.98 8.60764C129.574 8.48081 129.215 8.22022 128.953 7.86116C128.766 7.97994 128.626 8.17029 128.561 8.39417C128.324 10.0178 131.572 10.0156 132.154 10.1679C134.561 10.8008 136.359 12.9883 138.69 13.8865C140.198 14.3921 141.794 14.5355 143.369 14.307C141.78 14.1777 140.237 13.6968 138.834 12.8935Z" fill="#CDD1CD"/>
</svg>
