<svg width="320" height="180" viewBox="0 0 320 180" fill="none" xmlns="http://www.w3.org/2000/svg">
<path d="M296.675 92.7624H291.118V50.0764H295.637C295.856 50.0764 296.066 50.1629 296.221 50.317C296.376 50.4711 296.464 50.6802 296.465 50.8987L296.675 92.7624Z" fill="#22672E"/>
<path d="M291.637 92.9884H231.967V62.5886H291.637V92.9884Z" fill="#377C42"/>
<path d="M295.77 51.2889C295.74 51.3455 295.716 51.4055 295.7 51.4674L293.643 59.3838L291.411 63.6027H232.194V62.5519L235.565 59.3838L239.498 51.8749C239.672 51.5434 239.9 51.2433 240.173 50.987C240.795 50.4021 241.618 50.0764 242.473 50.0764H295.038C295.18 50.0764 295.321 50.1132 295.445 50.1833C295.569 50.2534 295.673 50.3543 295.747 50.4763C295.82 50.5983 295.861 50.7372 295.865 50.8796C295.869 51.022 295.836 51.163 295.77 51.2889Z" fill="#478552"/>
<path d="M294.742 55.3379L293.643 59.3836H235.566L237.442 56.0163L294.742 55.3379Z" fill="#6F9C77"/>
<path d="M237.853 72.6656C239.742 72.6656 241.274 71.1367 241.274 69.2505C241.274 67.3644 239.742 65.8354 237.853 65.8354C235.963 65.8354 234.431 67.3644 234.431 69.2505C234.431 71.1367 235.963 72.6656 237.853 72.6656Z" fill="#6F9C77"/>
<path d="M244.301 101.14H239.344V63.7227H243.376C243.571 63.7227 243.758 63.7985 243.897 63.9336C244.035 64.0686 244.113 64.252 244.114 64.4435L244.301 101.14Z" fill="#3E515A"/>
<path d="M239.807 101.338H186.567V74.6904H239.807V101.338Z" fill="#455A64"/>
<path d="M243.494 64.7855C243.467 64.8351 243.447 64.8876 243.432 64.942L241.596 71.8811L239.605 75.5793H186.769V74.6582L189.777 71.8811L193.287 65.2991C193.441 65.0086 193.645 64.7455 193.888 64.5208C194.444 64.0081 195.178 63.7227 195.941 63.7227H242.841C242.968 63.7227 243.094 63.7549 243.204 63.8163C243.315 63.8777 243.408 63.9662 243.474 64.0732C243.539 64.1801 243.576 64.3019 243.579 64.4267C243.583 64.5515 243.554 64.6751 243.494 64.7855Z" fill="#607279"/>
<path d="M242.577 68.3354L241.596 71.8813H189.777L191.452 68.9299L242.577 68.3354Z" fill="#818F92"/>
<path d="M191.818 83.5237C193.504 83.5237 194.871 82.1835 194.871 80.5302C194.871 78.8769 193.504 77.5366 191.818 77.5366C190.132 77.5366 188.765 78.8769 188.765 80.5302C188.765 82.1835 190.132 83.5237 191.818 83.5237Z" fill="#818F92"/>
<path d="M13.3644 146.606L8.55291 118.581C6.4149 106.128 15.6457 94.604 28.2824 93.9505L96.8753 90.4032L113.246 63.4626C115.416 59.891 119.296 57.71 123.48 57.71H172.766C176.64 57.71 179.913 60.5786 180.416 64.4142L181.668 85.9708L304.543 86.3381L320 137.203L305.652 136.504L306.388 151.932L287.626 152.667L281.371 135.008C280.194 131.683 275.033 127.934 269.669 124.797C257.643 117.765 242.194 120.022 233.094 130.561C230.947 133.047 229.446 135.637 229.027 138.066L226.188 154.504L88.5978 152.3L70.5652 127.113C65.2376 121.324 40.088 119.197 37.823 127.113L24.2172 147.157L13.3644 146.606Z" fill="#267233"/>
<path d="M162.967 74.2609L167.023 93.2527L115.42 94.351L126.319 71.1082C127.307 68.9996 129.478 67.6906 131.817 67.7916L156.545 68.8595C159.675 68.9947 162.317 71.2165 162.967 74.2609Z" fill="#87A98D"/>
<path d="M108.454 92.8855L118.779 66.503L116.076 63.8169L99.2366 89.2213L102.658 94.3512L108.454 92.8855Z" fill="#87A98D"/>
<path d="M256.031 178.931C269.437 178.931 280.305 168.063 280.305 154.657C280.305 141.25 269.437 130.382 256.031 130.382C242.624 130.382 231.756 141.25 231.756 154.657C231.756 168.063 242.624 178.931 256.031 178.931Z" fill="#263238"/>
<path d="M241.527 154.504C241.527 162.43 247.952 168.855 255.878 168.855C263.804 168.855 270.229 162.43 270.229 154.504C270.229 146.578 263.804 140.153 255.878 140.153C247.952 140.153 241.527 146.578 241.527 154.504Z" fill="#CDD1CD"/>
<path d="M52.0609 178.931C65.4676 178.931 76.3358 168.063 76.3358 154.657C76.3358 141.25 65.4676 130.382 52.0609 130.382C38.6543 130.382 27.7861 141.25 27.7861 154.657C27.7861 168.063 38.6543 178.931 52.0609 178.931Z" fill="#263238"/>
<path d="M37.8625 154.504C37.8625 162.43 44.2878 168.855 52.2137 168.855C60.1396 168.855 66.5648 162.43 66.5648 154.504C66.5648 146.578 60.1396 140.153 52.2137 140.153C44.2878 140.153 37.8625 146.578 37.8625 154.504Z" fill="#CDD1CD"/>
<path d="M153.588 102.901H167.634V100.153H153.588V102.901Z" fill="#3F3D56"/>
<path d="M9.92367 138.931C15.4044 138.931 19.8473 135.103 19.8473 130.382C19.8473 125.66 15.4044 121.832 9.92367 121.832C4.44298 121.832 0 125.66 0 130.382C0 135.103 4.44298 138.931 9.92367 138.931Z" fill="#818F92"/>
<path d="M182.404 175.859L188.349 175.859L191.177 152.941L182.403 152.942L182.404 175.859Z" fill="#FDCBC0"/>
<path d="M202.773 175.724C202.958 176.036 203.056 177.042 203.056 177.404C203.056 178.518 202.152 179.42 201.038 179.42L182.627 179.42C181.866 179.42 181.25 178.805 181.25 178.045V177.279C181.25 177.279 180.339 174.976 182.214 172.139C182.214 172.139 184.545 174.361 188.027 170.88L189.054 169.021L196.488 174.454L200.609 174.961C201.51 175.072 202.309 174.944 202.773 175.724Z" fill="#1D2B33"/>
<path d="M155.693 175.859L161.638 175.859L164.466 152.941L155.692 152.942L155.693 175.859Z" fill="#FDCBC0"/>
<path d="M176.062 175.724C176.247 176.036 176.345 177.042 176.345 177.404C176.345 178.518 175.441 179.42 174.327 179.42L155.915 179.42C155.155 179.42 154.539 178.805 154.539 178.045V177.279C154.539 177.279 153.628 174.976 155.503 172.139C155.503 172.139 157.834 174.361 161.316 170.88L162.343 169.021L169.777 174.454L173.897 174.961C174.799 175.072 175.598 174.944 176.062 175.724Z" fill="#1D2B33"/>
<path d="M181.463 19.374L182.591 29.9014L169.424 28.7735L171.681 18.998L181.463 19.374Z" fill="#FDCBC0"/>
<path d="M176.76 20.6901C181.539 20.6901 185.413 16.8184 185.413 12.0425C185.413 7.26664 181.539 3.39502 176.76 3.39502C171.981 3.39502 168.107 7.26664 168.107 12.0425C168.107 16.8184 171.981 20.6901 176.76 20.6901Z" fill="#FDCBC0"/>
<path d="M182.403 25.5779L196.887 34.0374L194.514 45.5048L192.142 56.9721L195.382 87.8024L193.125 163.374L179.205 161.87L177.324 97.5779L166.414 164.126H152.897L155.128 92.3142L161.899 61.8599L157.761 28.7737L170.364 24.8259L182.403 25.5779Z" fill="#263238"/>
<path d="M182.968 14.4864C182.968 14.4864 183.72 11.8545 185.413 12.0425C187.106 12.2305 187.482 10.7266 187.106 9.97466C186.73 9.2227 185.977 5.46291 185.977 5.46291C185.977 5.46291 186.353 2.83105 184.096 2.45508C181.839 2.0791 181.086 1.70312 180.71 0.95116C180.334 0.199201 174.691 -0.552755 172.81 0.57518C170.929 1.70312 169.424 3.86722 168.107 4.47707C166.79 5.08693 165.662 6.21487 166.414 8.09476C167.167 9.97466 168.258 13.6513 168.258 13.6513C168.258 13.6513 170.176 12.9825 170.552 14.1104C170.929 15.2384 169.424 13.7344 171.305 10.7266C173.186 7.71879 173.186 4.71095 176.196 5.83889C179.205 6.96683 182.591 6.59085 182.215 8.84672C181.839 11.1026 182.968 14.4864 182.968 14.4864Z" fill="#2F2E41"/>
<path d="M189.418 81.0579C187.608 82.974 187.129 85.461 188.349 86.6126C189.57 87.7641 192.027 87.144 193.838 85.2269C194.572 84.471 195.114 83.5504 195.419 82.5422L202.989 74.3264L199.056 70.8584L192.011 79.3259C191.02 79.688 190.132 80.2819 189.418 81.0579Z" fill="#FDCBC0"/>
<path d="M196.735 33.8491L209.483 55.5544L211.372 65.4633L199.096 81.0345L193.902 74.4285L200.04 65.4633L190.125 48.0047L196.735 33.8491Z" fill="#263238"/>
<path d="M214.171 86.0472H209.609V44.8855H213.32C213.499 44.8855 213.672 44.9689 213.799 45.1175C213.926 45.2661 213.998 45.4677 213.999 45.6784L214.171 86.0472Z" fill="#3E515A"/>
<path d="M210.035 86.2651H161.042V56.9509H210.035V86.2651Z" fill="#455A64"/>
<path d="M213.428 46.0547C213.404 46.1093 213.385 46.1671 213.371 46.2269L211.682 53.8605L209.849 57.9288H161.228V56.9155L163.996 53.8605L167.225 46.6197C167.368 46.3001 167.555 46.0107 167.779 45.7635C168.29 45.1995 168.966 44.8855 169.668 44.8855H212.827C212.944 44.8855 213.06 44.921 213.162 44.9886C213.264 45.0561 213.349 45.1534 213.409 45.2711C213.47 45.3887 213.503 45.5227 213.507 45.66C213.51 45.7973 213.483 45.9332 213.428 46.0547Z" fill="#607279"/>
<path d="M212.584 49.9595L211.682 53.8608H163.996L165.537 50.6136L212.584 49.9595Z" fill="#818F92"/>
<path d="M165.874 66.6683C167.425 66.6683 168.683 65.1939 168.683 63.3752C168.683 61.5564 167.425 60.082 165.874 60.082C164.322 60.082 163.064 61.5564 163.064 63.3752C163.064 65.1939 164.322 66.6683 165.874 66.6683Z" fill="#818F92"/>
<path d="M164.854 76.1699C166.665 78.0861 167.144 80.5731 165.923 81.7246C164.703 82.8761 162.246 82.2561 160.435 80.339C159.701 79.5831 159.158 78.6625 158.853 77.6543L151.283 69.4385L155.217 65.9705L162.262 74.438C163.252 74.8001 164.141 75.394 164.854 76.1699Z" fill="#FDCBC0"/>
<path d="M157.537 28.9614L144.789 50.6667L142.901 60.5756L155.177 76.1468L160.37 69.5408L154.232 60.5756L164.148 43.117L157.537 28.9614Z" fill="#263238"/>
</svg>
