<svg width="280" height="218" viewBox="0 0 280 218" fill="none" xmlns="http://www.w3.org/2000/svg">
<g clip-path="url(#clip0_668_89)">
<path d="M149.398 217.079H137.758V127.669H147.224C147.683 127.669 148.122 127.85 148.447 128.173C148.772 128.495 148.956 128.934 148.958 129.391L149.398 217.079Z" fill="#194C22"/>
<path d="M138.846 217.552H13.8521V153.877H138.846V217.552Z" fill="#D4E3D6"/>
<path d="M89.5797 217.315H14.0894V154.114H138.609V168.38C138.594 181.354 133.424 193.793 124.232 202.966C115.041 212.14 102.578 217.301 89.5797 217.315Z" fill="#205F2B"/>
<path d="M147.502 130.208C147.439 130.327 147.39 130.453 147.356 130.582L143.046 147.164L138.371 156.001H14.3264V153.8L21.3887 147.164L29.6272 131.436C29.9909 130.741 30.4685 130.113 31.0402 129.576C32.3446 128.351 34.0683 127.669 35.8594 127.669H145.968C146.267 127.669 146.561 127.746 146.821 127.893C147.082 128.039 147.299 128.251 147.454 128.506C147.608 128.762 147.694 129.053 147.702 129.351C147.71 129.649 147.641 129.945 147.502 130.208Z" fill="#205F2B"/>
<path d="M138.846 217.552H13.8521V153.877H138.846V217.552ZM14.8009 216.605H137.897V154.824H14.8009V216.605Z" fill="#3F3D56"/>
<path d="M145.349 138.691L143.046 147.164H21.3889L25.32 140.111L145.349 138.691Z" fill="#D4E3D6"/>
<path d="M38.3867 187.244H18.4614V188.344H38.3867V187.244Z" fill="white"/>
<path d="M38.3867 191.095H18.4614V192.196H38.3867V191.095Z" fill="white"/>
<path d="M38.3867 194.947H18.4614V196.048H38.3867V194.947Z" fill="white"/>
<path d="M26.1797 174.985C30.138 174.985 33.3468 171.782 33.3468 167.831C33.3468 163.881 30.138 160.678 26.1797 160.678C22.2215 160.678 19.0127 163.881 19.0127 167.831C19.0127 171.782 22.2215 174.985 26.1797 174.985Z" fill="white"/>
<path d="M104.732 142.358H98.6448V95.6011H103.595C103.835 95.6011 104.065 95.6958 104.235 95.8646C104.405 96.0334 104.501 96.2625 104.502 96.5018L104.732 142.358Z" fill="#455A64"/>
<path d="M99.2137 142.606H33.8477V109.307H99.2137V142.606Z" fill="white"/>
<path d="M73.4499 142.482H33.9719V109.431H99.0898V116.892C99.0821 123.676 96.3783 130.181 91.5716 134.978C86.7648 139.776 80.2476 142.475 73.4499 142.482Z" fill="#609869"/>
<path d="M103.74 96.9292C103.708 96.9912 103.682 97.0569 103.664 97.1248L101.41 105.796L98.9656 110.418H34.0959V109.267L37.7892 105.796L42.0975 97.5711C42.2877 97.208 42.5375 96.8792 42.8365 96.5984C43.5186 95.9578 44.42 95.6011 45.3567 95.6011H102.938C103.095 95.6011 103.248 95.6414 103.385 95.7181C103.521 95.7949 103.635 95.9054 103.715 96.0391C103.796 96.1727 103.841 96.3249 103.845 96.4808C103.85 96.6368 103.813 96.7913 103.74 96.9292Z" fill="#D4E3D6"/>
<path d="M99.2137 142.606H33.8477V109.307H99.2137V142.606ZM34.3439 142.111H98.7174V109.802H34.3439V142.111Z" fill="#E6E6E6"/>
<path d="M102.615 101.365L101.41 105.796H37.7893L39.845 102.108L102.615 101.365Z" fill="#455A64"/>
<path d="M46.6783 126.756H36.2583V127.332H46.6783V126.756Z" fill="white"/>
<path d="M46.6783 128.77H36.2583V129.346H46.6783V128.77Z" fill="white"/>
<path d="M46.6783 130.785H36.2583V131.36H46.6783V130.785Z" fill="white"/>
<path d="M40.2947 120.345C42.3646 120.345 44.0427 118.67 44.0427 116.604C44.0427 114.538 42.3646 112.864 40.2947 112.864C38.2247 112.864 36.5466 114.538 36.5466 116.604C36.5466 118.67 38.2247 120.345 40.2947 120.345Z" fill="white"/>
<path d="M303 217.437C303 217.511 302.986 217.584 302.957 217.652C302.929 217.721 302.888 217.783 302.835 217.835C302.783 217.888 302.72 217.929 302.652 217.958C302.583 217.986 302.51 218 302.435 218H0.564565C0.414833 218 0.271232 217.941 0.165356 217.835C0.0594799 217.729 0 217.586 0 217.437C0 217.287 0.0594799 217.144 0.165356 217.038C0.271232 216.932 0.414833 216.873 0.564565 216.873H302.435C302.51 216.873 302.583 216.887 302.652 216.916C302.72 216.944 302.783 216.985 302.835 217.038C302.888 217.09 302.929 217.152 302.957 217.221C302.986 217.289 303 217.362 303 217.437Z" fill="#CCCCCC"/>
<path d="M234.529 73.2638L225.888 72.0286C222.966 76.9057 221.927 89.887 221.927 89.887L213.471 109.947C212.911 110.327 212.461 110.847 212.167 111.455C211.872 112.064 211.743 112.739 211.793 113.413C211.843 114.087 212.07 114.735 212.451 115.294C212.832 115.852 213.354 116.301 213.964 116.594C214.574 116.887 215.25 117.015 215.925 116.964C216.6 116.914 217.25 116.687 217.809 116.306C218.368 115.925 218.817 115.403 219.11 114.794C219.403 114.185 219.53 113.51 219.479 112.836L233.363 89.4869L234.529 73.2638Z" fill="#FFB8B8"/>
<path d="M233.153 49.3216C234.491 49.5284 235.766 50.0267 236.889 50.7813C238.011 51.5359 238.953 52.5281 239.648 53.6873C240.342 54.8465 240.772 56.1443 240.907 57.4883C241.042 58.8323 240.879 60.1895 240.429 61.4633L238.595 66.6505C238.595 66.6505 237.597 82.2693 233.79 86.6781L222.11 85.6227C222.11 85.6227 224.245 77.7428 222.606 73.9303C221.602 71.5954 221.658 63.531 222.647 56.9708C222.832 55.7794 223.251 54.6363 223.88 53.6068C224.509 52.5773 225.335 51.6817 226.311 50.9712C227.286 50.2607 228.393 49.7493 229.567 49.4662C230.741 49.1832 231.96 49.134 233.153 49.3216Z" fill="#E6E6E6"/>
<path d="M261.709 211.385L256.504 211.384L254.028 191.346L261.71 191.347L261.709 211.385Z" fill="#FFB6B6"/>
<path d="M261.892 216.804L245.887 216.803V216.601C245.887 214.952 246.543 213.371 247.712 212.205C248.88 211.039 250.464 210.384 252.117 210.383L255.041 208.17L260.495 210.384L261.893 210.384L261.892 216.804Z" fill="#1E1F1E"/>
<path d="M239.081 186.551L234.273 188.54L224.295 170.978L231.391 168.042L239.081 186.551Z" fill="#FFB6B6"/>
<path d="M241.33 191.487L226.545 197.606L226.468 197.419C225.835 195.896 225.834 194.184 226.466 192.66C227.097 191.137 228.31 189.926 229.836 189.294L231.687 186.131L237.576 186.091L238.866 185.556L241.33 191.487Z" fill="#1E1F1E"/>
<path d="M267.66 97.3992L230.722 101.251L225.781 117.861L208.67 145.307L227.563 179.952L234.217 173.992L227.83 146.015L246.893 125.475L250.508 123.978L253.377 200.198L263.99 200.372L268.634 116.267C270.866 108.838 270.194 102.703 267.66 97.3992Z" fill="#1E1F1E"/>
<path d="M254.118 44.8168L248.055 38.0032L238.475 39.0656L232.341 47.6328C229.076 48.3819 226.223 50.3514 224.369 53.136C222.515 55.9206 221.801 59.3087 222.373 62.603C224.753 76.2821 232.842 89.5493 230.171 96.2986C226.117 106.544 225.869 110.722 235.574 109.286C245.279 107.85 277.793 104.538 271.489 98.2468C265.186 91.9552 263.801 81.4418 263.801 81.4418L263.548 57.3889C263.816 55.9382 263.781 54.4478 263.443 53.0116C263.106 51.5753 262.475 50.2242 261.589 49.0433C260.703 47.8625 259.582 46.8774 258.296 46.15C257.01 45.4226 255.588 44.9687 254.118 44.8168Z" fill="#E6E6E6"/>
<path d="M242.269 36.2595C248.143 36.2595 252.904 31.5074 252.904 25.6455C252.904 19.7835 248.143 15.0315 242.269 15.0315C236.396 15.0315 231.635 19.7835 231.635 25.6455C231.635 31.5074 236.396 36.2595 242.269 36.2595Z" fill="#FFB8B8"/>
<path d="M255.373 25.0154C254.898 27.166 254.041 29.2143 252.843 31.0636C252.525 31.6942 252.05 32.2326 251.464 32.6271C251.167 32.8173 250.812 32.8975 250.462 32.8538C250.112 32.8101 249.789 32.6453 249.548 32.388L249.289 32.1776C249.796 31.8656 250.249 31.4732 250.63 31.0158C250.819 30.7863 250.95 30.5151 251.012 30.2249C251.075 29.9347 251.067 29.6338 250.99 29.3472C250.898 29.0645 250.7 28.8284 250.437 28.6884C250.174 28.5485 249.868 28.5155 249.581 28.5965C248.958 28.8404 248.58 29.7392 247.929 29.6006C247.402 29.4858 247.291 28.7926 247.291 28.2475C247.311 25.3979 245.931 21.3483 244.863 21.4726C243.783 21.5315 242.703 21.3871 241.677 21.047C240.65 20.7064 239.566 20.5684 238.487 20.6406C238.41 20.6502 238.333 20.6646 238.252 20.6789C238.079 20.1375 237.841 19.6189 237.543 19.1346C237.577 19.7193 237.548 20.3059 237.457 20.8845C236.597 21.2379 235.71 21.5178 234.803 21.7212C233.816 21.8599 231.646 24.805 231.545 24.5038C231.372 23.9624 231.134 23.4439 230.836 22.9595C230.87 23.5442 230.841 24.1308 230.75 24.7094C230.745 24.7333 230.745 24.7525 230.741 24.7764C230.262 24.1404 229.969 23.3659 230.132 23.9588C228.527 20.3347 229.15 17.7385 231.675 14.6833C232.167 14.0264 232.818 13.5049 233.567 13.1676C233.942 13.0032 234.353 12.9379 234.761 12.9781C235.169 13.0183 235.559 13.1626 235.895 13.3971C236.925 12.4549 238.188 11.8047 239.554 11.5138C240.921 11.223 242.34 11.302 243.665 11.7428C246.295 12.6561 248.321 13.1916 248.724 15.9455C250.899 15.5965 253.136 16.83 254.333 18.6708C255.526 20.5163 255.77 22.8591 255.373 25.0154Z" fill="#2F2E41"/>
<path d="M246.749 113.174H243.219V86.0613H246.09C246.229 86.0613 246.362 86.1162 246.461 86.2141C246.559 86.312 246.615 86.4448 246.616 86.5836L246.749 113.174Z" fill="#3F3D56"/>
<path d="M243.549 113.318H205.646V94.0088H243.549V113.318Z" fill="#D4E3D6"/>
<path d="M228.61 113.246H205.718V94.0806H243.478V98.4069C243.473 102.341 241.905 106.113 239.118 108.895C236.331 111.677 232.552 113.242 228.61 113.246Z" fill="#267233"/>
<path d="M246.174 86.8314C246.155 86.8674 246.141 86.9054 246.13 86.9448L244.823 91.973L243.406 94.6528H205.79V93.9854L207.932 91.9731L210.43 87.2036C210.54 86.9931 210.685 86.8024 210.858 86.6396C211.254 86.2681 211.777 86.0613 212.32 86.0613H245.709C245.8 86.0613 245.889 86.0847 245.968 86.1292C246.047 86.1737 246.113 86.2378 246.16 86.3152C246.207 86.3927 246.233 86.481 246.235 86.5714C246.238 86.6619 246.217 86.7514 246.174 86.8314Z" fill="#455A64"/>
<path d="M243.549 113.318H205.646V94.0088H243.549V113.318ZM205.934 113.031H243.262V94.296H205.934V113.031Z" fill="#3F3D56"/>
<path d="M245.521 89.4033L244.823 91.9731H207.932L209.123 89.8342L245.521 89.4033Z" fill="#267233"/>
<path d="M213.086 104.127H207.044V104.461H213.086V104.127Z" fill="white"/>
<path d="M213.086 105.295H207.044V105.629H213.086V105.295Z" fill="white"/>
<path d="M213.086 106.463H207.044V106.797H213.086V106.463Z" fill="white"/>
<path d="M209.384 100.409C210.585 100.409 211.558 99.4382 211.558 98.2402C211.558 97.0422 210.585 96.071 209.384 96.071C208.184 96.071 207.211 97.0422 207.211 98.2402C207.211 99.4382 208.184 100.409 209.384 100.409Z" fill="white"/>
<path d="M261.495 70.7848L252.854 69.5496C249.932 74.4267 248.893 87.408 248.893 87.408L240.437 107.468C239.877 107.848 239.427 108.368 239.133 108.976C238.838 109.585 238.709 110.26 238.759 110.934C238.809 111.608 239.036 112.256 239.417 112.815C239.798 113.373 240.32 113.822 240.93 114.115C241.54 114.408 242.216 114.536 242.891 114.485C243.566 114.435 244.216 114.208 244.775 113.827C245.334 113.446 245.783 112.924 246.076 112.315C246.369 111.706 246.497 111.031 246.445 110.357L260.329 87.0078L261.495 70.7848Z" fill="#FFB8B8"/>
<path d="M256.812 46.8429C258.149 47.0496 259.425 47.548 260.547 48.3025C261.669 49.0571 262.612 50.0493 263.306 51.2085C264.001 52.3678 264.431 53.6656 264.566 55.0096C264.701 56.3536 264.537 57.7108 264.087 58.9845L262.253 64.1717C262.253 64.1717 264.563 79.7905 260.757 84.1993L249.076 83.144C249.076 83.144 251.212 75.2641 249.572 71.4515C248.568 69.1166 248.624 61.0522 249.613 54.492C250.369 49.4827 251.796 46.0676 256.812 46.8429Z" fill="#E6E6E6"/>
<path d="M183.441 21.0001C179.22 23.1015 176.007 26.7906 174.511 31.2559C173.014 35.7212 173.357 40.5969 175.462 44.8104C179.846 53.5845 195.69 68.5488 208.33 70.8098C202.893 54.3316 210.453 37.5822 207.297 28.9639C203.925 19.7549 192.232 16.6243 183.441 21.0001Z" fill="#267233"/>
<path d="M189.367 41.8681C192.571 41.8681 195.168 39.2759 195.168 36.0782C195.168 32.8806 192.571 30.2883 189.367 30.2883C186.163 30.2883 183.566 32.8806 183.566 36.0782C183.566 39.2759 186.163 41.8681 189.367 41.8681Z" fill="white"/>
<path d="M208.219 80.1031C210.317 80.1031 212.019 78.4052 212.019 76.3108C212.019 74.2164 210.317 72.5186 208.219 72.5186C206.121 72.5186 204.419 74.2164 204.419 76.3108C204.419 78.4052 206.121 80.1031 208.219 80.1031Z" fill="#267233"/>
<path opacity="0.2" d="M191.135 29.9918C191.897 29.9654 192.656 30.089 193.37 30.3557C194.084 30.6224 194.738 31.0269 195.295 31.5461C195.852 32.0652 196.301 32.6889 196.617 33.3814C196.932 34.0739 197.108 34.8217 197.134 35.582C197.16 36.3423 197.035 37.1002 196.767 37.8124C196.499 38.5246 196.094 39.1772 195.573 39.7328C195.052 40.2884 194.427 40.7362 193.733 41.0505C193.039 41.3648 192.29 41.5396 191.528 41.5647C192.819 41.0854 193.897 40.1633 194.569 38.9632C195.241 37.7632 195.463 36.3636 195.196 35.015C194.928 33.6663 194.189 32.4567 193.109 31.6026C192.03 30.7484 190.682 30.3056 189.305 30.3532C189.891 30.135 190.509 30.0129 191.135 29.9918Z" fill="#231F20"/>
<path opacity="0.2" d="M207.326 28.9672C210.483 37.5855 202.922 54.3349 208.36 70.8131C207.166 70.5939 205.991 70.2868 204.843 69.8945C200.413 53.9652 207.366 38.048 204.317 29.7212C201.588 22.2685 193.41 18.7976 185.73 20.0638C194.159 17.1947 204.236 20.5281 207.326 28.9672Z" fill="#231F20"/>
<path d="M29.2531 108.927C24.8831 108.822 20.6504 110.455 17.4862 113.465C14.3219 116.475 12.4853 120.616 12.3804 124.978C12.1619 134.06 18.6411 153.169 28.0126 160.488C30.7134 144.64 44.1776 134.191 45.3345 125.767C46.5706 116.766 38.3531 109.145 29.2531 108.927Z" fill="#267233"/>
<path d="M27.5601 129.204C30.5288 129.204 32.9353 126.802 32.9353 123.839C32.9353 120.876 30.5288 118.474 27.5601 118.474C24.5914 118.474 22.1848 120.876 22.1848 123.839C22.1848 126.802 24.5914 129.204 27.5601 129.204Z" fill="white"/>
<path d="M25.5331 168.459C27.4776 168.459 29.0538 166.886 29.0538 164.945C29.0538 163.004 27.4776 161.431 25.5331 161.431C23.5887 161.431 22.0125 163.004 22.0125 164.945C22.0125 166.886 23.5887 168.459 25.5331 168.459Z" fill="#267233"/>
<path opacity="0.2" d="M31.6507 119.619C32.9326 120.241 33.9144 121.347 34.3799 122.691C34.8454 124.036 34.7565 125.511 34.1329 126.79C33.8241 127.424 33.3934 127.99 32.8652 128.458C32.337 128.925 31.7217 129.284 31.0546 129.514C29.7071 129.979 28.2299 129.89 26.948 129.268C28.2135 129.433 29.4968 129.144 30.5682 128.452C31.6396 127.76 32.4293 126.71 32.7958 125.489C33.1623 124.269 33.0818 122.959 32.5686 121.792C32.0554 120.626 31.1431 119.68 29.9949 119.124C30.57 119.198 31.1292 119.366 31.6507 119.619Z" fill="#231F20"/>
<path opacity="0.2" d="M45.357 125.783C44.2002 134.207 30.736 144.655 28.0352 160.503C27.1532 159.807 26.3239 159.048 25.5542 158.23C28.8416 143.267 41.4472 133.238 42.565 125.099C43.5654 117.815 38.3739 111.435 31.5341 109.15C39.6832 110.446 46.4899 117.534 45.357 125.783Z" fill="#231F20"/>
<path d="M91.7826 39.0245C90.5545 39.1047 89.4061 39.66 88.5819 40.5724C87.7577 41.4848 87.3228 42.6821 87.3696 43.9097C87.3831 44.1591 87.4172 44.4069 87.4716 44.6506L73.5247 53.4203L81.2353 56.8239L93.2974 47.9743C94.2926 47.6708 95.1592 47.0471 95.7619 46.2003C96.3645 45.3536 96.6694 44.3316 96.6289 43.2937C96.6002 42.7034 96.4553 42.1245 96.2024 41.5901C95.9495 41.0557 95.5936 40.5762 95.1551 40.179C94.7166 39.7819 94.2039 39.4748 93.6465 39.2754C93.0891 39.076 92.4977 38.9881 91.9063 39.0168C91.865 39.0188 91.8238 39.0213 91.7826 39.0245Z" fill="#FFB6B6"/>
<path d="M78.3336 49.4344L81.7902 56.5526L68.1232 65.3305C67.1507 65.9605 66.033 66.3318 64.8763 66.4091C63.7195 66.4865 62.5622 66.2673 61.5142 65.7724C60.2401 65.1637 59.1988 64.1582 58.5471 62.9074C57.8955 61.6566 57.6689 60.2283 57.9014 58.8377L62.336 33.5687C62.6338 31.8004 63.5991 30.2132 65.0334 29.1335C66.4678 28.0538 68.2621 27.5638 70.0474 27.7641C70.917 27.859 71.7594 28.124 72.5263 28.5438C73.2933 28.9636 73.97 29.5301 74.5176 30.2109C75.0653 30.8917 75.4732 31.6735 75.7181 32.5116C75.9631 33.3498 76.0402 34.2279 75.9451 35.0958C75.9376 35.1644 75.929 35.2328 75.9194 35.3011C75.8858 35.5439 75.8392 35.7848 75.7797 36.0226L70.9384 53.9934L78.3336 49.4344Z" fill="#267233"/>
<path d="M79.3049 60.4692H59.7595V79.9771H79.3049V60.4692Z" fill="#FFB8B8"/>
<path d="M125.657 117.921L133.121 115.415L137.278 135.694L132.22 137.392L125.657 117.921Z" fill="#FFB6B6"/>
<path d="M113.005 116.363L120.41 113.684L125.038 133.861L120.021 135.676L113.005 116.363Z" fill="#FFB6B6"/>
<path d="M60.4605 85.0736C56.543 111.14 108.711 95.7291 108.711 95.7291L125.068 118.25L134.644 116.512C134.644 116.512 130.336 102.992 122.64 84.8681C119.223 76.8192 80.4185 78.7859 80.4185 78.7859L79.6127 72.4747L57.4136 72.0403L60.4605 85.0736Z" fill="#1E1F1E"/>
<path d="M98.1443 97.4765L110.208 89.9778C119.039 107.579 121.642 115.201 121.642 115.201L113.293 117.545L98.1443 97.4765Z" fill="#1E1F1E"/>
<path d="M71.6265 28.7688L67.6924 23.7216L62.0805 23.4788L61.5204 28.2257L58.7397 29.5055C55.9632 40.0335 55.5344 51.0413 57.4835 61.7526C57.8562 62.1029 58.1285 62.546 58.2723 63.0362C58.4162 63.5265 58.4264 64.0462 58.3018 64.5417L58.1216 65.2591L58.1382 65.2853C58.7299 66.2172 58.9307 67.3439 58.6971 68.4222L57.3692 70.7773C56.8927 71.6242 56.6067 72.5646 56.5311 73.533C56.4556 74.5014 56.5923 75.4746 56.9317 76.385C57.2712 77.2953 57.8052 78.121 58.4968 78.8044C59.1883 79.4879 60.0207 80.0129 60.936 80.3428C69.0987 83.2958 76.7506 84.3958 82.4114 76.1091L84.1914 47.2316L71.6265 28.7688Z" fill="#267233"/>
<path d="M67.5052 25.0621C73.2357 25.0621 77.8812 20.4255 77.8812 14.706C77.8812 8.98645 73.2357 4.34985 67.5052 4.34985C61.7747 4.34985 57.1292 8.98645 57.1292 14.706C57.1292 20.4255 61.7747 25.0621 67.5052 25.0621Z" fill="#FFB8B8"/>
<path d="M62.2963 2.22179C57.9029 2.30603 54.4184 6.37337 54.5134 11.3064C51.2622 14.6923 50.4746 31.3462 53.1912 35.7766C58.1606 36.3524 61.1833 24.0815 65.5413 25.8554L66.1155 23.1774L67.4169 26.6648C68.5244 27.1744 69.6236 27.7337 70.7144 28.3429C71.4983 24.7542 71.304 21.2659 69.197 18.2275C67.3253 15.5282 71.8803 12.3236 75.1379 12.7765L75.0902 10.2974L75.9085 12.7617C77.1783 13.6931 78.583 13.3559 80.0234 12.6828C82.3591 0.566526 64.2751 -2.7469 62.2963 2.22179Z" fill="#2F2E41"/>
<path d="M129.921 140.823L133.247 140.389L133.43 137.178L135.361 140.113L144.181 138.963C144.604 138.908 144.998 138.72 145.306 138.425C145.614 138.131 145.819 137.746 145.892 137.327C145.965 136.907 145.902 136.476 145.712 136.095C145.522 135.714 145.215 135.403 144.836 135.209L137.156 131.272L136.742 128.104L129.391 129.511L129.921 140.823Z" fill="#1E1F1E"/>
<path d="M121.137 140.852L124.154 139.389L123.309 136.285L126.072 138.46L134.074 134.582C134.457 134.396 134.771 134.092 134.97 133.716C135.169 133.339 135.241 132.909 135.178 132.488C135.114 132.068 134.917 131.678 134.616 131.377C134.315 131.075 133.925 130.878 133.504 130.814L124.971 129.506L123.572 126.632L117.046 130.289L121.137 140.852Z" fill="#1E1F1E"/>
<path d="M75.5911 71.7921H79.2907V43.373H76.2819C76.1361 43.373 75.9963 43.4306 75.893 43.5332C75.7897 43.6358 75.7313 43.7751 75.7306 43.9205L75.5911 71.7921Z" fill="#32424A"/>
<path d="M78.9451 51.7034H118.674V71.9426H78.9451V51.7034Z" fill="white"/>
<path d="M79.0205 56.3133V51.7786H118.599V71.8673H94.6044C90.4727 71.8626 86.5116 70.2224 83.5901 67.3065C80.6686 64.3905 79.0252 60.437 79.0205 56.3133Z" fill="#F2F2F2"/>
<path d="M76.1937 44.1803C76.2137 44.218 76.2292 44.2579 76.2399 44.2991L77.6099 49.5696L79.0958 52.3784H118.523V51.6789L116.279 49.5696L113.66 44.5704C113.545 44.3497 113.393 44.1499 113.211 43.9793C112.796 43.5899 112.249 43.373 111.679 43.373H76.6811C76.5861 43.373 76.4927 43.3976 76.41 43.4442C76.3273 43.4908 76.258 43.558 76.209 43.6393C76.16 43.7205 76.1328 43.813 76.1301 43.9078C76.1274 44.0026 76.1493 44.0964 76.1937 44.1803Z" fill="#67808C"/>
<path d="M78.9451 51.7034H118.674V71.9426H78.9451V51.7034ZM118.373 71.6416H79.2467V52.0044H118.373L118.373 71.6416Z" fill="#455A64"/>
<path d="M76.8779 46.8762L77.61 49.5696H116.279L115.029 47.3279L76.8779 46.8762Z" fill="#CDD1CD"/>
<path d="M117.209 62.3091H110.876V62.6589H117.209V62.3091Z" fill="white"/>
<path d="M117.209 63.5332H110.876V63.883H117.209V63.5332Z" fill="white"/>
<path d="M117.209 64.7576H110.876V65.1074H117.209V64.7576Z" fill="white"/>
<path d="M114.756 58.4126C116.014 58.4126 117.034 57.3946 117.034 56.1389C117.034 54.8832 116.014 53.8652 114.756 53.8652C113.498 53.8652 112.478 54.8832 112.478 56.1389C112.478 57.3946 113.498 58.4126 114.756 58.4126Z" fill="white"/>
<path d="M96.3791 21.7842C99.0568 21.72 101.65 22.7201 103.589 24.5645C105.528 26.4089 106.653 28.9465 106.718 31.619C106.852 37.1843 102.882 48.8929 97.1391 53.3776C95.4842 43.6668 87.2341 37.2645 86.5253 32.103C85.7679 26.5876 90.8031 21.9178 96.3791 21.7842Z" fill="#267233"/>
<path d="M97.4165 34.2087C99.2355 34.2087 100.71 32.7369 100.71 30.9214C100.71 29.1058 99.2355 27.634 97.4165 27.634C95.5974 27.634 94.1228 29.1058 94.1228 30.9214C94.1228 32.7369 95.5974 34.2087 97.4165 34.2087Z" fill="white"/>
<path d="M98.6585 58.2618C99.8499 58.2618 100.816 57.2979 100.816 56.1087C100.816 54.9196 99.8499 53.9556 98.6585 53.9556C97.4671 53.9556 96.5012 54.9196 96.5012 56.1087C96.5012 57.2979 97.4671 58.2618 98.6585 58.2618Z" fill="#267233"/>
<path opacity="0.2" d="M94.91 28.3355C94.521 28.5244 94.1731 28.7878 93.8862 29.1109C93.5993 29.4339 93.3789 29.8102 93.2377 30.2182C93.0964 30.6262 93.0371 31.058 93.0631 31.4889C93.089 31.9198 93.1998 32.3414 93.389 32.7296C93.5782 33.1178 93.8421 33.465 94.1658 33.7514C94.4894 34.0378 94.8664 34.2577 95.2752 34.3987C95.6841 34.5397 96.1167 34.5989 96.5484 34.573C96.9802 34.5471 97.4026 34.4365 97.7915 34.2477C97.0161 34.3493 96.2298 34.1722 95.5732 33.748C94.9167 33.3239 94.4329 32.6803 94.2083 31.9327C93.9837 31.185 94.0331 30.3819 94.3475 29.6672C94.662 28.9526 95.221 28.3729 95.9245 28.032C95.5721 28.0779 95.2295 28.1804 94.91 28.3355Z" fill="#231F20"/>
<path opacity="0.2" d="M86.5116 32.1123C87.2205 37.2739 95.4706 43.6762 97.1255 53.3869C97.6659 52.9607 98.174 52.4951 98.6457 51.9941C96.6313 42.8257 88.9073 36.6802 88.2224 31.6932C87.6094 27.2297 90.7905 23.3204 94.9816 21.9207C89.9882 22.7145 85.8175 27.0581 86.5116 32.1123Z" fill="#231F20"/>
<path d="M90.5117 49.1201C89.2842 49.0293 88.0697 49.4202 87.1266 50.2096C86.1835 50.9989 85.5863 52.1244 85.4619 53.3466C85.4405 53.5954 85.4399 53.8455 85.4598 54.0945L70.4282 60.8468L77.5908 65.2859L90.767 58.1932C91.7948 58.0305 92.7397 57.5328 93.4543 56.7778C94.1689 56.0228 94.613 55.0529 94.7172 54.0195C94.8256 52.8308 94.4564 51.6478 93.6909 50.7307C92.9253 49.8137 91.8262 49.2377 90.6352 49.1296C90.594 49.1258 90.5529 49.1227 90.5117 49.1201Z" fill="#FFB6B6"/>
<path d="M75.745 57.5659L78.1781 65.0941L63.4225 71.8935C62.3719 72.3826 61.2133 72.5954 60.057 72.5118C58.9007 72.4281 57.7851 72.0507 56.8161 71.4154C55.639 70.6361 54.7476 69.4961 54.2763 68.1671C53.8049 66.8381 53.7791 65.3922 54.2028 64.0473L62.109 39.6374C62.6498 37.9274 63.8265 36.4893 65.3972 35.6188C66.9678 34.7483 68.8129 34.5116 70.5531 34.9574C71.401 35.1719 72.1984 35.5509 72.8995 36.0729C73.6007 36.595 74.192 37.2497 74.6397 37.9998C75.0873 38.7499 75.3826 39.5806 75.5086 40.4446C75.6345 41.3086 75.5888 42.1889 75.3739 43.0352C75.3569 43.1021 75.3389 43.1687 75.3199 43.235C75.2529 43.4708 75.1732 43.7028 75.0812 43.9301L67.7874 61.0562L75.745 57.5659Z" fill="#267233"/>
</g>
<defs>
<clipPath id="clip0_668_89">
<rect width="280" height="218" fill="white"/>
</clipPath>
</defs>
</svg>
