<svg width="362" height="175" viewBox="0 0 362 175" fill="none" xmlns="http://www.w3.org/2000/svg">
<g clip-path="url(#clip0_672_1268)">
<path d="M294.634 75.2141V42.6484C294.634 39.4013 297.278 36.7598 300.529 36.7598H321.854C325.104 36.7598 327.748 39.4013 327.748 42.6484V75.2141C327.748 78.4612 325.104 81.1027 321.854 81.1027H300.529C297.278 81.1027 294.634 78.4612 294.634 75.2141Z" fill="#455A64"/>
<path d="M305.555 50.8369H316.828V48.0215H305.555V50.8369Z" fill="#2C373D"/>
<path d="M308.373 45.9099H314.01V36.7598H308.373V45.9099Z" fill="#2C373D"/>
<path d="M308.373 81.1028H314.01V71.9527H308.373V81.1028Z" fill="#3F3D56"/>
<path d="M279.486 76.5302H246.887C243.637 76.5302 240.993 73.8887 240.993 70.6416V49.3376C240.993 46.0905 243.637 43.449 246.887 43.449H279.486C282.736 43.449 285.38 46.0905 285.38 49.3376V70.6416C285.38 73.8887 282.736 76.5302 279.486 76.5302Z" fill="#455A64"/>
<path d="M269.528 48.0239H258.255V50.8394H269.528V48.0239Z" fill="#2C373D"/>
<path d="M250.152 62.8049V57.1741H240.993V62.8049H250.152Z" fill="#2C373D"/>
<path d="M285.38 62.8049V57.1741H276.221V62.8049H285.38Z" fill="#2C373D"/>
<path d="M15.0551 137.427L9.61311 105.714C7.19496 91.622 17.6352 78.5819 31.9277 77.8424L109.508 73.8283L128.023 43.3426C130.478 39.3011 134.867 36.833 139.599 36.833H195.342C199.724 36.833 203.426 40.0791 203.995 44.4194L205.41 68.8127L344.385 69.2283L361.868 126.786L345.64 125.996L346.472 143.454L325.252 144.286L318.178 124.303C316.846 120.54 311.009 116.298 304.942 112.748C291.341 104.791 273.867 107.345 263.574 119.27C261.146 122.083 259.449 125.014 258.975 127.763L255.764 146.364L100.146 143.87L79.7505 115.368C73.7249 108.818 45.2801 106.412 42.7184 115.368L27.3298 138.05L15.0551 137.427Z" fill="#267233"/>
<path d="M184.195 55.3833L188.773 76.946L130.521 78.1931L142.824 51.8037C143.94 49.4098 146.39 47.9235 149.031 48.0382L176.945 49.2506C180.479 49.4041 183.461 51.9267 184.195 55.3833Z" fill="#D4E3D6"/>
<path d="M122.615 76.5304L134.266 46.6017L131.215 43.5544L112.213 72.3736L116.074 78.1931L122.615 76.5304Z" fill="#D4E3D6"/>
<path d="M289.468 173.799C304.635 173.799 316.93 161.516 316.93 146.364C316.93 131.212 304.635 118.929 289.468 118.929C274.301 118.929 262.006 131.212 262.006 146.364C262.006 161.516 274.301 173.799 289.468 173.799Z" fill="#3F3D56"/>
<path d="M270.536 146.364C270.536 135.935 279.029 127.451 289.468 127.451C299.907 127.451 308.4 135.935 308.4 146.364C308.4 156.793 299.907 165.277 289.468 165.277C279.029 165.277 270.536 156.793 270.536 146.364ZM270.952 146.364C270.952 156.563 279.258 164.862 289.468 164.862C299.678 164.862 307.984 156.563 307.984 146.364C307.984 136.164 299.678 127.866 289.468 127.866C279.258 127.866 270.952 136.164 270.952 146.364Z" fill="white"/>
<path d="M273.24 146.364C273.24 155.317 280.506 162.575 289.468 162.575C298.43 162.575 305.695 155.317 305.695 146.364C305.695 137.411 298.43 130.153 289.468 130.153C280.506 130.153 273.24 137.411 273.24 146.364ZM300.016 142.482L297.141 144.354L296.036 142.661L300.016 142.482ZM295.639 152.003L296.405 150.132L298.816 153.3L295.639 152.003ZM288.277 158.419L290.3 154.99V158.419H288.277ZM288.277 138.569L290.3 135.141V138.569H288.277ZM279.288 153.3L281.699 150.132L282.464 152.003L279.288 153.3ZM278.087 142.482L282.067 142.661L280.962 144.354L278.087 142.482Z" fill="#E6E6E6"/>
<path d="M58.9528 173.799C74.1197 173.799 86.4149 161.516 86.4149 146.364C86.4149 131.212 74.1197 118.929 58.9528 118.929C43.7859 118.929 31.4907 131.212 31.4907 146.364C31.4907 161.516 43.7859 173.799 58.9528 173.799Z" fill="#3F3D56"/>
<path d="M40.0205 146.364C40.0205 135.935 48.5134 127.451 58.9527 127.451C69.392 127.451 77.8849 135.935 77.8849 146.364C77.8849 156.793 69.392 165.277 58.9527 165.277C48.5134 165.277 40.0205 156.793 40.0205 146.364ZM40.4366 146.364C40.4366 156.563 48.7428 164.862 58.9527 164.862C69.1626 164.862 77.4688 156.563 77.4688 146.364C77.4688 136.164 69.1626 127.866 58.9527 127.866C48.7428 127.866 40.4366 136.164 40.4366 146.364Z" fill="white"/>
<path d="M42.7251 146.364C42.7251 155.317 49.9904 162.575 58.9527 162.575C67.9149 162.575 75.1803 155.317 75.1803 146.364C75.1803 137.411 67.9149 130.153 58.9527 130.153C49.9904 130.153 42.7251 137.411 42.7251 146.364ZM69.5012 142.482L66.626 144.354L65.5213 142.661L69.5012 142.482ZM65.124 152.003L65.8897 150.132L68.3006 153.3L65.124 152.003ZM57.7617 158.419L59.7849 154.99V158.419H57.7617ZM57.7617 138.569L59.7849 135.141V138.569H57.7617ZM48.7726 153.3L51.1835 150.132L51.9492 152.003L48.7726 153.3ZM47.572 142.482L51.5519 142.661L50.4472 144.354L47.572 142.482Z" fill="#E6E6E6"/>
<path d="M173.586 87.9614H189.398V84.636H173.586V87.9614Z" fill="#3F3D56"/>
<path d="M-20.3884 173.953C-20.3884 174.227 -20.0034 174.447 -19.524 174.447H393.144C393.623 174.447 394.008 174.227 394.008 173.953C394.008 173.678 393.623 173.458 393.144 173.458H-19.524C-20.0034 173.458 -20.3884 173.678 -20.3884 173.953Z" fill="#CCCCCC"/>
<path d="M189.297 170.829L195.075 170.829L197.823 148.567L189.296 148.567L189.297 170.829Z" fill="#FFB6B6"/>
<path d="M209.091 170.698C209.271 171.001 209.366 171.978 209.366 172.33C209.366 173.412 208.488 174.289 207.405 174.289L189.513 174.289C188.775 174.289 188.176 173.691 188.176 172.952V172.208C188.176 172.208 187.291 169.972 189.113 167.215C189.113 167.215 191.378 169.374 194.762 165.993L195.76 164.187L202.983 169.465L206.988 169.957C207.864 170.065 208.64 169.94 209.091 170.698Z" fill="#2F2E41"/>
<path d="M163.34 170.829L169.118 170.829L171.866 148.567L163.339 148.567L163.34 170.829Z" fill="#FFB6B6"/>
<path d="M183.134 170.698C183.314 171.001 183.409 171.978 183.409 172.33C183.409 173.412 182.531 174.289 181.448 174.289L163.556 174.289C162.817 174.289 162.219 173.691 162.219 172.952V172.208C162.219 172.208 161.333 169.972 163.156 167.215C163.156 167.215 165.42 169.374 168.805 165.993L169.803 164.187L177.026 169.465L181.031 169.957C181.907 170.065 182.683 169.94 183.134 170.698Z" fill="#2F2E41"/>
<path d="M188.382 18.8201L189.479 29.0464L176.683 27.9507L178.877 18.4548L188.382 18.8201Z" fill="#FFB6B6"/>
<path opacity="0.1" d="M188.382 18.8201L189.479 29.0464L176.683 27.9507L178.877 18.4548L188.382 18.8201Z" fill="black"/>
<path d="M183.812 20.0982C188.456 20.0982 192.221 16.3373 192.221 11.698C192.221 7.05874 188.456 3.29785 183.812 3.29785C179.168 3.29785 175.404 7.05874 175.404 11.698C175.404 16.3373 179.168 20.0982 183.812 20.0982Z" fill="#FFB6B6"/>
<path d="M189.296 24.8462L203.371 33.0637L201.066 44.2031L198.76 55.3425L201.909 85.291L199.716 158.701L186.189 157.24L184.361 94.7868L173.759 159.432H160.623L162.791 89.6737L169.372 60.0904L165.35 27.9506L177.597 24.1157L189.296 24.8462Z" fill="#1E1F1E"/>
<path d="M189.845 14.0721C189.845 14.0721 190.576 11.5155 192.221 11.6981C193.866 11.8807 194.232 10.4198 193.866 9.68936C193.5 8.95892 192.769 5.30666 192.769 5.30666C192.769 5.30666 193.135 2.75008 190.941 2.38486C188.748 2.01963 188.017 1.6544 187.651 0.923956C187.285 0.193503 181.802 -0.536945 179.974 0.558729C178.146 1.6544 176.683 3.75661 175.404 4.34902C174.124 4.94144 173.027 6.03711 173.759 7.86324C174.49 9.68936 175.55 13.2609 175.55 13.2609C175.55 13.2609 177.415 12.6112 177.78 13.7068C178.146 14.8025 176.683 13.3416 178.511 10.4198C180.339 7.49802 180.339 4.57621 183.264 5.67189C186.189 6.76756 189.479 6.40234 189.113 8.59369C188.748 10.785 189.845 14.0721 189.845 14.0721Z" fill="#2F2E41"/>
<path d="M196.113 78.7393C194.353 80.6007 193.888 83.0165 195.074 84.1351C196.26 85.2537 198.648 84.6514 200.408 82.7891C201.121 82.0548 201.648 81.1606 201.944 80.1812L209.301 72.2004L205.478 68.8315L198.632 77.0569C197.67 77.4086 196.806 77.9855 196.113 78.7393Z" fill="#FFB6B6"/>
<path d="M203.223 32.8811L215.611 53.9656L217.447 63.5911L205.517 78.7169L200.47 72.2999L206.435 63.5911L196.8 46.6318L203.223 32.8811Z" fill="#1E1F1E"/>
<path d="M168.393 76.776V51.9163C168.393 48.1273 171.479 45.0449 175.271 45.0449H213.31C217.103 45.0449 220.189 48.1273 220.189 51.9163V76.776C220.189 80.5651 217.103 83.6475 213.31 83.6475H175.271C171.479 83.6475 168.393 80.5651 168.393 76.776Z" fill="#455A64"/>
<path d="M186.891 60.7354H200.046V57.45H186.891V60.7354Z" fill="#2C373D"/>
<path d="M198.968 83.4273V76.8567H188.28V83.4273H198.968Z" fill="#2C373D"/>
<path d="M199.469 51.8358V45.2651H188.782V51.8358H199.469Z" fill="#2C373D"/>
<path d="M172.243 73.9915C174.002 75.8529 174.467 78.2687 173.281 79.3873C172.095 80.5059 169.708 79.9036 167.948 78.0413C167.235 77.307 166.708 76.4128 166.411 75.4334L159.055 67.4526L162.877 64.0837L169.724 72.3091C170.686 72.6608 171.55 73.2377 172.243 73.9915Z" fill="#FFB6B6"/>
<path d="M165.132 28.1333L152.744 49.2178L150.909 58.8433L162.838 73.9691L167.885 67.5521L161.921 58.8433L171.556 41.884L165.132 28.1333Z" fill="#1E1F1E"/>
<path d="M11.0953 128.67C17.3 128.67 22.3298 124.297 22.3298 118.902C22.3298 113.507 17.3 109.134 11.0953 109.134C4.89069 109.134 -0.13916 113.507 -0.13916 118.902C-0.13916 124.297 4.89069 128.67 11.0953 128.67Z" fill="#E6E6E6"/>
</g>
<defs>
<clipPath id="clip0_672_1268">
<rect width="362" height="175" fill="white"/>
</clipPath>
</defs>
</svg>
