<svg width="173" height="218" viewBox="0 0 173 218" fill="none" xmlns="http://www.w3.org/2000/svg">
<g clip-path="url(#clip0_672_1149)">
<path d="M185.827 205.478C184.611 205.906 183.306 206.013 182.037 205.789C180.768 205.565 179.578 205.018 178.582 204.2C176.044 202.067 175.248 198.552 174.601 195.298L172.687 185.673L176.695 188.438C179.578 190.426 182.525 192.478 184.522 195.357C186.518 198.237 187.389 202.168 185.785 205.284" fill="#E6E6E6"/>
<path d="M170.956 167.968H3.25183V0H170.956V167.968Z" fill="#282928"/>
<path d="M170.956 167.968H3.25183V0H170.956V167.968ZM5.72962 165.486H168.478V2.48171H5.72962V165.486Z" fill="#282928"/>
<path d="M141.247 26.2786H68.6238V28.5444H141.247V26.2786Z" fill="#CDD1CD"/>
<path d="M141.247 32.1697H68.6238V34.4355H141.247V32.1697Z" fill="#CDD1CD"/>
<path d="M141.247 38.0608H68.6238V40.3266H141.247V38.0608Z" fill="#CDD1CD"/>
<path d="M141.247 76.864H68.6238V79.1298H141.247V76.864Z" fill="#CDD1CD"/>
<path d="M141.247 82.7551H68.6238V85.0209H141.247V82.7551Z" fill="#CDD1CD"/>
<path d="M141.247 88.646H68.6238V90.9118H141.247V88.646Z" fill="#CDD1CD"/>
<path d="M141.247 127.449H68.6238V129.715H141.247V127.449Z" fill="#CDD1CD"/>
<path d="M141.247 133.34H68.6238V135.606H141.247V133.34Z" fill="#CDD1CD"/>
<path d="M141.247 139.231H68.6238V141.497H141.247V139.231Z" fill="#CDD1CD"/>
<path d="M39.5511 44.3313C38.3104 43.6765 37.0154 43.1307 35.6806 42.7L35.5104 40.8142L28.6077 40.0693L27.7304 42.4797L25.2532 43.4107C25.1646 43.4444 25.0802 43.4884 25.0018 43.5419H24.9992C24.8609 43.6355 24.7432 43.7563 24.6531 43.897C24.5631 44.0377 24.5026 44.1953 24.4754 44.3602C24.449 44.5241 24.4552 44.6917 24.4938 44.8532L24.6248 45.3909C24.8133 45.5037 25.0071 45.6112 25.2008 45.7135L25.3239 45.7765C25.6068 45.9233 25.8948 46.0623 26.1907 46.1909C26.2509 46.2171 26.3164 46.2433 26.3766 46.2695C26.3819 46.2722 26.3844 46.2722 26.3897 46.2748C26.5285 46.3325 26.6673 46.3876 26.8087 46.44C27.2732 46.6177 27.747 46.7701 28.228 46.8964C29.4555 47.2241 30.7206 47.3898 31.991 47.3895C32.4545 47.3895 32.9128 47.3685 33.3658 47.3239C34.4009 47.2282 35.4228 47.0216 36.4139 46.7076C36.4165 46.7076 36.4192 46.7049 36.4217 46.7049C37.0478 46.5051 37.6594 46.2624 38.2522 45.9784C38.2548 45.9758 38.26 45.9758 38.2627 45.9732C38.3962 45.9102 38.5246 45.842 38.6555 45.7765L38.7183 45.745C38.823 45.6899 38.9278 45.6348 39.0326 45.5771C39.2944 45.4329 39.5511 45.2808 39.805 45.1181C39.8757 45.0762 39.9438 45.0316 40.0146 44.9844C40.114 44.9188 40.2135 44.8506 40.3104 44.7798C40.0669 44.6224 39.8129 44.473 39.5511 44.3313Z" fill="#3F3D56"/>
<path d="M26.5964 45.493L26.1644 43.5391H25.0357C25.0244 43.5392 25.013 43.5401 25.0017 43.5417H24.999C24.5934 43.5761 24.2028 43.7113 23.8626 43.9351C23.6318 44.0826 23.4267 44.2669 23.2551 44.4806C23.5903 44.735 23.9386 44.9711 24.2973 45.1966L24.3131 45.2045C24.4151 45.2675 24.5199 45.3304 24.6247 45.3907C24.8132 45.5035 25.007 45.611 25.2007 45.7133L25.3238 45.7763C25.6067 45.9232 25.8947 46.0621 26.1906 46.1907C26.2508 46.2169 26.3163 46.2431 26.3765 46.2693C26.3818 46.272 26.3843 46.272 26.3896 46.2746C26.5284 46.3323 26.6672 46.3874 26.8086 46.4398L26.5964 45.493Z" fill="#3F3D56"/>
<path d="M31.7882 38.8771C34.5338 38.8771 36.7596 36.6479 36.7596 33.8979C36.7596 31.148 34.5338 28.9187 31.7882 28.9187C29.0425 28.9187 26.8168 31.148 26.8168 33.8979C26.8168 36.6479 29.0425 38.8771 31.7882 38.8771Z" fill="#FFB8B8"/>
<path d="M28.4504 31.4725C28.965 32.0825 29.8359 32.2546 30.6393 32.3252C32.5177 32.4291 34.4013 32.275 36.238 31.8673C36.3518 32.972 36.0415 34.1632 36.6912 35.072C36.9957 33.9718 37.1728 32.8401 37.2189 31.6993C37.2674 31.2099 37.2036 30.7158 37.0324 30.2549C36.9408 30.0238 36.7864 29.8232 36.5866 29.6757C36.3869 29.5282 36.1499 29.4398 35.9024 29.4205C36.2728 29.1391 36.7067 28.9533 37.1657 28.8796L35.5871 28.0851L35.9925 27.6683L33.1347 27.4931L33.9624 26.9664C32.7166 26.795 31.4563 26.7551 30.2021 26.8475C29.6161 26.8478 29.0411 27.0079 28.539 27.3106C28.0672 27.6485 27.7945 28.3202 28.0874 28.8164C27.7207 28.8767 27.3754 29.0298 27.0843 29.2612C26.7931 29.4925 26.5658 29.7945 26.4238 30.1385C26.2442 30.6853 26.2009 31.2677 26.2975 31.8351C26.4052 32.7454 26.6164 33.6405 26.9271 34.5027L28.4504 31.4725Z" fill="#2F2E41"/>
<path d="M45.7676 28.5002C45.0701 26.4933 43.9438 24.6628 42.4674 23.1366C40.9911 21.6103 39.2 20.425 37.2193 19.6633C35.2385 18.9016 33.1157 18.5817 30.9988 18.7262C28.8819 18.8706 26.822 19.4757 24.9627 20.4994C23.1033 21.5231 21.4893 22.9407 20.2332 24.6534C18.977 26.366 18.109 28.3325 17.6896 30.4157C17.2703 32.4989 17.3097 34.6486 17.805 36.715C18.3004 38.7813 19.2399 40.7146 20.5579 42.3799C20.6888 42.5452 20.825 42.7104 20.9638 42.8704C20.9743 42.8809 20.9821 42.8914 20.9926 42.9019C21.3339 43.2958 21.6967 43.6705 22.0793 44.0244C22.1789 44.1162 22.2836 44.2106 22.3883 44.2998C22.5873 44.4782 22.7916 44.6486 23.0038 44.8112C23.0875 44.8768 23.1687 44.9424 23.2551 45.0053C23.5903 45.2597 23.9386 45.4958 24.2974 45.7213L24.3131 45.7292C24.4151 45.7922 24.52 45.8551 24.6247 45.9154C24.8132 46.0282 25.007 46.1357 25.2007 46.238L25.3239 46.301C25.6067 46.4479 25.8948 46.5869 26.1906 46.7154C26.2509 46.7416 26.3163 46.7678 26.3766 46.7941C26.3818 46.7967 26.3844 46.7967 26.3896 46.7993C26.5285 46.857 26.6672 46.9121 26.8086 46.9646C27.2731 47.1422 27.7469 47.2946 28.2279 47.4209C29.4555 47.7486 30.7205 47.9144 31.9909 47.914C32.4544 47.914 32.9127 47.893 33.3657 47.8484C34.4008 47.7527 35.4227 47.5461 36.4138 47.2321C36.4164 47.2321 36.4191 47.2294 36.4217 47.2294C37.0478 47.0297 37.6594 46.7869 38.2522 46.5029C38.2547 46.5003 38.2599 46.5003 38.2626 46.4977C38.3961 46.4347 38.5245 46.3666 38.6554 46.301L38.7182 46.2695C38.8229 46.2144 38.9278 46.1593 39.0325 46.1017C39.2944 45.9574 39.551 45.8053 39.8049 45.6427C39.8756 45.6007 39.9438 45.5561 40.0145 45.5089C40.114 45.4433 40.2134 45.3751 40.3104 45.3043C40.4386 45.2152 40.567 45.1233 40.6927 45.0289C40.7319 45.0001 40.7739 44.9712 40.8131 44.9398C43.2665 43.0747 45.0672 40.4795 45.9572 37.5263C46.8473 34.573 46.7809 31.4134 45.7676 28.5002ZM40.3313 44.3024C40.2449 44.3706 40.1559 44.4362 40.0668 44.4965C39.9804 44.5621 39.8941 44.625 39.8049 44.6827C39.729 44.7378 39.653 44.7903 39.5745 44.8401L39.551 44.8558C39.4933 44.8952 39.4358 44.9319 39.3781 44.9686C39.1608 45.105 38.9408 45.2361 38.7182 45.362L38.6475 45.4014C38.548 45.4565 38.4486 45.5089 38.3491 45.5614C38.3359 45.5692 38.3202 45.5745 38.3071 45.5823L38.2914 45.5902C38.1657 45.6558 38.0373 45.7187 37.9091 45.779C37.4139 46.0179 36.904 46.2246 36.3824 46.398C36.3143 46.4216 36.2462 46.4452 36.1782 46.4662C35.2401 46.7651 34.2726 46.962 33.2924 47.0537C32.863 47.0931 32.4282 47.114 31.9909 47.114C30.7893 47.1165 29.5927 46.9595 28.4322 46.6472C27.8367 46.4915 27.253 46.2934 26.6856 46.0544C26.6567 46.0413 26.6253 46.0308 26.5965 46.0177C26.5652 46.0046 26.5363 45.9941 26.5075 45.981C26.476 45.9679 26.4473 45.9548 26.4158 45.9391C26.1697 45.8315 25.9261 45.7135 25.6879 45.5902L25.5727 45.5299C25.2819 45.3778 24.9965 45.2152 24.7189 45.042C24.6377 44.9922 24.554 44.9398 24.4754 44.8847C24.4545 44.8716 24.4361 44.8585 24.4151 44.8453C24.2292 44.7221 24.0433 44.5936 23.8626 44.4598C23.7396 44.368 23.6165 44.2762 23.496 44.1818C23.2944 44.0297 23.1006 43.867 22.9121 43.6992C22.8126 43.6153 22.7157 43.5235 22.6215 43.4369C22.2502 43.0935 21.8987 42.7293 21.5688 42.3459C21.4588 42.22 21.3514 42.0941 21.2492 41.9629C21.226 41.937 21.2041 41.9098 21.1837 41.8816C19.4823 39.7313 18.459 37.1221 18.2441 34.3868C18.0293 31.6515 18.6327 28.9141 19.9775 26.5238C21.3222 24.1334 23.3474 22.1983 25.7946 20.9654C28.2419 19.7325 31.0003 19.2575 33.7182 19.6011C36.436 19.9447 38.9901 21.0913 41.0546 22.8947C43.1192 24.6981 44.6007 27.0765 45.3102 29.7266C46.0197 32.3767 45.9251 35.1784 45.0383 37.7744C44.1516 40.3704 42.5129 42.643 40.3313 44.3024Z" fill="#9ABDA0"/>
<path d="M45.7677 79.0857C45.0702 77.0787 43.944 75.2483 42.4676 73.722C40.9912 72.1958 39.2001 71.0105 37.2194 70.2487C35.2386 69.487 33.1158 69.1672 30.9989 69.3116C28.8821 69.456 26.8221 70.0612 24.9628 71.0849C23.1034 72.1086 21.4894 73.5262 20.2333 75.2388C18.9772 76.9515 18.1091 78.9179 17.6898 81.0011C17.2704 83.0843 17.3098 85.234 17.8051 87.3004C18.3005 89.3667 19.24 91.3 20.558 92.9654C20.6889 93.1306 20.8251 93.2958 20.9638 93.4558C20.9743 93.4663 20.9821 93.4768 20.9926 93.4873C21.334 93.8812 21.6968 94.2559 22.0794 94.6098C22.1789 94.7016 22.2836 94.7961 22.3883 94.8852C22.5874 95.0636 22.7916 95.2341 23.0037 95.3967C23.4179 95.7236 23.8498 96.0274 24.2973 96.3068L24.3131 96.3146C24.6037 96.4956 24.8996 96.6635 25.2008 96.8235L25.3238 96.8864C25.6067 97.0333 25.8947 97.1723 26.1906 97.3008C26.2508 97.327 26.3163 97.3533 26.3765 97.3795C26.3818 97.3821 26.3845 97.3821 26.3897 97.3847C26.9876 97.6337 27.6018 97.8414 28.228 98.0063C29.4555 98.334 30.7205 98.4998 31.9909 98.4994C32.4544 98.4994 32.9127 98.4784 33.3657 98.4338C34.4008 98.3381 35.4227 98.1315 36.4138 97.8175C36.4165 97.8175 36.4191 97.8149 36.4216 97.8149C37.0477 97.6151 37.6594 97.3724 38.2521 97.0883C38.2547 97.0857 38.2601 97.0857 38.2626 97.0831C38.3961 97.0202 38.5245 96.952 38.6554 96.8864L38.7183 96.8549C38.823 96.7998 38.9278 96.7448 39.0325 96.6871C39.2943 96.5428 39.551 96.3907 39.805 96.2281C39.8757 96.1861 39.9438 96.1415 40.0145 96.0943C40.2449 95.9422 40.4727 95.7796 40.6927 95.6143C40.732 95.5855 40.7739 95.5566 40.8132 95.5252C43.2665 93.66 45.0672 91.0649 45.9572 88.1116C46.8472 85.1584 46.7809 81.9988 45.7677 79.0857Z" fill="white"/>
<path d="M36.8051 89.911C38.0125 89.911 38.9914 88.9306 38.9914 87.7212C38.9914 86.5119 38.0125 85.5315 36.8051 85.5315C35.5976 85.5315 34.6188 86.5119 34.6188 87.7212C34.6188 88.9306 35.5976 89.911 36.8051 89.911Z" fill="#2F2E41"/>
<path d="M37.4141 85.5918C37.7925 85.5918 38.1644 85.6901 38.4935 85.8772C38.8226 86.0643 39.0976 86.3338 39.2915 86.6592C39.4855 86.9846 39.5918 87.3549 39.6001 87.7338C39.6084 88.1127 39.5184 88.4873 39.3388 88.8209C39.5283 88.5834 39.6663 88.3089 39.7441 88.015C39.8218 87.7211 39.8376 87.4142 39.7904 87.1139C39.7431 86.8135 39.634 86.5263 39.4698 86.2706C39.3057 86.0148 39.0901 85.7961 38.837 85.6284C38.5838 85.4606 38.2985 85.3476 37.9992 85.2964C37.7 85.2452 37.3934 85.257 37.099 85.331C36.8045 85.4051 36.5287 85.5397 36.2891 85.7264C36.0495 85.9131 35.8514 86.1477 35.7073 86.4153C35.9117 86.1583 36.1713 85.9507 36.4669 85.8082C36.7624 85.6656 37.0861 85.5916 37.4141 85.5918Z" fill="#2F2E41"/>
<path d="M32.7194 87.7165C36.2664 87.7165 39.1419 84.8365 39.1419 81.2839C39.1419 77.7313 36.2664 74.8513 32.7194 74.8513C29.1723 74.8513 26.2969 77.7313 26.2969 81.2839C26.2969 84.8365 29.1723 87.7165 32.7194 87.7165Z" fill="#2F2E41"/>
<path d="M27.6788 77.2928C28.7854 76.0463 30.3323 75.2792 31.993 75.1533C33.6537 75.0274 35.2982 75.5527 36.5795 76.6183C36.5272 76.5682 36.4748 76.5178 36.4206 76.4693C35.1519 75.3309 33.4836 74.744 31.7829 74.8376C30.0821 74.9312 28.4881 75.6976 27.3515 76.9683C26.2149 78.239 25.6289 79.9099 25.7223 81.6133C25.8158 83.3168 26.581 84.9133 27.8497 86.0517C27.8619 86.0626 27.8741 86.0735 27.8864 86.0843C27.9409 86.1329 27.9969 86.1788 28.0527 86.2252C26.8461 85.0755 26.1326 83.5012 26.0629 81.8347C25.9932 80.1681 26.5724 78.5396 27.6788 77.2928Z" fill="#2F2E41"/>
<path d="M32.665 87.6618C34.9495 87.6618 36.8014 85.807 36.8014 83.5189C36.8014 81.2308 34.9495 79.376 32.665 79.376C30.3805 79.376 28.5286 81.2308 28.5286 83.5189C28.5286 85.807 30.3805 87.6618 32.665 87.6618Z" fill="#A0616A"/>
<path d="M40.067 94.3135V95.7035C39.8129 95.8661 39.5563 96.0183 39.2944 96.1625C39.1897 96.2202 39.085 96.2753 38.9803 96.3304L38.9173 96.3618C38.7864 96.4274 38.658 96.4956 38.5246 96.5586C38.522 96.5612 38.5166 96.5612 38.5141 96.5638C37.9213 96.8478 37.3097 97.0905 36.6836 97.2903C36.681 97.2903 36.6785 97.2929 36.6758 97.2929C35.6847 97.607 34.6628 97.8136 33.6276 97.9093C33.1746 97.9539 32.7163 97.9748 32.2528 97.9748C30.9825 97.9752 29.7175 97.8094 28.4899 97.4818C27.8637 97.3169 27.2495 97.1092 26.6516 96.8602C26.6464 96.8576 26.6437 96.8576 26.6385 96.8549C26.5782 96.8287 26.5128 96.8025 26.4526 96.7762C26.1567 96.6477 25.8686 96.5087 25.5858 96.3619L25.4628 96.2989C25.1615 96.1389 24.8656 95.9711 24.575 95.7901L24.5593 95.7822C24.1117 95.5029 23.6799 95.1991 23.2657 94.8721C23.0536 94.7095 22.8494 94.539 22.6503 94.3607C22.5456 94.2715 22.4408 94.1771 22.3414 94.0853C21.9588 93.7314 21.5959 93.3566 21.2545 92.9627C21.2998 92.6895 21.3664 92.4203 21.4536 92.1575L21.4562 92.1549C21.4718 92.1101 21.4902 92.0663 21.5111 92.0238C21.5256 91.9861 21.5422 91.9494 21.5609 91.9136C22.0296 91.035 22.8781 90.8173 23.9308 90.7701C24.5253 90.7439 25.1825 90.7727 25.8765 90.7649C26.2431 90.7622 26.6227 90.7491 27.0025 90.715C29.3986 90.4973 28.9639 89.081 29.0712 88.3178C29.1786 87.5782 29.8438 88.2182 29.8883 88.2601L29.8908 88.2627C31.2467 88.8983 32.7469 89.1617 34.2378 89.026C34.4944 88.9945 34.7511 88.9761 35.0077 88.9683C35.6833 88.9604 35.5366 89.1545 35.3037 89.3145C35.1906 89.389 35.0724 89.4556 34.9501 89.5138C34.9501 89.5138 34.8427 90.1695 34.7328 91.1504C34.6281 92.0893 36.4244 92.53 36.5736 92.5641C36.5767 92.5661 36.5804 92.5671 36.5841 92.5667C37.2401 92.3963 37.9308 92.4145 38.577 92.6192H38.5796C38.9488 92.7551 39.2782 92.9813 39.538 93.2772C39.7977 93.5731 39.9796 93.9293 40.067 94.3135Z" fill="#267233"/>
<path d="M26.6777 95.9998C26.6777 96.1938 26.6726 96.3801 26.6647 96.5558C26.6621 96.6607 26.6569 96.763 26.6516 96.86C26.6464 96.8574 26.6437 96.8574 26.6384 96.8548C26.5782 96.8285 26.5128 96.8023 26.4525 96.7761C26.1567 96.6476 25.8686 96.5086 25.5858 96.3617L25.4627 96.2988C25.1615 96.1388 24.8656 95.9709 24.575 95.7899C24.5828 95.6981 24.596 95.6063 24.609 95.5145C24.6378 95.3126 24.6614 95.108 24.6771 94.9061C24.7801 93.4873 24.5234 92.0654 23.9308 90.7726V90.77C23.8784 90.665 23.847 90.6073 23.847 90.6073C23.847 90.6073 24.609 89.9516 25.6957 90.6073C25.7651 90.6482 25.8264 90.7015 25.8765 90.7647C26.5312 91.5384 26.7092 94.1402 26.6777 95.9998Z" fill="#2F2E41"/>
<path d="M38.569 95.6432C38.5585 95.9369 38.5428 96.2438 38.5245 96.5559V96.5585C38.5219 96.5612 38.5166 96.5612 38.514 96.5638C37.9212 96.8478 37.3096 97.0905 36.6835 97.2903C36.6809 97.2903 36.6784 97.2929 36.6757 97.2929L36.6469 96.5559L36.6442 96.4589L36.5055 92.8709C36.5018 92.7897 36.5146 92.7086 36.543 92.6324C36.5715 92.5563 36.615 92.4867 36.6711 92.4279C36.7271 92.369 36.7945 92.3222 36.8691 92.2902C36.9437 92.2581 37.024 92.2416 37.1052 92.2415H38.4328C38.4983 92.2415 38.5455 92.3752 38.5769 92.6165V92.6191C38.6413 93.6262 38.6386 94.6365 38.569 95.6432Z" fill="#2F2E41"/>
<path d="M29.1272 78.3403V82.4843H30.0851L31.3041 81.1761L31.141 82.4843H35.3753L35.1134 81.1761L35.6372 82.4843H36.3123V78.3403H29.1272Z" fill="#2F2E41"/>
<path d="M28.474 83.2465C28.6544 83.2465 28.8006 82.9781 28.8006 82.6469C28.8006 82.3158 28.6544 82.0474 28.474 82.0474C28.2937 82.0474 28.1475 82.3158 28.1475 82.6469C28.1475 82.9781 28.2937 83.2465 28.474 83.2465Z" fill="#A0616A"/>
<path d="M36.8561 83.2465C37.0364 83.2465 37.1826 82.9781 37.1826 82.6469C37.1826 82.3158 37.0364 82.0474 36.8561 82.0474C36.6757 82.0474 36.5295 82.3158 36.5295 82.6469C36.5295 82.9781 36.6757 83.2465 36.8561 83.2465Z" fill="#A0616A"/>
<path d="M40.9546 95.0897C40.7346 95.2549 40.5068 95.4175 40.2764 95.5696C40.2057 95.6168 40.1376 95.6614 40.0669 95.7034C39.8129 95.866 39.5562 96.0181 39.2944 96.1624C39.1897 96.2201 39.0849 96.2752 38.9802 96.3302V93.4399C38.9802 93.4399 39.3991 93.7757 40.0669 94.3343C40.1507 94.4051 40.2371 94.4786 40.3288 94.5572C40.5225 94.7199 40.7321 94.8982 40.9546 95.0897Z" fill="#267233"/>
<path d="M45.7677 79.0857C45.0702 77.0787 43.944 75.2483 42.4676 73.722C40.9912 72.1958 39.2001 71.0105 37.2194 70.2487C35.2386 69.487 33.1158 69.1672 30.9989 69.3116C28.8821 69.456 26.8221 70.0612 24.9628 71.0849C23.1034 72.1086 21.4894 73.5262 20.2333 75.2388C18.9772 76.9515 18.1091 78.9179 17.6898 81.0011C17.2704 83.0843 17.3098 85.234 17.8051 87.3004C18.3005 89.3667 19.24 91.3 20.558 92.9654C20.6889 93.1306 20.8251 93.2958 20.9638 93.4558C20.9743 93.4663 20.9821 93.4768 20.9926 93.4873C21.334 93.8812 21.6968 94.2559 22.0794 94.6098C22.1789 94.7016 22.2836 94.7961 22.3883 94.8852C22.5874 95.0636 22.7916 95.2341 23.0037 95.3967C23.4179 95.7236 23.8498 96.0274 24.2973 96.3068L24.3131 96.3146C24.6037 96.4956 24.8996 96.6635 25.2008 96.8235L25.3238 96.8864C25.6067 97.0333 25.8947 97.1723 26.1906 97.3008C26.2508 97.327 26.3163 97.3533 26.3765 97.3795C26.3818 97.3821 26.3845 97.3821 26.3897 97.3847C26.9876 97.6337 27.6018 97.8414 28.228 98.0063C29.4555 98.334 30.7205 98.4998 31.9909 98.4994C32.4544 98.4994 32.9127 98.4784 33.3657 98.4338C34.4008 98.3381 35.4227 98.1315 36.4138 97.8175C36.4165 97.8175 36.4191 97.8149 36.4216 97.8149C37.0477 97.6151 37.6594 97.3724 38.2521 97.0883C38.2547 97.0857 38.2601 97.0857 38.2626 97.0831C38.3961 97.0202 38.5245 96.952 38.6554 96.8864L38.7183 96.8549C38.823 96.7998 38.9278 96.7448 39.0325 96.6871C39.2943 96.5428 39.551 96.3907 39.805 96.2281C39.8757 96.1861 39.9438 96.1415 40.0145 96.0943C40.2449 95.9422 40.4727 95.7796 40.6927 95.6143C40.732 95.5855 40.7739 95.5566 40.8132 95.5252C43.2665 93.66 45.0672 91.0649 45.9572 88.1116C46.8472 85.1584 46.7809 81.9988 45.7677 79.0857ZM40.3313 94.8879C40.2449 94.956 40.1559 95.0216 40.0669 95.0819C39.9805 95.1475 39.894 95.2104 39.805 95.2681C39.7291 95.3232 39.6531 95.3757 39.5745 95.4255C39.509 95.4701 39.4436 95.5121 39.3781 95.554C39.1609 95.6904 38.9409 95.8215 38.7183 95.9474L38.6475 95.9868C38.548 96.0419 38.4485 96.0943 38.349 96.1468C38.3359 96.1546 38.3201 96.1599 38.3071 96.1678L38.2914 96.1756C38.1657 96.2412 38.0375 96.3041 37.9091 96.3645C37.4139 96.6033 36.904 96.8101 36.3824 96.9834C36.3144 97.007 36.2462 97.0306 36.1782 97.0516C35.2401 97.3505 34.2726 97.5474 33.2924 97.6391C32.8629 97.6785 32.4282 97.6994 31.9909 97.6994C30.7893 97.7019 29.5926 97.5449 28.4322 97.2326C27.8367 97.0769 27.253 96.8788 26.6856 96.6399C26.6254 96.6162 26.5651 96.59 26.5075 96.5664C26.4761 96.5533 26.4472 96.5402 26.4158 96.5245C26.1697 96.4169 25.9262 96.2989 25.6879 96.1756L25.5727 96.1153C25.282 95.9632 24.9965 95.8006 24.7189 95.6275C24.6169 95.5645 24.5147 95.4989 24.4152 95.4307C24.1009 95.2235 23.7946 95.0006 23.496 94.7672C23.2944 94.6151 23.1007 94.4524 22.9121 94.2846C22.8126 94.2007 22.7157 94.1089 22.6214 94.0223C22.2502 93.6789 21.8987 93.3146 21.5687 92.9313C21.4588 92.8054 21.3514 92.6795 21.2492 92.5483C21.226 92.5224 21.2041 92.4953 21.1837 92.467C19.4823 90.3167 18.4589 87.7075 18.2441 84.9722C18.0293 82.2369 18.6327 79.4996 19.9775 77.1092C21.3222 74.7188 23.3474 72.7838 25.7946 71.5508C28.2419 70.3179 31.0003 69.8429 33.7181 70.1866C36.436 70.5302 38.99 71.6768 41.0546 73.4801C43.1192 75.2835 44.6007 77.6619 45.3102 80.312C46.0197 82.9621 45.925 85.7638 45.0383 88.3598C44.1515 90.9558 42.5129 93.2284 40.3313 94.8879Z" fill="#267233"/>
<path d="M32.0734 141.04C35.23 141.04 37.789 138.477 37.789 135.316C37.789 132.154 35.23 129.591 32.0734 129.591C28.9167 129.591 26.3578 132.154 26.3578 135.316C26.3578 138.477 28.9167 141.04 32.0734 141.04Z" fill="#2F2E41"/>
<path d="M27.612 132.23C28.5357 131.305 28.7229 129.992 28.0301 129.298C27.3374 128.605 26.0271 128.792 25.1035 129.717C24.1799 130.642 23.9927 131.955 24.6854 132.648C25.3781 133.342 26.6884 133.155 27.612 132.23Z" fill="#2F2E41"/>
<path d="M38.0305 130.412C38.4153 129.509 37.7535 128.361 36.5523 127.847C35.3511 127.333 34.0654 127.648 33.6806 128.551C33.2957 129.453 33.9575 130.601 35.1587 131.115C36.3599 131.629 37.6456 131.314 38.0305 130.412Z" fill="#2F2E41"/>
<path d="M38.91 146.42L38.2366 145.359C37.9508 144.72 37.4238 144.22 36.7708 143.969C36.1179 143.718 35.3923 143.736 34.7529 144.02C34.1136 144.304 33.6126 144.83 33.3597 145.483C33.1069 146.136 33.1227 146.863 33.4038 147.505L33.5953 148.192L33.8132 148.973C34.6955 148.861 35.566 148.671 36.4144 148.404C36.4169 148.404 36.4193 148.402 36.421 148.401C37.0481 148.202 37.6604 147.959 38.2532 147.673C38.2564 147.67 38.2596 147.67 38.263 147.667C38.395 147.604 38.5238 147.538 38.6558 147.472C38.6774 147.462 38.6983 147.451 38.7185 147.439C38.8241 147.386 38.9298 147.329 39.0322 147.273C39.1378 147.217 39.2401 147.157 39.3391 147.095L38.91 146.42Z" fill="#CACACA"/>
<path d="M32.2546 141.541C34.9336 141.541 37.1053 139.366 37.1053 136.683C37.1053 133.999 34.9336 131.824 32.2546 131.824C29.5756 131.824 27.4038 133.999 27.4038 136.683C27.4038 139.366 29.5756 141.541 32.2546 141.541Z" fill="#FFB6B6"/>
<path d="M39.26 146.212C38.7249 145.321 38.0608 144.514 37.2892 143.818C36.7607 143.345 36.0768 143.084 35.3681 143.084H28.5349C28.1411 143.084 27.7515 143.165 27.3901 143.321C27.0288 143.478 26.7033 143.707 26.4339 143.995C26.1644 144.282 25.9567 144.622 25.8235 144.993C25.6903 145.364 25.6346 145.759 25.6597 146.152C25.6746 146.374 25.7145 146.594 25.7786 146.807C25.8273 146.961 25.888 147.112 25.9601 147.257L26.2968 147.931C26.3232 147.941 26.3497 147.954 26.3759 147.964C26.3825 147.968 26.3859 147.968 26.3892 147.971C26.5278 148.027 26.6665 148.083 26.8084 148.136C27.2729 148.314 27.7468 148.466 28.2279 148.592C29.0024 148.801 29.793 148.943 30.5914 149.019C31.0568 149.062 31.5223 149.085 31.9911 149.085C32.4566 149.085 32.9121 149.062 33.3676 149.019C33.5162 149.006 33.6646 148.989 33.8132 148.973C34.6955 148.861 35.566 148.671 36.4144 148.404C36.4169 148.404 36.4193 148.402 36.421 148.401C37.0482 148.202 37.6604 147.959 38.2532 147.673C38.2564 147.67 38.2596 147.67 38.263 147.667C38.395 147.604 38.5238 147.538 38.6558 147.472C38.6774 147.462 38.6983 147.451 38.7185 147.439C38.8241 147.386 38.9298 147.329 39.0322 147.273C39.1378 147.217 39.2401 147.157 39.3391 147.095C39.4448 147.038 39.5438 146.976 39.6461 146.913C39.5208 146.665 39.392 146.433 39.26 146.212Z" fill="#CACACA"/>
<path d="M29.7727 143.97C29.1403 143.674 28.4166 143.641 27.7597 143.877C27.1028 144.114 26.5662 144.602 26.2671 145.233L25.6596 146.152L25.3692 146.592L24.9269 147.26C25.0192 147.31 25.1084 147.359 25.2009 147.409L25.3229 147.472C25.6069 147.617 25.894 147.756 26.1912 147.885C26.2241 147.901 26.2605 147.915 26.2968 147.931C26.3232 147.941 26.3496 147.954 26.3759 147.964C26.3825 147.968 26.3859 147.968 26.3891 147.971C26.5277 148.027 26.6665 148.083 26.8084 148.136C27.2729 148.314 27.7468 148.466 28.2279 148.592C29.0024 148.801 29.793 148.943 30.5913 149.019L30.8225 148.235L31.047 147.488C31.3429 146.852 31.3749 146.125 31.1361 145.465C30.8972 144.806 30.4069 144.268 29.7727 143.97Z" fill="#CACACA"/>
<path d="M27.1576 133.627C28.2661 134.392 29.5817 134.799 30.928 134.794C30.4478 135.127 29.9011 135.353 29.3255 135.454C31.1155 135.839 32.9654 135.849 34.7595 135.485C35.1583 135.421 35.5431 135.288 35.897 135.093C36.0734 134.995 36.2271 134.86 36.348 134.698C36.469 134.536 36.5546 134.35 36.5992 134.153C36.7184 133.471 36.1877 132.851 35.6362 132.433C34.7918 131.804 33.8182 131.37 32.7858 131.163C31.7534 130.956 30.6881 130.982 29.6669 131.239C28.9865 131.376 28.3673 131.726 27.899 132.239C27.6724 132.5 27.5356 132.827 27.5088 133.172C27.482 133.517 27.5667 133.862 27.7502 134.155L27.1576 133.627Z" fill="#2F2E41"/>
<path d="M45.7695 129.671C45.0722 127.664 43.946 125.833 42.4696 124.306C40.9933 122.78 39.2022 121.594 37.2213 120.833C35.2404 120.071 33.1175 119.751 31.0005 119.895C28.8835 120.039 26.8234 120.645 24.9639 121.668C23.1044 122.692 21.4903 124.11 20.2341 125.823C18.9779 127.535 18.1098 129.502 17.6905 131.585C17.2712 133.669 17.3107 135.819 17.8062 137.885C18.3018 139.952 19.2414 141.885 20.5597 143.55C20.6883 143.716 20.8271 143.881 20.9657 144.04C20.9736 144.051 20.9825 144.062 20.9921 144.073C21.334 144.466 21.6977 144.841 22.0814 145.193C22.1804 145.286 22.2827 145.382 22.3885 145.471C22.5864 145.65 22.7911 145.818 23.0056 145.98C23.0882 146.046 23.1707 146.113 23.2566 146.175C23.5899 146.43 23.9398 146.665 24.2964 146.893C24.3025 146.893 24.3083 146.895 24.3128 146.899C24.4152 146.962 24.5209 147.025 24.6265 147.085C24.7255 147.144 24.8278 147.204 24.9269 147.26C25.0193 147.309 25.1084 147.359 25.2009 147.409L25.323 147.471C25.607 147.617 25.894 147.756 26.1913 147.885C26.2241 147.901 26.2606 147.914 26.2968 147.931C26.3233 147.941 26.3497 147.954 26.376 147.964C26.3826 147.967 26.386 147.967 26.3892 147.971C26.5278 148.027 26.6666 148.083 26.8084 148.136C27.2729 148.314 27.7468 148.466 28.228 148.592C29.0024 148.801 29.793 148.943 30.5914 149.019C31.0569 149.062 31.5224 149.085 31.9911 149.085C32.4566 149.085 32.9121 149.062 33.3676 149.019C33.5162 149.006 33.6647 148.989 33.8133 148.972C34.6955 148.861 35.566 148.671 36.4145 148.404C36.417 148.403 36.4193 148.402 36.4211 148.4C37.0482 148.202 37.6604 147.959 38.2532 147.673C38.2564 147.67 38.2597 147.67 38.2631 147.666C38.3951 147.604 38.5238 147.538 38.6559 147.471C38.6774 147.462 38.6984 147.451 38.7186 147.438C38.8241 147.385 38.9299 147.329 39.0322 147.273C39.1378 147.217 39.2401 147.157 39.3391 147.095C39.4448 147.038 39.5438 146.976 39.6462 146.913C39.699 146.88 39.7519 146.847 39.8046 146.814C39.8773 146.771 39.9432 146.728 40.0159 146.678C40.1149 146.615 40.214 146.546 40.3096 146.476C40.4384 146.387 40.5672 146.294 40.6926 146.199C40.7348 146.171 40.7756 146.141 40.8148 146.109C43.2662 144.243 45.0655 141.648 45.9554 138.695C46.8454 135.743 46.7803 132.584 45.7695 129.671ZM40.3328 145.471C40.2469 145.541 40.1578 145.607 40.0688 145.666C39.9795 145.732 39.8938 145.795 39.8046 145.855C39.7287 145.908 39.6528 145.961 39.5737 146.01C39.5665 146.016 39.5587 146.022 39.5504 146.027C39.4944 146.066 39.4349 146.103 39.3788 146.139C39.3391 146.162 39.2997 146.189 39.26 146.212C39.1444 146.285 39.0289 146.354 38.9101 146.42C38.8474 146.46 38.7813 146.496 38.7186 146.532C38.6955 146.546 38.6723 146.559 38.6493 146.572C38.5469 146.628 38.4479 146.678 38.3488 146.731C38.3358 146.741 38.3192 146.744 38.3093 146.754C38.3032 146.754 38.2973 146.756 38.2927 146.761C38.1673 146.827 38.0385 146.89 37.9099 146.949C37.4143 147.188 36.9037 147.394 36.3814 147.567C36.3155 147.59 36.2462 147.617 36.1801 147.637C35.3382 147.904 34.4727 148.09 33.5954 148.192C33.4964 148.205 33.394 148.215 33.2917 148.225C32.8626 148.265 32.4302 148.285 31.9911 148.285C31.6015 148.285 31.2087 148.268 30.8225 148.235C30.0151 148.168 29.2153 148.028 28.4327 147.819C27.8369 147.663 27.2533 147.464 26.6864 147.223C26.6566 147.21 26.627 147.2 26.5973 147.187C26.5643 147.174 26.5378 147.164 26.5082 147.151C26.4751 147.138 26.4487 147.124 26.4156 147.108C26.2011 147.015 25.9866 146.913 25.7786 146.807C25.7488 146.79 25.7192 146.777 25.6895 146.761L25.574 146.701C25.5046 146.665 25.4353 146.628 25.3693 146.592C25.1481 146.473 24.9302 146.344 24.719 146.212C24.6397 146.162 24.554 146.109 24.4747 146.056L24.4152 146.017C24.2303 145.891 24.0456 145.765 23.864 145.63C23.7418 145.537 23.6164 145.448 23.4976 145.352C23.2963 145.2 23.1014 145.038 22.9133 144.869C22.8142 144.787 22.7152 144.694 22.6229 144.608C22.2511 144.265 21.8995 143.901 21.5698 143.517C21.4609 143.392 21.3519 143.266 21.2496 143.134C21.2265 143.107 21.2067 143.081 21.1835 143.051C19.4817 140.901 18.458 138.291 18.2429 135.555C18.0279 132.82 18.6312 130.082 19.976 127.691C21.3208 125.3 23.3461 123.365 25.7936 122.132C28.2411 120.899 30.9999 120.423 33.7181 120.767C36.4364 121.11 38.9908 122.257 41.0557 124.061C43.1207 125.864 44.6024 128.243 45.3121 130.893C46.0218 133.544 45.9272 136.346 45.0404 138.942C44.1536 141.539 42.5147 143.811 40.3328 145.471Z" fill="#9ABDA0"/>
<path d="M56.3969 58.2851C51.3173 53.9921 45.1013 51.2705 38.5055 50.4512C31.9097 49.632 25.2183 50.7506 19.2456 53.6709C13.2729 56.5911 8.27643 61.1872 4.86418 66.8997C1.45192 72.6122 -0.22899 79.195 0.0259766 85.8469C0.280943 92.4988 2.46079 98.9331 6.30028 104.367C10.1398 109.801 15.4733 113.999 21.652 116.452C27.8306 118.905 34.5879 119.507 41.1017 118.184C47.6154 116.86 53.6047 113.669 58.3407 108.999L100.396 144.541C101.036 145.08 101.864 145.343 102.697 145.271C103.53 145.2 104.302 144.801 104.842 144.161C105.382 143.522 105.646 142.694 105.578 141.859C105.509 141.024 105.113 140.25 104.476 139.708L104.471 139.704L62.4156 104.162C67.3011 97.1393 69.3921 88.5423 68.2787 80.0559C67.1654 71.5695 62.9279 63.8054 56.3969 58.2851ZM53.6857 100.74C50.4094 104.629 46.0553 107.457 41.174 108.867C36.2927 110.278 31.1034 110.207 26.2624 108.663C21.4214 107.12 17.146 104.173 13.977 100.196C10.8079 96.2193 8.88757 91.3903 8.45869 86.3201C8.02982 81.2499 9.11172 76.1662 11.5676 71.7118C14.0234 67.2575 17.7429 63.6325 22.2557 61.2954C26.7685 58.9582 31.8719 58.0139 36.9205 58.5817C41.9692 59.1496 46.7363 61.2042 50.6191 64.4856C55.8258 68.8859 59.074 75.1775 59.6491 81.9765C60.2242 88.7754 58.0791 95.5247 53.6857 100.74Z" fill="#267233"/>
<path opacity="0.3" d="M17.4887 103.811C12.5609 99.6463 9.37721 93.7775 8.56971 87.3703C7.76222 80.9632 9.39 74.4861 13.1298 69.2253C12.6387 69.7207 12.1639 70.2396 11.7054 70.7818C9.53006 73.364 7.88378 76.35 6.86058 79.5693C5.83739 82.7887 5.45732 86.1784 5.74208 89.5449C6.02684 92.9114 6.97085 96.1888 8.52022 99.1899C10.0696 102.191 12.1939 104.857 14.772 107.036C17.3501 109.215 20.3314 110.863 23.5458 111.888C26.7601 112.913 30.1445 113.294 33.5057 113.009C36.8669 112.723 40.1391 111.778 43.1355 110.226C46.1319 108.674 48.7937 106.547 50.9691 103.964C51.4265 103.421 51.8573 102.865 52.2614 102.296C47.7129 106.874 41.612 109.57 35.1702 109.851C28.7284 110.132 22.4168 107.976 17.4887 103.811Z" fill="black"/>
<path d="M141.18 145.87C141.509 145.468 141.745 144.999 141.873 144.496C142.001 143.993 142.018 143.467 141.921 142.957C141.824 142.447 141.617 141.964 141.314 141.543C141.011 141.122 140.62 140.772 140.167 140.519L132.502 109.093L126.909 110.881L135.187 142.092C134.812 142.882 134.74 143.782 134.984 144.621C135.227 145.461 135.77 146.181 136.508 146.647C137.247 147.113 138.131 147.291 138.992 147.147C139.853 147.004 140.632 146.549 141.18 145.87Z" fill="#FFB6B6"/>
<path d="M137.218 125.769L133.131 129.3L127.414 134.236L124.889 121.296L124.625 119.95L124.417 118.882L130.21 108.775L135.039 109.052L135.37 109.072L135.376 109.145L135.452 109.823L136.442 118.743L136.466 118.958L137.218 125.769Z" fill="#455A64"/>
<path d="M110.506 213.607L106.46 213.606L104.534 197.972L110.507 197.972L110.506 213.607Z" fill="#FFB6B6"/>
<path d="M111.539 217.536L98.4895 217.535V217.37C98.4896 216.021 99.0248 214.727 99.9773 213.773C100.93 212.819 102.222 212.283 103.569 212.283H103.569L111.539 212.283L111.539 217.536Z" fill="#2F2E41"/>
<path d="M152.76 213.937L148.713 213.937L146.787 198.302L152.761 198.303L152.76 213.937Z" fill="#FFB6B6"/>
<path d="M153.792 217.866L140.743 217.866V217.701C140.743 216.351 141.278 215.058 142.23 214.104C143.183 213.15 144.475 212.614 145.822 212.614H145.822L153.792 212.614L153.792 217.866Z" fill="#2F2E41"/>
<path d="M155.994 207.714L145.101 209.367L129.253 155.647L112.421 209.697L100.207 208.044L116.052 145.226V140.267L118.197 132.828L117.973 130.814L116.412 116.733L115.735 110.626L115.691 110.232C115.654 109.901 115.742 109.568 115.937 109.298C116.131 109.028 116.42 108.84 116.745 108.771L121.829 107.7H130.137L135.039 109.052L135.376 109.145L135.528 109.188L135.452 109.823L134.303 119.47L134.24 119.999L133.131 129.3L132.887 131.34C142.46 138.283 142.79 145.226 142.79 145.226L155.994 207.714Z" fill="#2C373D"/>
<path d="M124.979 103.517C129.457 103.517 133.087 99.8816 133.087 95.3968C133.087 90.912 129.457 87.2764 124.979 87.2764C120.501 87.2764 116.871 90.912 116.871 95.3968C116.871 99.8816 120.501 103.517 124.979 103.517Z" fill="#FFB6B6"/>
<path d="M133.495 129.474L117.456 131.574L117.756 133.869L133.794 131.769L133.495 129.474Z" fill="#455A64"/>
<path d="M95.9429 132.266C96.0962 132.366 96.2415 132.477 96.3774 132.599L112.241 128.549L113.323 124.716L119.312 125.596L118.055 132.568C117.953 133.131 117.672 133.646 117.253 134.036C116.835 134.425 116.301 134.668 115.733 134.728L97.2102 136.682C96.9083 137.318 96.42 137.848 95.8104 138.2C95.2007 138.552 94.4985 138.709 93.7972 138.652C93.0959 138.594 92.4287 138.324 91.8843 137.877C91.34 137.431 90.9443 136.829 90.7499 136.152C90.5555 135.474 90.5715 134.754 90.796 134.086C91.0204 133.418 91.4426 132.834 92.0064 132.412C92.5701 131.99 93.2487 131.751 93.9519 131.724C94.6551 131.698 95.3495 131.887 95.9429 132.266Z" fill="#FFB6B6"/>
<path d="M120.343 110.841L117.537 108.692C116.779 108.404 115.739 109.223 115.557 110.015L111.595 126.215L119.848 132.166L121.003 130.348L120.343 110.841Z" fill="#455A64"/>
<g opacity="0.2">
<path d="M136.442 118.743C135.742 119.021 135.028 119.264 134.303 119.47C134.072 119.54 133.835 119.606 133.6 119.669C132.055 120.098 130.468 120.355 128.866 120.436C128.177 120.465 127.487 120.446 126.8 120.38C126.063 120.306 125.335 120.162 124.625 119.95C124.602 119.943 124.575 119.937 124.552 119.93C123.076 119.51 121.723 118.74 120.607 117.685C120.358 117.442 120.125 117.182 119.911 116.908C119.294 116.152 118.842 115.275 118.583 114.334C118.324 113.393 118.263 112.409 118.406 111.443C118.433 111.268 118.471 111.095 118.518 110.924C118.642 110.458 118.807 110.005 119.01 109.568C119.099 109.363 119.198 109.162 119.303 108.963L123.034 107.7H130.137L135.039 109.052L135.37 109.072L135.376 109.145L135.528 109.188L135.452 109.823L136.442 118.743Z" fill="black"/>
</g>
<path d="M118.766 88.6739C117.25 88.4877 115.586 88.6194 114.404 89.5888C113.222 90.5583 112.841 92.5736 113.96 93.6152C114.951 94.5374 116.499 94.3205 117.826 94.5827C118.969 94.8393 119.993 95.4726 120.734 96.3811C121.476 97.2896 121.891 98.4209 121.914 99.5938C121.894 102.958 118.671 105.505 118.092 108.819C117.697 111.08 118.649 113.46 120.296 115.057C121.942 116.655 124.205 117.518 126.485 117.752C128.766 117.986 131.071 117.628 133.287 117.042C135.513 116.452 137.703 115.617 139.571 114.268C141.438 112.92 142.969 111.02 143.568 108.794C144.168 106.568 143.737 104.016 142.192 102.307C140.423 100.35 137.48 99.6774 135.95 97.5279C134.235 95.1184 134.869 91.6871 133.481 89.0748C132.554 87.3307 130.799 86.1411 128.928 85.5145C127.058 84.8878 125.06 84.7641 123.088 84.7034C122.052 84.6715 120.984 84.6609 120.018 85.0393C119.052 85.4178 118.204 86.2802 118.154 87.3175C118.104 88.3548 118.766 88.6739 118.766 88.6739Z" fill="#2F2E41"/>
<path d="M194.67 218H68.9004C68.8129 218 68.7289 217.965 68.667 217.903C68.6051 217.841 68.5703 217.757 68.5703 217.669C68.5703 217.582 68.6051 217.498 68.667 217.436C68.7289 217.374 68.8129 217.339 68.9004 217.339H194.67C194.757 217.339 194.841 217.374 194.903 217.436C194.965 217.498 195 217.582 195 217.669C195 217.757 194.965 217.841 194.903 217.903C194.841 217.965 194.757 218 194.67 218Z" fill="#CACACA"/>
</g>
<defs>
<clipPath id="clip0_672_1149">
<rect width="173" height="218" fill="white"/>
</clipPath>
</defs>
</svg>
