<svg width="166" height="196" viewBox="0 0 166 196" fill="none" xmlns="http://www.w3.org/2000/svg">
<path d="M117.371 164.604L119 196C119 196 50.0974 130.169 41.5133 110.908C32.9293 91.6464 49.0875 44 49.0875 44L84.9385 63.7682L117.371 164.604Z" fill="#9F616A"/>
<path d="M11.9473 30L0.893615 31C0.893615 31 -4.89641 43 13 44L11.9473 30Z" fill="#9F616A"/>
<path d="M11.9473 49L0.893615 50C0.893615 50 -4.89641 62 13 63L11.9473 49Z" fill="#9F616A"/>
<path d="M11.9473 69L0.893615 70.0714C0.893615 70.0714 -4.89641 82.9286 13 84L11.9473 69Z" fill="#9F616A"/>
<path d="M14.9473 89L3.89362 90.0714C3.89362 90.0714 -1.89641 102.929 16 104L14.9473 89Z" fill="#9F616A"/>
<path d="M6 35.1703H6.81543V12.8933C6.81543 11.2002 7.14984 9.52356 7.79957 7.95927C8.44931 6.39498 9.40163 4.97363 10.6022 3.77637C11.8027 2.57912 13.228 1.6294 14.7966 0.981452C16.3652 0.3335 18.0464 1.29724e-06 19.7443 0H67.0711C68.769 -3.45921e-06 70.4502 0.33349 72.0188 0.981437C73.5874 1.62938 75.0127 2.5791 76.2132 3.77635C77.4138 4.9736 78.3661 6.39495 79.0158 7.95923C79.6656 9.52352 80 11.2001 80 12.8933V135.107C80 136.8 79.6656 138.476 79.0159 140.041C78.3661 141.605 77.4138 143.026 76.2132 144.224C75.0127 145.421 73.5874 146.371 72.0188 147.019C70.4502 147.667 68.769 148 67.0712 148H19.7443C16.3154 148 13.0269 146.642 10.6022 144.224C8.1776 141.806 6.81545 138.526 6.81544 135.107V51.0275H6V35.1703Z" fill="#1D2B33"/>
<path d="M19.6746 3.00001H25.8648C25.5801 3.6981 25.4715 4.45549 25.5484 5.20548C25.6253 5.95546 25.8854 6.67502 26.3059 7.30076C26.7263 7.9265 27.2941 8.43923 27.9593 8.79376C28.6245 9.14829 29.3667 9.33376 30.1204 9.33382H57.2881C58.0419 9.33376 58.784 9.1483 59.4492 8.79377C60.1144 8.43923 60.6823 7.92651 61.1027 7.30077C61.5231 6.67502 61.7832 5.95546 61.8602 5.20548C61.9371 4.45549 61.8284 3.69809 61.5437 3H67.3254C69.8912 3 72.352 4.01952 74.1664 5.83429C75.9807 7.64905 77 10.1104 77 12.6769V135.323C77 136.594 76.7497 137.852 76.2636 139.026C75.7774 140.2 75.0647 141.267 74.1664 142.166C73.268 143.064 72.2015 143.777 71.0277 144.263C69.8539 144.75 68.5959 145 67.3254 145H19.6746C18.4041 145 17.1461 144.75 15.9723 144.263C14.7985 143.777 13.732 143.064 12.8336 142.166C11.9353 141.267 11.2226 140.2 10.7364 139.026C10.2502 137.852 10 136.594 10 135.323V12.6769C10 11.4061 10.2502 10.1478 10.7364 8.9737C11.2226 7.79965 11.9353 6.73288 12.8336 5.8343C13.732 4.93572 14.7985 4.22292 15.9723 3.73661C17.1461 3.2503 18.4041 3.00001 19.6746 3.00001Z" fill="#3E515A"/>
<path d="M53 37H33V43H53V37Z" fill="#267233"/>
<path d="M54 59H32V63H54V59Z" fill="#818F92"/>
<path d="M68 69H18V73H68V69Z" fill="#818F92"/>
<path d="M68 79H18V84H68V79Z" fill="#818F92"/>
<path d="M166 181.021L108.818 115.865L106.775 74.0245L85.3182 38.3073L79.1878 23C79.1878 23 64.8833 24.5307 76.6334 53.6147L81.4867 69.1772C77.1118 78.5884 74.8453 88.8395 74.8453 99.2156V134.877C74.8453 143.274 114.91 189.013 119.574 196L166 181.021Z" fill="#9F616A"/>
<path opacity="0.2" d="M81.2887 41L85 39.0412L84.8735 38.7647L81.4444 40.5747L76.2679 26L76 26.11L81.2887 41Z" fill="black"/>
<path opacity="0.2" d="M0.920905 30.8017L0.807373 31.1099L7.10327 33.4291L7.2168 33.1209L0.920905 30.8017Z" fill="black"/>
<path opacity="0.2" d="M0.920905 49.8494L0.807373 50.1577L7.10327 52.4769L7.2168 52.1686L0.920905 49.8494Z" fill="black"/>
<path opacity="0.2" d="M0.920905 70.211L0.807373 70.5192L7.10327 72.8384L7.2168 72.5302L0.920905 70.211Z" fill="black"/>
<path opacity="0.2" d="M4.21947 90.5784L4.07739 90.8744L7.1426 92.3456L7.28468 92.0495L4.21947 90.5784Z" fill="black"/>
<path d="M43 127C50.732 127 57 120.508 57 112.5C57 104.492 50.732 98 43 98C35.268 98 29 104.492 29 112.5C29 120.508 35.268 127 43 127Z" fill="#267233"/>
<path d="M41.3892 118L37 112.524L39.5525 110.598L41.6307 113.191L48.6521 106L51 108.158L41.3892 118Z" fill="white"/>
</svg>
